{
.appVersion = "3134";
.formatVersion = 3;
classes = (
{
code = "A Aacute Abreve Acircumflex Adieresis Agrave Amacron Aogonek Aring Atilde AE B C Cacute Ccaron Ccedilla Cdotaccent D Eth Dcaron Dcroat E Eacute Ecaron Ecircumflex Edieresis Edotaccent Egrave Emacron Eogonek F G Gbreve Gdotaccent H Hbar I Iacute Icircumflex Idieresis Idotaccent Igrave Imacron Iogonek J K L Lacute Lcaron Ldot Lslash M N Nacute Ncaron Ntilde Eng O Oacute Ocircumflex Odieresis Ograve Ohungarumlaut Omacron Oslash Otilde OE P Thorn Q R Racute Rcaron S Sacute Scaron Scedilla T Tbar Tcaron U Uacute Ucircumflex Udieresis Ugrave Uhungarumlaut Umacron Uogonek Uring V W Wacute Wcircumflex Wdieresis Wgrave X Y Yacute Ycircumflex Ydieresis Ygrave Z Zacute Zcaron Zdotaccent A_E A_O C_H C_Q D_E E_A Eacute_E E_S E_U E_T_E F_F_E F_V I_E I_L L_E L_L_E L_U M_P N_A N_E N_N_E O_F O_T_E O_Idieresis P_M R_E R_I_C_E R_S S_E S_L S_S_E S_T_E_S T_E T_T_E U_E U_L_L_E X_C_E X_L X_S_E X_S_S ";
name = Uppercase;
}
);
customParameters = (
{
name = panose;
value = (
0,
0,
10,
0,
0,
0,
0,
0,
0,
0
);
},
{
name = unicodeRanges;
value = (
0,
1,
2
);
},
{
name = codePageRanges;
value = (
"1252",
"1250",
"1254",
"1257",
"bit 29"
);
},
{
name = blueScale;
value = 0.037;
},
{
name = glyphOrder;
value = (
.notdef,
A,
Aacute,
Abreve,
Acircumflex,
Adieresis,
Agrave,
Amacron,
Aogonek,
Aring,
Atilde,
AE,
B,
C,
Cacute,
Ccaron,
Ccedilla,
Cdotaccent,
D,
Eth,
Dcaron,
Dcroat,
E,
Eacute,
Ecaron,
Ecircumflex,
Edieresis,
Edotaccent,
Egrave,
Emacron,
Eogonek,
F,
G,
Gbreve,
Gcommaaccent,
Gdotaccent,
H,
Hbar,
I,
IJ,
Iacute,
Icircumflex,
Idieresis,
Idotaccent,
Igrave,
Imacron,
Iogonek,
J,
K,
Kcommaaccent,
L,
Lacute,
Lcaron,
Lcommaaccent,
Ldot,
Lslash,
M,
N,
Nacute,
Ncaron,
Ncommaaccent,
Eng,
Ntilde,
O,
Oacute,
Ocircumflex,
Odieresis,
Ograve,
Ohungarumlaut,
Omacron,
Oslash,
Otilde,
OE,
P,
Thorn,
Q,
R,
Racute,
Rcaron,
Rcommaaccent,
S,
Sacute,
Scaron,
Scedilla,
Scommaaccent,
T,
Tbar,
Tcaron,
Tcedilla,
uni021A,
U,
Uacute,
Ucircumflex,
Udieresis,

glyphs = (
{
glyphname = .notdef;
lastChange = "2022-11-29 13:08:13 +0000";
layers = (
{
hints = (
{
horizontal = 1;
place = (-56, -6);
place = (-56, -6);
type = Stem;
},
{
horizontal = 1;
place = (594, -6);
place = (594, -6);
type = Stem;
},
{
place = (-56, -6);
place = (-56, -6);
type = Stem;
},
{
place = (394, -6);
place = (394, -6);
type = Stem;
}
);
layerId = m01;
shapes = (
{
closed = 1;
nodes = (
(-56,0,l),
(444,0,l),
(592,700,l),
(92,700,l)
);
},
{
closed = 1;
nodes = (
(278,395,l),
(162,650,l),
(502,650,l)
);
},
{
closed = 1;
nodes = (
(298,350,l),
(522,605,l),
(414,95,l)
);
},
{
closed = 1;
nodes = (
(34,50,l),
(259,305,l),
(374,50,l)
);
},
{
closed = 1;
nodes = (
(122,605,l),
(238,350,l),
(14,95,l)
);
}
);
width = 500;
}
);
note = ".notdef";
},
{
glyphname = A;
kernLeft = A;
kernRight = A;
lastChange = "2022-11-29 13:08:13 +0000";
layers = (
{
hints = (
{
horizontal = 1;
place = (-56, 21);
target = up;
type = BottomGhost;
},
{
horizontal = 1;
place = (123, 84);
place = (123, 84);
type = Stem;
},
{
horizontal = 1;
place = (634, -20);
target = down;
type = TopGhost;
},
{
place = (-52, 662);
place = (-52, 662);
type = Stem;
},
{
horizontal = 1;
place = (475, 103);
place = (475, 103);
type = Stem;
}
);
layerId = m01;
shapes = (
{
closed = 1;
nodes = (
(450,179,l),
(470,0,l),
(666,0,l),
(563,690,l),
(343,690,l),
(-52,0,l),
(139,0,l),
(235,179,l)
);
},
{
closed = 1;
nodes = (
(418,531,l),
(436,319,l),
(308,319,l)
);
}
);
width = 707;
}
);
note = A;
unicode = 65;
},
{
glyphname = Aacute;
kernLeft = A;
kernRight = A;
lastChange = "2022-11-29 13:08:13 +0000";
layers = (
{
hints = (
{
horizontal = 1;
place = (-56, 21);
target = up;
type = BottomGhost;
},
{
horizontal = 1;
place = (123, 84);
place = (123, 84);
type = Stem;
},
{
horizontal = 1;
place = (634, -20);
target = down;
type = TopGhost;
},
{
horizontal = 1;
place = (679, 69);
place = (679, 69);
type = Stem;
},
{
place = (-52, 662);
place = (-52, 662);
type = Stem;
},
{
horizontal = 1;
place = (475, 103);
place = (475, 103);
type = Stem;
}
);
layerId = m01;
shapes = (
{
closed = 1;
nodes = (
(505,735,l),
(686,860,l),
(526,860,l),
(409,735,l)
);
},
{
closed = 1;
nodes = (
(450,179,l),
(470,0,l),
(666,0,l),
(563,690,l),
(343,690,l),
(-52,0,l),
(139,0,l),
(235,179,l)
);
},
{
closed = 1;
nodes = (
(418,531,l),
(436,319,l),
(308,319,l)
);
}
);
width = 707;
}
);
note = Aacute;
unicode = 193;
},
{
glyphname = Abreve;
kernLeft = A;
kernRight = A;
lastChange = "2022-11-29 13:08:13 +0000";
layers = (
{
hints = (
{
horizontal = 1;
place = (-56, 21);
target = up;
type = BottomGhost;
},
{
horizontal = 1;
place = (123, 84);
place = (123, 84);
type = Stem;
},
{
horizontal = 1;
place = (634, -20);
target = down;
type = TopGhost;
},
{
horizontal = 1;
place = (672, 76);
place = (672, 76);
type = Stem;
},
{
place = (172, 34);
place = (172, 34);
type = Stem;
},
{
place = (352, 34);
place = (352, 34);
type = Stem;
},
{
horizontal = 1;
place = (475, 103);
place = (475, 103);
type = Stem;
}
);
layerId = m01;
shapes = (
{
closed = 1;
nodes = (
(532,728,o),
(603,761,o),
(624,860,c),
(534,860,l),
(526,829,o),
(508,813,o),
(479,813,cs),
(450,813,o),
(440,829,o),
(444,860,c),
(354,860,l),
(333,761,o),
(389,728,o),
(461,728,cs)
);
},
{
closed = 1;
nodes = (
(450,179,l),
(470,0,l),
(666,0,l),
(563,690,l),
(343,690,l),
(-52,0,l),
(139,0,l),
(235,179,l)
);
},
{
closed = 1;
nodes = (
(418,531,l),
(436,319,l),
(308,319,l)
);
}
);
width = 707;
}
);
note = Abreve;
unicode = 258;
},
{
glyphname = Acircumflex;
kernLeft = A;
kernRight = A;
lastChange = "2022-11-29 13:08:13 +0000";
layers = (
{
hints = (
{
horizontal = 1;
place = (-56, 21);
target = up;
type = BottomGhost;
},
{
horizontal = 1;
place = (123, 84);
place = (123, 84);
type = Stem;
},
{
horizontal = 1;
place = (634, -20);
target = down;
type = TopGhost;
},
{
horizontal = 1;
place = (679, 69);
place = (679, 69);
type = Stem;
},
{
place = (-52, 662);
place = (-52, 662);
type = Stem;
},
{
horizontal = 1;
place = (475, 103);
place = (475, 103);
type = Stem;
}
);
layerId = m01;
shapes = (
{
closed = 1;
nodes = (
(430,735,l),
(478,811,l),
(496,735,l),
(600,735,l),
(564,860,l),
(415,860,l),
(327,735,l)
);
},
{
closed = 1;
nodes = (
(450,179,l),
(470,0,l),
(666,0,l),
(563,690,l),
(343,690,l),
(-52,0,l),
(139,0,l),
(235,179,l)
);
},
{
closed = 1;
nodes = (
(418,531,l),
(436,319,l),
(308,319,l)
);
}
);
width = 707;
}
);
note = Acircumflex;
unicode = 194;
},
{
glyphname = Adieresis;
kernLeft = A;
kernRight = A;
lastChange = "2022-11-29 13:08:13 +0000";
layers = (
{
hints = (
{
horizontal = 1;
place = (-56, 21);
target = up;
type = BottomGhost;
},
{
horizontal = 1;
place = (123, 84);
place = (123, 84);
type = Stem;
},
{
horizontal = 1;
place = (634, -20);
target = down;
type = TopGhost;
},
{
horizontal = 1;
place = (666, 90);
place = (666, 90);
type = Stem;
},
{
place = (132, 94);
place = (132, 94);
type = Stem;
},
{
place = (332, 94);
place = (332, 94);
type = Stem;
},
{
horizontal = 1;
place = (475, 103);
place = (475, 103);
type = Stem;
}
);
layerId = m01;
shapes = (
{
closed = 1;
nodes = (
(450,179,l),
(470,0,l),
(666,0,l),
(563,690,l),
(343,690,l),
(-52,0,l),
(139,0,l),
(235,179,l)
);
},
{
closed = 1;
nodes = (
(418,531,l),
(436,319,l),
(308,319,l)
);
},
{
closed = 1;
nodes = (
(287,724,l),
(437,724,l),
(468,871,l),
(318,871,l)
);
},
{
closed = 1;
nodes = (
(488,724,l),
(638,724,l),
(669,871,l),
(519,871,l)
);
}
);
width = 707;
}
);
note = Adieresis;
unicode = 196;
},
{
glyphname = Agrave;
kernLeft = A;
kernRight = A;
lastChange = "2022-11-29 13:08:13 +0000";
layers = (
{
hints = (
{
horizontal = 1;
place = (-56, 21);
target = up;
type = BottomGhost;
},
{
horizontal = 1;
place = (123, 84);
place = (123, 84);
type = Stem;
},
{
horizontal = 1;
place = (634, -20);
target = down;
type = TopGhost;
},
{
horizontal = 1;
place = (679, 69);
place = (679, 69);
type = Stem;
},
{
place = (-52, 662);
place = (-52, 662);
type = Stem;
},
{
horizontal = 1;
place = (475, 103);
place = (475, 103);
type = Stem;
}
);
layerId = m01;
shapes = (
{
closed = 1;
nodes = (
(428,735,l),
(524,735,l),
(459,860,l),
(299,860,l)
);
},
{
closed = 1;
nodes = (
(450,179,l),
(470,0,l),
(666,0,l),
(563,690,l),
(343,690,l),
(-52,0,l),
(139,0,l),
(235,179,l)
);
},
{
closed = 1;
nodes = (
(418,531,l),
(436,319,l),
(308,319,l)
);
}
);
width = 707;
}
);
note = Agrave;
unicode = 192;
},
{
glyphname = Amacron;
kernLeft = A;
kernRight = A;
lastChange = "2022-11-29 13:08:13 +0000";
layers = (
{
hints = (
{
horizontal = 1;
place = (-56, 21);
target = up;
type = BottomGhost;
},
{
horizontal = 1;
place = (123, 84);
place = (123, 84);
type = Stem;
},
{
horizontal = 1;
place = (634, -20);
target = down;
type = TopGhost;
},
{
horizontal = 1;
place = (704, 40);
place = (704, 40);
type = Stem;
},
{
place = (157, 244);
place = (157, 244);
type = Stem;
},
{
horizontal = 1;
place = (475, 103);
place = (475, 103);
type = Stem;
}
);
layerId = m01;
shapes = (
{
closed = 1;
nodes = (
(618,760,l),
(639,856,l),
(339,856,l),
(318,760,l)
);
},
{
closed = 1;
nodes = (
(450,179,l),
(470,0,l),
(666,0,l),
(563,690,l),
(343,690,l),
(-52,0,l),
(139,0,l),
(235,179,l)
);
},
{
closed = 1;
nodes = (
(418,531,l),
(436,319,l),
(308,319,l)
);
}
);
width = 707;
}
);
note = Amacron;
unicode = 256;
},
{
glyphname = Aogonek;
kernLeft = A;
kernRight = A;
lastChange = "2022-11-29 13:08:13 +0000";
layers = (
{
hints = (
{
horizontal = 1;
place = (-279, 46);
place = (-279, 46);
type = Stem;
},
{
horizontal = 1;
place = (-56, 21);
target = up;
type = BottomGhost;
},
{
horizontal = 1;
place = (123, 84);
place = (123, 84);
type = Stem;
},
{
horizontal = 1;
place = (634, -20);
target = down;
type = TopGhost;
},
{
place = (384, 193);
place = (384, 193);
type = Stem;
},
{
horizontal = 1;
place = (475, 103);
place = (475, 103);
type = Stem;
},
{
place = (-52, 662);
place = (-52, 662);
type = Stem;
}
);
layerId = m01;
shapes = (
{
closed = 1;
nodes = (
(541,-32,o),
(568,0,o),
(593,0,cs),
(666,0,l),
(563,690,l),
(343,690,l),
(-52,0,l),
(139,0,l),
(235,179,l),
(450,179,l),
(470,4,l),
(419,-21,o),
(367,-78,o),
(355,-137,cs),
(341,-201,o),
(384,-223,o),
(450,-223,cs),
(514,-223,o),
(561,-202,o),
(596,-173,c),
(611,-100,l),
(592,-115,o),
(577,-121,o),
(563,-121,cs),
(543,-121,o),
(525,-108,o),
(533,-70,cs)
);
},
{
closed = 1;
nodes = (
(418,531,l),
(436,319,l),
(308,319,l)
);
}
);
width = 707;
}
);
note = Aogonek;
unicode = 260;
},
{
glyphname = Aring;
kernLeft = A;
kernRight = A;
lastChange = "2022-11-29 13:08:13 +0000";
layers = (
{
hints = (
{
horizontal = 1;
place = (-56, 21);
target = up;
type = BottomGhost;
},
{
horizontal = 1;
place = (123, 84);
place = (123, 84);
type = Stem;
},
{
horizontal = 1;
place = (634, -20);
target = down;
type = TopGhost;
},
{
horizontal = 1;
place = (666, 10);
place = (666, 10);
type = Stem;
},
{
horizontal = 1;
place = (810, 10);
place = (810, 10);
type = Stem;
},
{
place = (188, 27);
place = (188, 27);
type = Stem;
},
{
place = (343, 27);
place = (343, 27);
type = Stem;
},
{
horizontal = 1;
place = (475, 103);
place = (475, 103);
type = Stem;
}
);
layerId = m01;
shapes = (
{
closed = 1;
nodes = (
(530,722,o),
(588,765,o),
(601,827,cs),
(615,889,o),
(575,932,o),
(505,932,cs),
(435,932,o),
(377,889,o),
(363,827,cs),
(350,765,o),
(390,722,o),
(460,722,cs)
);
},
{
closed = 1;
nodes = (
(512,866,o),
(523,850,o),
(518,827,cs),
(514,804,o),
(495,788,o),
(474,788,cs),
(453,788,o),
(442,804,o),
(446,827,cs),
(451,850,o),
(470,866,o),
(491,866,cs)
);
},
{
closed = 1;
nodes = (
(450,179,l),
(470,0,l),
(666,0,l),
(563,690,l),
(343,690,l),
(-52,0,l),
(139,0,l),
(235,179,l)
);
},
{
closed = 1;
nodes = (
(418,531,l),
(436,319,l),
(308,319,l)
);
}
);
width = 707;
}
);
note = Aring;
unicode = 197;
},
{
glyphname = Atilde;
kernLeft = A;
kernRight = A;
lastChange = "2022-11-29 13:08:13 +0000";
layers = (
{
hints = (
{
horizontal = 1;
place = (-56, 21);
target = up;
type = BottomGhost;
},
{
horizontal = 1;
place = (123, 84);
place = (123, 84);
type = Stem;
},
{
horizontal = 1;
place = (634, -20);
target = down;
type = TopGhost;
},
{
horizontal = 1;
place = (686, 78);
place = (686, 78);
type = Stem;
},
{
place = (143, 40);
place = (143, 40);
type = Stem;
},
{
place = (375, 40);
place = (375, 40);
type = Stem;
},
{
horizontal = 1;
place = (683, 78);
place = (683, 78);
type = Stem;
},
{
horizontal = 1;
place = (475, 103);
place = (475, 103);
type = Stem;
}
);
layerId = m01;
shapes = (
{
closed = 1;
nodes = (
(426,773,o),
(438,768,o),
(460,758,cs),
(493,742,o),
(509,739,o),
(538,739,cs),
(600,739,o),
(636,780,o),
(656,873,c),
(560,873,l),
(556,851,o),
(550,842,o),
(539,842,cs),
(531,842,o),
(518,846,o),
(497,857,cs),
(464,873,o),
(448,876,o),
(419,876,cs),
(357,876,o),
(320,835,o),
(300,742,c),
(396,742,l),
(401,764,o),
(407,773,o),
(418,773,cs)
);
},
{
closed = 1;
nodes = (
(450,179,l),
(470,0,l),
(666,0,l),
(563,690,l),
(343,690,l),
(-52,0,l),
(139,0,l),
(235,179,l)
);
},
{
closed = 1;
nodes = (
(418,531,l),
(436,319,l),
(308,319,l)
);
}
);
width = 707;
}
);
note = Atilde;
unicode = 195;
},
{
glyphname = AE;
lastChange = "2022-11-29 13:08:13 +0000";
layers = (
{
hints = (
{
horizontal = 1;
place = (-56, 84);
place = (-56, 84);
type = Stem;
},
{
horizontal = 1;
place = (220, 84);
place = (220, 84);
type = Stem;
},
{
horizontal = 1;
place = (494, 84);
place = (494, 84);
type = Stem;
},
{
place = (-98, 952);
place = (-98, 952);
type = Stem;
},
{
horizontal = 1;
place = (153, 84);
place = (153, 84);
type = Stem;
}
);
layerId = m01;
shapes = (
{
closed = 1;
nodes = (
(939,140,l),
(607,140,l),
(620,276,l),
(938,276,l),
(968,416,l),
(634,416,l),
(648,560,l),
(652,550,l),
(1017,550,l),
(1046,690,l),
(407,690,l),
(-98,0,l),
(93,0,l),
(236,209,l),
(434,209,l),
(414,0,l),
(910,0,l)
);
},
{
closed = 1;
nodes = (
(448,349,l),
(333,349,l),
(466,543,l)
);
}
);
width = 996;
}
);
note = AE;
unicode = 198;
},
{
glyphname = B;
lastChange = "2022-11-29 13:08:13 +0000";
layers = (
{
hints = (
{
horizontal = 1;
place = (-56, 84);
place = (-56, 84);
type = Stem;
},
{
horizontal = 1;
place = (232, 74);
place = (232, 74);
type = Stem;
},
{
horizontal = 1;
place = (494, 84);
place = (494, 84);
type = Stem;
},
{
place = (24, 124);
place = (24, 124);
type = Stem;
},
{
place = (411, 132);
place = (411, 132);
type = Stem;
},
{
place = (385, 132);
place = (385, 132);
type = Stem;
}
);
layerId = m01;
shapes = (
{
closed = 1;
nodes = (
(624,399,o),
(668,447,o),
(681,510,cs),
(700,600,o),
(652,672,o),
(540,686,cs),
(506,690,o),
(490,690,o),
(453,690,cs),
(170,690,l),
(24,0,l),
(299,0,ls),
(343,0,o),
(366,0,o),
(402,4,cs),
(497,15,o),
(615,79,o),
(643,208,cs),
(661,292,o),
(633,350,o),
(551,375,c)
);
},
{
closed = 1;
nodes = (
(321,550,l),
(402,550,ls),
(418,550,o),
(433,549,o),
(446,547,cs),
(479,542,o),
(496,523,o),
(488,484,cs),
(479,443,o),
(452,426,o),
(418,421,cs),
(405,419,o),
(390,418,o),
(374,418,cs),
(293,418,l)
);
},
{
closed = 1;
nodes = (
(362,140,o),
(346,140,o),
(330,140,cs),
(233,140,l),
(265,288,l),
(357,288,ls),
(373,288,o),
(389,288,o),
(402,287,cs),
(438,284,o),
(466,260,o),
(456,214,cs),
(447,169,o),
(408,143,o),
(376,141,cs)
);
}
);
width = 681;
}
);
note = B;
unicode = 66;
},
{
glyphname = C;
kernLeft = C;
kernRight = C;
lastChange = "2022-11-29 13:08:13 +0000";
layers = (
{
hints = (
{
horizontal = 1;
place = (-70, 76);
place = (-70, 76);
type = Stem;
},
{
horizontal = 1;
place = (516, 76);
place = (516, 76);
type = Stem;
},
{
place = (-2, 132);
place = (-2, 132);
type = Stem;
}
);
layerId = m01;
shapes = (
{
closed = 1;
nodes = (
(301,704,o),
(121,580,o),
(70,340,cs),
(20,106,o),
(144,-14,o),
(329,-14,cs),
(502,-14,o),
(647,71,o),
(699,237,cs),
(702,247,l),
(522,247,l),
(518,237,ls),
(487,161,o),
(433,118,o),
(363,118,cs),
(283,118,o),
(223,177,o),
(260,351,cs),
(292,500,o),
(372,572,o),
(458,572,cs),
(531,572,o),
(569,537,o),
(568,463,cs),
(568,453,l),
(748,453,l),
(749,463,ls),
(764,599,o),
(685,704,o),
(488,704,cs)
);
}
);
width = 734;
}
);
note = C;
unicode = 67;
},
{
glyphname = Cacute;
kernLeft = C;
kernRight = C;
lastChange = "2022-11-29 13:08:13 +0000";
layers = (
{
hints = (
{
horizontal = 1;
place = (-70, 76);
place = (-70, 76);
type = Stem;
},
{
horizontal = 1;
place = (516, 76);
place = (516, 76);
type = Stem;
},
{
horizontal = 1;
place = (679, 69);
place = (679, 69);
type = Stem;
},
{
place = (-2, 132);
place = (-2, 132);
type = Stem;
}
);
layerId = m01;
shapes = (
{
closed = 1;
nodes = (
(526,735,l),
(707,860,l),
(547,860,l),
(430,735,l)
);
},
{
closed = 1;
nodes = (
(301,704,o),
(121,580,o),
(70,340,cs),
(20,106,o),
(144,-14,o),
(329,-14,cs),
(502,-14,o),
(647,71,o),
(699,237,cs),
(702,247,l),
(522,247,l),
(518,237,ls),
(487,161,o),
(433,118,o),
(363,118,cs),
(283,118,o),
(223,177,o),
(260,351,cs),
(292,500,o),
(372,572,o),
(458,572,cs),
(531,572,o),
(569,537,o),
(568,463,cs),
(568,453,l),
(748,453,l),
(749,463,ls),
(764,599,o),
(685,704,o),
(488,704,cs)
);
}
);
width = 734;
}
);
note = Cacute;
unicode = 262;
},
{
glyphname = Ccaron;
kernLeft = C;
kernRight = C;
lastChange = "2022-11-29 13:08:13 +0000";
layers = (
{
hints = (
{
horizontal = 1;
place = (-70, 76);
place = (-70, 76);
type = Stem;
},
{
horizontal = 1;
place = (516, 76);
place = (516, 76);
type = Stem;
},
{
horizontal = 1;
place = (679, 69);
place = (679, 69);
type = Stem;
},
{
place = (-2, 132);
place = (-2, 132);
type = Stem;
}
);
layerId = m01;
shapes = (
{
closed = 1;
nodes = (
(410,735,l),
(559,735,l),
(647,860,l),
(544,860,l),
(496,784,l),
(478,860,l),
(374,860,l)
);
},
{
closed = 1;
nodes = (
(522,247,l),
(518,237,ls),
(487,161,o),
(433,118,o),
(363,118,cs),
(283,118,o),
(223,177,o),
(260,351,cs),
(292,500,o),
(372,572,o),
(458,572,cs),
(531,572,o),
(569,537,o),
(568,463,cs),
(568,453,l),
(748,453,l),
(749,463,ls),
(764,599,o),
(685,704,o),
(488,704,cs),
(301,704,o),
(121,580,o),
(70,340,cs),
(20,106,o),
(144,-14,o),
(329,-14,cs),
(502,-14,o),
(647,71,o),
(699,237,cs),
(702,247,l)
);
}
);
width = 734;
}
);
note = Ccaron;
unicode = 268;
},
{
glyphname = Ccedilla;
kernLeft = C;
kernRight = C;
lastChange = "2022-11-29 13:08:13 +0000";
layers = (
{
hints = (
{
horizontal = 1;
place = (-266, 13);
place = (-266, 13);
type = Stem;
},
{
horizontal = 1;
place = (-65, 21);
target = up;
type = BottomGhost;
},
{
horizontal = 1;
place = (516, 76);
place = (516, 76);
type = Stem;
},
{
place = (-2, 132);
place = (-2, 132);
type = Stem;
},
{
place = (328, 52);
place = (328, 52);
type = Stem;
}
);
layerId = m01;
shapes = (
{
closed = 1;
nodes = (
(522,247,l),
(518,237,ls),
(487,161,o),
(433,118,o),
(363,118,cs),
(283,118,o),
(223,177,o),
(260,351,cs),
(292,500,o),
(372,572,o),
(458,572,cs),
(531,572,o),
(569,537,o),
(568,463,cs),
(568,453,l),
(748,453,l),
(749,463,ls),
(764,599,o),
(685,704,o),
(488,704,cs),
(301,704,o),
(121,580,o),
(70,340,cs),
(26,133,o),
(117,15,o),
(267,-9,c),
(212,-88,l),
(288,-83,o),
(308,-94,o),
(303,-114,cs),
(300,-132,o),
(281,-141,o),
(238,-141,cs),
(225,-141,o),
(205,-140,o),
(181,-134,c),
(166,-204,l),
(184,-209,o),
(202,-210,o),
(222,-210,cs),
(314,-210,o),
(396,-188,o),
(410,-119,cs),
(420,-74,o),
(393,-49,o),
(332,-42,c),
(352,-13,l),
(514,-6,o),
(649,78,o),
(699,237,cs),
(702,247,l)
);
}
);
width = 734;
}
);
note = Ccedilla;
unicode = 199;
},
{
glyphname = Cdotaccent;
kernLeft = C;
kernRight = C;
lastChange = "2022-11-29 13:08:13 +0000";
layers = (
{
hints = (
{
horizontal = 1;
place = (-70, 76);
place = (-70, 76);
type = Stem;
},
{
horizontal = 1;
place = (516, 76);
place = (516, 76);
type = Stem;
},
{
horizontal = 1;
place = (669, 120);
place = (669, 120);
type = Stem;
},
{
place = (-2, 132);
place = (-2, 132);
type = Stem;
},
{
place = (235, 130);
place = (235, 130);
type = Stem;
}
);
layerId = m01;
shapes = (
{
closed = 1;
nodes = (
(463,901,o),
(419,867,o),
(407,813,cs),
(396,759,o),
(426,725,o),
(482,725,cs),
(538,725,o),
(582,759,o),
(593,813,cs),
(605,867,o),
(575,901,o),
(519,901,cs)
);
},
{
closed = 1;
nodes = (
(301,704,o),
(121,580,o),
(70,340,cs),
(20,106,o),
(144,-14,o),
(329,-14,cs),
(502,-14,o),
(647,71,o),
(699,237,cs),
(702,247,l),
(522,247,l),
(518,237,ls),
(487,161,o),
(433,118,o),
(363,118,cs),
(283,118,o),
(223,177,o),
(260,351,cs),
(292,500,o),
(372,572,o),
(458,572,cs),
(531,572,o),
(569,537,o),
(568,463,cs),
(568,453,l),
(748,453,l),
(749,463,ls),
(764,599,o),
(685,704,o),
(488,704,cs)
);
}
);
width = 734;
}
);
note = Cdotaccent;
unicode = 266;
},
{
glyphname = D;
kernRight = D;
lastChange = "2022-11-29 13:08:13 +0000";
layers = (
{
hints = (
{
horizontal = 1;
place = (-56, 84);
place = (-56, 84);
type = Stem;
},
{
horizontal = 1;
place = (494, 84);
place = (494, 84);
type = Stem;
},
{
place = (24, 124);
place = (24, 124);
type = Stem;
},
{
place = (477, 132);
place = (477, 132);
type = Stem;
}
);
layerId = m01;
shapes = (
{
closed = 1;
nodes = (
(484,690,o),
(468,690,o),
(431,690,cs),
(170,690,l),
(24,0,l),
(285,0,ls),
(322,0,o),
(338,0,o),
(374,4,cs),
(537,22,o),
(694,138,o),
(740,354,cs),
(786,570,o),
(675,668,o),
(518,686,cs)
);
},
{
closed = 1;
nodes = (
(331,140,o),
(315,140,o),
(289,140,cs),
(233,140,l),
(321,550,l),
(377,550,ls),
(403,550,o),
(419,550,o),
(441,548,cs),
(529,540,o),
(577,474,o),
(551,351,cs),
(525,228,o),
(447,150,o),
(355,142,cs)
);
}
);
width = 749;
}
);
note = D;
unicode = 68;
},
{
glyphname = Eth;
kernRight = D;
lastChange = "2022-11-29 13:08:13 +0000";
layers = (
{
hints = (
{
horizontal = 1;
place = (-56, 84);
place = (-56, 84);
type = Stem;
},
{
horizontal = 1;
place = (237, 40);
place = (237, 40);
type = Stem;
},
{
horizontal = 1;
place = (494, 84);
place = (494, 84);
type = Stem;
},
{
place = (34, 124);
place = (34, 124);
type = Stem;
},
{
place = (487, 132);
place = (487, 132);
type = Stem;
}
);
layerId = m01;
shapes = (
{
closed = 1;
nodes = (
(494,690,o),
(478,690,o),
(441,690,cs),
(180,690,l),
(116,389,l),
(57,389,l),
(37,293,l),
(96,293,l),
(34,0,l),
(295,0,ls),
(332,0,o),
(348,0,o),
(384,4,cs),
(547,22,o),
(704,138,o),
(750,354,cs),
(796,570,o),
(685,668,o),
(528,686,cs)
);
},
{
closed = 1;
nodes = (
(341,140,o),
(325,140,o),
(299,140,cs),
(243,140,l),
(276,293,l),
(378,293,l),
(398,389,l),
(296,389,l),
(331,550,l),
(387,550,ls),
(413,550,o),
(429,550,o),
(451,548,cs),
(539,540,o),
(587,474,o),
(561,351,cs),
(535,228,o),
(457,150,o),
(365,142,cs)
);
}
);
width = 759;
}
);
note = Eth;
unicode = 208;
},
{
glyphname = Dcaron;
kernRight = D;
lastChange = "2022-11-29 13:08:13 +0000";
layers = (
{
hints = (
{
horizontal = 1;
place = (-56, 84);
place = (-56, 84);
type = Stem;
},
{
horizontal = 1;
place = (494, 84);
place = (494, 84);
type = Stem;
},
{
horizontal = 1;
place = (679, 69);
place = (679, 69);
type = Stem;
},
{
place = (24, 124);
place = (24, 124);
type = Stem;
},
{
place = (477, 132);
place = (477, 132);
type = Stem;
}
);
layerId = m01;
shapes = (
{
closed = 1;
nodes = (
(411,735,l),
(560,735,l),
(648,860,l),
(545,860,l),
(497,784,l),
(479,860,l),
(375,860,l)
);
},
{
closed = 1;
nodes = (
(484,690,o),
(468,690,o),
(431,690,cs),
(170,690,l),
(24,0,l),
(285,0,ls),
(322,0,o),
(338,0,o),
(374,4,cs),
(537,22,o),
(694,138,o),
(740,354,cs),
(786,570,o),
(675,668,o),
(518,686,cs)
);
},
{
closed = 1;
nodes = (
(331,140,o),
(315,140,o),
(289,140,cs),
(233,140,l),
(321,550,l),
(377,550,ls),
(403,550,o),
(419,550,o),
(441,548,cs),
(529,540,o),
(577,474,o),
(551,351,cs),
(525,228,o),
(447,150,o),
(355,142,cs)
);
}
);
width = 749;
}
);
note = Dcaron;
unicode = 270;
},
{
glyphname = Dcroat;
kernRight = D;
lastChange = "2022-11-29 13:08:13 +0000";
layers = (
{
hints = (
{
horizontal = 1;
place = (-56, 84);
place = (-56, 84);
type = Stem;
},
{
horizontal = 1;
place = (237, 40);
place = (237, 40);
type = Stem;
},
{
horizontal = 1;
place = (494, 84);
place = (494, 84);
type = Stem;
},
{
place = (34, 124);
place = (34, 124);
type = Stem;
},
{
place = (487, 132);
place = (487, 132);
type = Stem;
}
);
layerId = m01;
shapes = (
{
closed = 1;
nodes = (
(494,690,o),
(478,690,o),
(441,690,cs),
(180,690,l),
(116,389,l),
(57,389,l),
(37,293,l),
(96,293,l),
(34,0,l),
(295,0,ls),
(332,0,o),
(348,0,o),
(384,4,cs),
(547,22,o),
(704,138,o),
(750,354,cs),
(796,570,o),
(685,668,o),
(528,686,cs)
);
},
{
closed = 1;
nodes = (
(341,140,o),
(325,140,o),
(299,140,cs),
(243,140,l),
(276,293,l),
(378,293,l),
(398,389,l),
(296,389,l),
(331,550,l),
(387,550,ls),
(413,550,o),
(429,550,o),
(451,548,cs),
(539,540,o),
(587,474,o),
(561,351,cs),
(535,228,o),
(457,150,o),
(365,142,cs)
);
}
);
width = 759;
}
);
note = Dcroat;
unicode = 272;
},
{
glyphname = E;
lastChange = "2022-11-29 13:08:13 +0000";
layers = (
{
hints = (
{
horizontal = 1;
place = (-56, 84);
place = (-56, 84);
type = Stem;
},
{
horizontal = 1;
place = (220, 84);
place = (220, 84);
type = Stem;
},
{
horizontal = 1;
place = (494, 84);
place = (494, 84);
type = Stem;
},
{
place = (24, 124);
place = (24, 124);
type = Stem;
}
);
layerId = m01;
shapes = (
{
closed = 1;
nodes = (
(582,140,l),
(233,140,l),
(262,276,l),
(581,276,l),
(611,416,l),
(292,416,l),
(321,550,l),
(660,550,l),
(689,690,l),
(170,690,l),
(24,0,l),
(553,0,l)
);
}
);
width = 639;
}
);
note = E;
unicode = 69;
},
{
glyphname = Eacute;
lastChange = "2022-11-29 13:08:13 +0000";
layers = (
{
hints = (
{
horizontal = 1;
place = (-56, 84);
place = (-56, 84);
type = Stem;
},
{
horizontal = 1;
place = (220, 84);
place = (220, 84);
type = Stem;
},
{
horizontal = 1;
place = (494, 84);
place = (494, 84);
type = Stem;
},
{
horizontal = 1;
place = (679, 69);
place = (679, 69);
type = Stem;
},
{
place = (24, 124);
place = (24, 124);
type = Stem;
}
);
layerId = m01;
shapes = (
{
closed = 1;
nodes = (
(482,735,l),
(663,860,l),
(503,860,l),
(386,735,l)
);
},
{
closed = 1;
nodes = (
(582,140,l),
(233,140,l),
(262,276,l),
(581,276,l),
(611,416,l),
(292,416,l),
(321,550,l),
(660,550,l),
(689,690,l),
(170,690,l),
(24,0,l),
(553,0,l)
);
}
);
width = 639;
}
);
note = Eacute;
unicode = 201;
},
{
glyphname = Ecaron;
lastChange = "2022-11-29 13:08:13 +0000";
layers = (
{
hints = (
{
horizontal = 1;
place = (-56, 84);
place = (-56, 84);
type = Stem;
},
{
horizontal = 1;
place = (220, 84);
place = (220, 84);
type = Stem;
},
{
horizontal = 1;
place = (494, 84);
place = (494, 84);
type = Stem;
},
{
horizontal = 1;
place = (679, 69);
place = (679, 69);
type = Stem;
},
{
place = (24, 124);
place = (24, 124);
type = Stem;
}
);
layerId = m01;
shapes = (
{
closed = 1;
nodes = (
(366,735,l),
(515,735,l),
(603,860,l),
(500,860,l),
(452,784,l),
(434,860,l),
(330,860,l)
);
},
{
closed = 1;
nodes = (
(582,140,l),
(233,140,l),
(262,276,l),
(581,276,l),
(611,416,l),
(292,416,l),
(321,550,l),
(660,550,l),
(689,690,l),
(170,690,l),
(24,0,l),
(553,0,l)
);
}
);
width = 639;
}
);
note = Ecaron;
unicode = 282;
},
{
glyphname = Ecircumflex;
lastChange = "2022-11-29 13:08:13 +0000";
layers = (
{
hints = (
{
horizontal = 1;
place = (-56, 84);
place = (-56, 84);
type = Stem;
},
{
horizontal = 1;
place = (220, 84);
place = (220, 84);
type = Stem;
},
{
horizontal = 1;
place = (494, 84);
place = (494, 84);
type = Stem;
},
{
horizontal = 1;
place = (679, 69);
place = (679, 69);
type = Stem;
},
{
place = (24, 124);
place = (24, 124);
type = Stem;
}
);
layerId = m01;
shapes = (
{
closed = 1;
nodes = (
(407,735,l),
(455,811,l),
(473,735,l),
(577,735,l),
(541,860,l),
(392,860,l),
(304,735,l)
);
},
{
closed = 1;
nodes = (
(582,140,l),
(233,140,l),
(262,276,l),
(581,276,l),
(611,416,l),
(292,416,l),
(321,550,l),
(660,550,l),
(689,690,l),
(170,690,l),
(24,0,l),
(553,0,l)
);
}
);
width = 639;
}
);
note = Ecircumflex;
unicode = 202;
},
{
glyphname = Edieresis;
lastChange = "2022-11-29 13:08:13 +0000";
layers = (
{
hints = (
{
horizontal = 1;
place = (-56, 84);
place = (-56, 84);
type = Stem;
},
{
horizontal = 1;
place = (220, 84);
place = (220, 84);
type = Stem;
},
{
horizontal = 1;
place = (494, 84);
place = (494, 84);
type = Stem;
},
{
horizontal = 1;
place = (666, 90);
place = (666, 90);
type = Stem;
},
{
place = (109, 94);
place = (109, 94);
type = Stem;
},
{
place = (309, 94);
place = (309, 94);
type = Stem;
},
{
place = (24, 124);
place = (24, 124);
type = Stem;
}
);
layerId = m01;
shapes = (
{
closed = 1;
nodes = (
(582,140,l),
(233,140,l),
(262,276,l),
(581,276,l),
(611,416,l),
(292,416,l),
(321,550,l),
(660,550,l),
(689,690,l),
(170,690,l),
(24,0,l),
(553,0,l)
);
},
{
closed = 1;
nodes = (
(261,722,l),
(411,722,l),
(442,869,l),
(292,869,l)
);
},
{
closed = 1;
nodes = (
(462,722,l),
(612,722,l),
(643,869,l),
(493,869,l)
);
}
);
width = 639;
}
);
note = Edieresis;
unicode = 203;
},
{
glyphname = Edotaccent;
lastChange = "2022-11-29 13:08:13 +0000";
layers = (
{
hints = (
{
horizontal = 1;
place = (-56, 84);
place = (-56, 84);
type = Stem;
},
{
horizontal = 1;
place = (220, 84);
place = (220, 84);
type = Stem;
},
{
horizontal = 1;
place = (494, 84);
place = (494, 84);
type = Stem;
},
{
horizontal = 1;
place = (669, 120);
place = (669, 120);
type = Stem;
},
{
place = (191, 130);
place = (191, 130);
type = Stem;
},
{
place = (24, 124);
place = (24, 124);
type = Stem;
}
);
layerId = m01;
shapes = (
{
closed = 1;
nodes = (
(494,725,o),
(538,759,o),
(549,813,cs),
(561,867,o),
(531,901,o),
(475,901,cs),
(419,901,o),
(375,867,o),
(363,813,cs),
(352,759,o),
(382,725,o),
(438,725,cs)
);
},
{
closed = 1;
nodes = (
(582,140,l),
(233,140,l),
(262,276,l),
(581,276,l),
(611,416,l),
(292,416,l),
(321,550,l),
(660,550,l),
(689,690,l),
(170,690,l),
(24,0,l),
(553,0,l)
);
}
);
width = 639;
}
);
note = Edotaccent;
unicode = 278;
},
{
glyphname = Egrave;
lastChange = "2022-11-29 13:08:13 +0000";
layers = (
{
hints = (
{
horizontal = 1;
place = (-56, 84);
place = (-56, 84);
type = Stem;
},
{
horizontal = 1;
place = (220, 84);
place = (220, 84);
type = Stem;
},
{
horizontal = 1;
place = (494, 84);
place = (494, 84);
type = Stem;
},
{
horizontal = 1;
place = (679, 69);
place = (679, 69);
type = Stem;
},
{
place = (24, 124);
place = (24, 124);
type = Stem;
}
);
layerId = m01;
shapes = (
{
closed = 1;
nodes = (
(405,735,l),
(501,735,l),
(436,860,l),
(276,860,l)
);
},
{
closed = 1;
nodes = (
(582,140,l),
(233,140,l),
(262,276,l),
(581,276,l),
(611,416,l),
(292,416,l),
(321,550,l),
(660,550,l),
(689,690,l),
(170,690,l),
(24,0,l),
(553,0,l)
);
}
);
width = 639;
}
);
note = Egrave;
unicode = 200;
},
{
glyphname = Emacron;
lastChange = "2022-11-29 13:08:13 +0000";
layers = (
{
hints = (
{
horizontal = 1;
place = (-56, 84);
place = (-56, 84);
type = Stem;
},
{
horizontal = 1;
place = (220, 84);
place = (220, 84);
type = Stem;
},
{
horizontal = 1;
place = (494, 84);
place = (494, 84);
type = Stem;
},
{
horizontal = 1;
place = (704, 40);
place = (704, 40);
type = Stem;
},
{
place = (134, 244);
place = (134, 244);
type = Stem;
},
{
place = (24, 124);
place = (24, 124);
type = Stem;
}
);
layerId = m01;
shapes = (
{
closed = 1;
nodes = (
(595,760,l),
(616,856,l),
(316,856,l),
(295,760,l)
);
},
{
closed = 1;
nodes = (
(582,140,l),
(233,140,l),
(262,276,l),
(581,276,l),
(611,416,l),
(292,416,l),
(321,550,l),
(660,550,l),
(689,690,l),
(170,690,l),
(24,0,l),
(553,0,l)
);
}
);
width = 639;
}
);
note = Emacron;
unicode = 274;
},
{
glyphname = Eogonek;
lastChange = "2022-11-29 13:08:13 +0000";
layers = (
{
hints = (
{
horizontal = 1;
place = (-279, 46);
place = (-279, 46);
type = Stem;
},
{
horizontal = 1;
place = (-56, 84);
place = (-56, 84);
type = Stem;
},
{
horizontal = 1;
place = (220, 84);
place = (220, 84);
type = Stem;
},
{
horizontal = 1;
place = (494, 84);
place = (494, 84);
type = Stem;
},
{
place = (24, 124);
place = (24, 124);
type = Stem;
},
{
place = (294, 193);
place = (294, 193);
type = Stem;
}
);
layerId = m01;
shapes = (
{
closed = 1;
nodes = (
(553,0,l),
(582,140,l),
(233,140,l),
(262,276,l),
(581,276,l),
(611,416,l),
(292,416,l),
(321,550,l),
(660,550,l),
(689,690,l),
(170,690,l),
(24,0,l),
(372,0,l),
(324,-27,o),
(276,-81,o),
(265,-137,cs),
(251,-201,o),
(294,-223,o),
(360,-223,cs),
(424,-223,o),
(471,-202,o),
(506,-173,c),
(521,-100,l),
(502,-115,o),
(487,-121,o),
(473,-121,cs),
(453,-121,o),
(435,-108,o),
(443,-70,cs),
(451,-32,o),
(478,0,o),
(503,0,cs)
);
}
);
width = 639;
}
);
note = Eogonek;
unicode = 280;
},
{
glyphname = F;
kernRight = F;
lastChange = "2022-11-29 13:08:13 +0000";
layers = (
{
hints = (
{
horizontal = 1;
place = (-56, 21);
target = up;
type = BottomGhost;
},
{
horizontal = 1;
place = (220, 84);
place = (220, 84);
type = Stem;
},
{
horizontal = 1;
place = (494, 84);
place = (494, 84);
type = Stem;
},
{
place = (24, 124);
place = (24, 124);
type = Stem;
}
);
layerId = m01;
shapes = (
{
closed = 1;
nodes = (
(321,550,l),
(660,550,l),
(689,690,l),
(170,690,l),
(24,0,l),
(204,0,l),
(262,276,l),
(571,276,l),
(601,416,l),
(292,416,l)
);
}
);
width = 615;
}
);
note = F;
unicode = 70;
},
{
glyphname = G;
kernLeft = C;
kernRight = G;
lastChange = "2022-11-29 13:08:13 +0000";
layers = (
{
hints = (
{
horizontal = 1;
place = (-70, 76);
place = (-70, 76);
type = Stem;
},
{
horizontal = 1;
place = (172, 84);
place = (172, 84);
type = Stem;
},
{
horizontal = 1;
place = (516, 76);
place = (516, 76);
type = Stem;
},
{
place = (-2, 132);
place = (-2, 132);
type = Stem;
},
{
place = (353, 248);
place = (353, 248);
type = Stem;
},
{
horizontal = 1;
place = (-56, 21);
target = up;
type = BottomGhost;
}
);
layerId = m01;
shapes = (
{
closed = 1;
nodes = (
(431,368,l),
(401,228,l),
(535,228,l),
(494,152,o),
(441,118,o),
(371,118,cs),
(286,118,o),
(223,177,o),
(260,351,cs),
(292,500,o),
(380,572,o),
(468,572,cs),
(541,572,o),
(579,537,o),
(578,463,cs),
(578,453,l),
(758,453,l),
(759,463,ls),
(774,599,o),
(695,704,o),
(498,704,cs),
(309,704,o),
(121,580,o),
(70,340,cs),
(21,108,o),
(124,-14,o),
(308,-14,cs),
(381,-14,o),
(430,-3,o),
(476,30,c),
(522,106,l),
(517,0,l),
(657,0,l),
(735,368,l)
);
}
);
width = 759;
}
);
note = G;
unicode = 71;
},
{
glyphname = Gbreve;
kernLeft = C;
kernRight = G;
lastChange = "2022-11-29 13:08:13 +0000";
layers = (
{
hints = (
{
horizontal = 1;
place = (-70, 76);
place = (-70, 76);
type = Stem;
},
{
horizontal = 1;
place = (172, 84);
place = (172, 84);
type = Stem;
},
{
horizontal = 1;
place = (516, 76);
place = (516, 76);
type = Stem;
},
{
horizontal = 1;
place = (672, 76);
place = (672, 76);
type = Stem;
},
{
place = (-2, 132);
place = (-2, 132);
type = Stem;
},
{
place = (197, 34);
place = (197, 34);
type = Stem;
},
{
place = (377, 34);
place = (377, 34);
type = Stem;
},
{
place = (353, 248);
place = (353, 248);
type = Stem;
},
{
horizontal = 1;
place = (-56, 21);
target = up;
type = BottomGhost;
}
);
layerId = m01;
shapes = (
{
closed = 1;
nodes = (
(557,728,o),
(628,761,o),
(649,860,c),
(559,860,l),
(551,829,o),
(533,813,o),
(504,813,cs),
(475,813,o),
(465,829,o),
(469,860,c),
(379,860,l),
(358,761,o),
(414,728,o),
(486,728,cs)
);
},
{
closed = 1;
nodes = (
(431,368,l),
(401,228,l),
(535,228,l),
(494,152,o),
(441,118,o),
(371,118,cs),
(286,118,o),
(223,177,o),
(260,351,cs),
(292,500,o),
(380,572,o),
(468,572,cs),
(541,572,o),
(579,537,o),
(578,463,cs),
(578,453,l),
(758,453,l),
(759,463,ls),
(774,599,o),
(695,704,o),
(498,704,cs),
(309,704,o),
(121,580,o),
(70,340,cs),
(21,108,o),
(124,-14,o),
(308,-14,cs),
(381,-14,o),
(430,-3,o),
(476,30,c),
(522,106,l),
(517,0,l),
(657,0,l),
(735,368,l)
);
}
);
width = 759;
}
);
note = Gbreve;
unicode = 286;
},
{
glyphname = Gcommaaccent;
kernLeft = C;
kernRight = G;
lastChange = "2022-11-29 13:08:13 +0000";
layers = (
{
hints = (
{
horizontal = 1;
place = (-70, 76);
place = (-70, 76);
type = Stem;
},
{
horizontal = 1;
place = (172, 84);
place = (172, 84);
type = Stem;
},
{
horizontal = 1;
place = (516, 76);
place = (516, 76);
type = Stem;
},
{
place = (-2, 132);
place = (-2, 132);
type = Stem;
},
{
place = (353, 248);
place = (353, 248);
type = Stem;
},
{
horizontal = 1;
place = (-272, 123);
place = (-272, 123);
type = Stem;
},
{
horizontal = 1;
place = (-56, 21);
target = up;
type = BottomGhost;
}
);
layerId = m01;
shapes = (
{
closed = 1;
nodes = (
(431,368,l),
(401,228,l),
(535,228,l),
(494,152,o),
(441,118,o),
(371,118,cs),
(286,118,o),
(223,177,o),
(260,351,cs),
(292,500,o),
(380,572,o),
(468,572,cs),
(541,572,o),
(579,537,o),
(578,463,cs),
(578,453,l),
(758,453,l),
(759,463,ls),
(774,599,o),
(695,704,o),
(498,704,cs),
(309,704,o),
(121,580,o),
(70,340,cs),
(21,108,o),
(124,-14,o),
(308,-14,cs),
(381,-14,o),
(430,-3,o),
(476,30,c),
(522,106,l),
(517,0,l),
(657,0,l),
(735,368,l)
);
},
{
closed = 1;
nodes = (
(294,-37,l),
(172,-216,l),
(269,-216,l),
(406,-47,l),
(408,-37,l)
);
}
);
width = 759;
}
);
note = Gcommaaccent;
unicode = 290;
},
{
glyphname = Gdotaccent;
kernLeft = C;
kernRight = G;
lastChange = "2022-11-29 13:08:13 +0000";
layers = (
{
hints = (
{
horizontal = 1;
place = (-70, 76);
place = (-70, 76);
type = Stem;
},
{
horizontal = 1;
place = (172, 84);
place = (172, 84);
type = Stem;
},
{
horizontal = 1;
place = (516, 76);
place = (516, 76);
type = Stem;
},
{
horizontal = 1;
place = (669, 120);
place = (669, 120);
type = Stem;
},
{
place = (-2, 132);
place = (-2, 132);
type = Stem;
},
{
place = (239, 130);
place = (239, 130);
type = Stem;
},
{
place = (353, 248);
place = (353, 248);
type = Stem;
},
{
horizontal = 1;
place = (-56, 21);
target = up;
type = BottomGhost;
}
);
layerId = m01;
shapes = (
{
closed = 1;
nodes = (
(542,725,o),
(586,759,o),
(597,813,cs),
(609,867,o),
(579,901,o),
(523,901,cs),
(467,901,o),
(423,867,o),
(411,813,cs),
(400,759,o),
(430,725,o),
(486,725,cs)
);
},
{
closed = 1;
nodes = (
(431,368,l),
(401,228,l),
(535,228,l),
(494,152,o),
(441,118,o),
(371,118,cs),
(286,118,o),
(223,177,o),
(260,351,cs),
(292,500,o),
(380,572,o),
(468,572,cs),
(541,572,o),
(579,537,o),
(578,463,cs),
(578,453,l),
(758,453,l),
(759,463,ls),
(774,599,o),
(695,704,o),
(498,704,cs),
(309,704,o),
(121,580,o),
(70,340,cs),
(21,108,o),
(124,-14,o),
(308,-14,cs),
(381,-14,o),
(430,-3,o),
(476,30,c),
(522,106,l),
(517,0,l),
(657,0,l),
(735,368,l)
);
}
);
width = 759;
}
);
note = Gdotaccent;
unicode = 288;
},
{
glyphname = H;
lastChange = "2022-11-29 13:08:13 +0000";
layers = (
{
hints = (
{
horizontal = 1;
place = (-56, 21);
target = up;
type = BottomGhost;
},
{
horizontal = 1;
place = (212, 84);
place = (212, 84);
type = Stem;
},
{
horizontal = 1;
place = (634, -20);
target = down;
type = TopGhost;
},
{
place = (24, 124);
place = (24, 124);
type = Stem;
},
{
place = (480, 124);
place = (480, 124);
type = Stem;
}
);
layerId = m01;
shapes = (
{
closed = 1;
nodes = (
(806,690,l),
(626,690,l),
(566,408,l),
(290,408,l),
(350,690,l),
(170,690,l),
(24,0,l),
(204,0,l),
(261,268,l),
(537,268,l),
(480,0,l),
(660,0,l)
);
}
);
width = 770;
}
);
note = H;
unicode = 72;
},
{
glyphname = Hbar;
lastChange = "2022-11-29 13:08:13 +0000";
layers = (
{
hints = (
{
horizontal = 1;
place = (-56, 21);
target = up;
type = BottomGhost;
},
{
horizontal = 1;
place = (212, 84);
place = (212, 84);
type = Stem;
},
{
horizontal = 1;
place = (426, 152);
place = (426, 152);
type = Stem;
},
{
place = (24, 124);
place = (24, 124);
type = Stem;
},
{
place = (480, 124);
place = (480, 124);
type = Stem;
},
{
horizontal = 1;
place = (426, 40);
place = (426, 40);
type = Stem;
}
);
layerId = m01;
shapes = (
{
closed = 1;
nodes = (
(802,482,l),
(823,578,l),
(783,578,l),
(806,690,l),
(626,690,l),
(603,578,l),
(327,578,l),
(350,690,l),
(170,690,l),
(147,578,l),
(107,578,l),
(86,482,l),
(126,482,l),
(24,0,l),
(204,0,l),
(261,268,l),
(537,268,l),
(480,0,l),
(660,0,l),
(762,482,l)
);
},
{
closed = 1;
nodes = (
(582,482,l),
(566,408,l),
(290,408,l),
(306,482,l)
);
}
);
width = 770;
}
);
note = Hbar;
unicode = 294;
},
{
glyphname = I;
lastChange = "2022-11-29 13:08:13 +0000";
layers = (
{
hints = (
{
horizontal = 1;
place = (-56, 21);
target = up;
type = BottomGhost;
},
{
horizontal = 1;
place = (634, -20);
target = down;
type = TopGhost;
},
{
place = (24, 124);
place = (24, 124);
type = Stem;
}
);
layerId = m01;
shapes = (
{
closed = 1;
nodes = (
(204,0,l),
(350,690,l),
(170,690,l),
(24,0,l)
);
}
);
width = 314;
}
);
note = I;
unicode = 73;
},
{
glyphname = IJ;
kernRight = IJ;
lastChange = "2022-11-29 13:08:13 +0000";
layers = (
{
hints = (
{
horizontal = 1;
place = (-56, 21);
target = up;
type = BottomGhost;
},
{
horizontal = 1;
place = (634, -20);
target = down;
type = TopGhost;
},
{
place = (24, 124);
place = (24, 124);
type = Stem;
},
{
place = (307, 124);
place = (307, 124);
type = Stem;
},
{
place = (664, 124);
place = (664, 124);
type = Stem;
},
{
horizontal = 1;
place = (-70, 76);
place = (-70, 76);
type = Stem;
},
{
horizontal = 1;
place = (-56, 208);
place = (-56, 208);
type = Stem;
}
);
layerId = m01;
shapes = (
{
closed = 1;
nodes = (
(204,0,l),
(350,690,l),
(170,690,l),
(24,0,l)
);
},
{
closed = 1;
nodes = (
(990,690,l),
(810,690,l),
(721,271,ls),
(717,250,o),
(712,228,o),
(705,205,cs),
(689,150,o),
(656,118,o),
(606,118,cs),
(555,118,o),
(524,144,o),
(537,234,cs),
(542,264,l),
(362,264,l),
(356,234,ls),
(330,84,o),
(386,-14,o),
(573,-14,cs),
(752,-14,o),
(849,73,o),
(882,194,cs),
(896,245,o),
(900,267,o),
(907,299,cs)
);
}
);
width = 952;
}
);
note = IJ;
unicode = 306;
},
{
glyphname = Iacute;
lastChange = "2022-11-29 13:08:13 +0000";
layers = (
{
hints = (
{
horizontal = 1;
place = (-56, 21);
target = up;
type = BottomGhost;
},
{
horizontal = 1;
place = (634, -20);
target = down;
type = TopGhost;
},
{
horizontal = 1;
place = (679, 69);
place = (679, 69);
type = Stem;
},
{
place = (24, 124);
place = (24, 124);
type = Stem;
}
);
layerId = m01;
shapes = (
{
closed = 1;
nodes = (
(312,735,l),
(493,860,l),
(333,860,l),
(216,735,l)
);
},
{
closed = 1;
nodes = (
(204,0,l),
(350,690,l),
(170,690,l),
(24,0,l)
);
}
);
width = 314;
}
);
note = Iacute;
unicode = 205;
},
{
glyphname = Icircumflex;
lastChange = "2022-11-29 13:08:13 +0000";
layers = (
{
hints = (
{
horizontal = 1;
place = (-56, 21);
target = up;
type = BottomGhost;
},
{
horizontal = 1;
place = (634, -20);
target = down;
type = TopGhost;
},
{
horizontal = 1;
place = (679, 69);
place = (679, 69);
type = Stem;
},
{
place = (24, 124);
place = (24, 124);
type = Stem;
}
);
layerId = m01;
shapes = (
{
closed = 1;
nodes = (
(237,735,l),
(285,811,l),
(303,735,l),
(407,735,l),
(371,860,l),
(222,860,l),
(134,735,l)
);
},
{
closed = 1;
nodes = (
(170,690,l),
(24,0,l),
(204,0,l),
(350,690,l)
);
}
);
width = 314;
}
);
note = Icircumflex;
unicode = 206;
},
{
glyphname = Idieresis;
lastChange = "2022-11-29 13:08:13 +0000";
layers = (
{
hints = (
{
horizontal = 1;
place = (-56, 21);
target = up;
type = BottomGhost;
},
{
horizontal = 1;
place = (634, -20);
target = down;
type = TopGhost;
},
{
horizontal = 1;
place = (666, 90);
place = (666, 90);
type = Stem;
},
{
place = (24, 124);
place = (24, 124);
type = Stem;
},
{
place = (-61, 94);
place = (-61, 94);
type = Stem;
},
{
place = (139, 94);
place = (139, 94);
type = Stem;
}
);
layerId = m01;
shapes = (
{
closed = 1;
nodes = (
(204,0,l),
(350,690,l),
(170,690,l),
(24,0,l)
);
},
{
closed = 1;
nodes = (
(95,721,l),
(245,721,l),
(277,868,l),
(127,868,l)
);
},
{
closed = 1;
nodes = (
(296,721,l),
(446,721,l),
(478,868,l),
(328,868,l)
);
}
);
width = 314;
}
);
note = Idieresis;
unicode = 207;
},
{
glyphname = Idotaccent;
lastChange = "2022-11-29 13:08:13 +0000";
layers = (
{
hints = (
{
horizontal = 1;
place = (-56, 21);
target = up;
type = BottomGhost;
},
{
horizontal = 1;
place = (634, -20);
target = down;
type = TopGhost;
},
{
horizontal = 1;
place = (669, 120);
place = (669, 120);
type = Stem;
},
{
place = (24, 124);
place = (24, 124);
type = Stem;
}
);
layerId = m01;
shapes = (
{
closed = 1;
nodes = (
(249,901,o),
(205,867,o),
(193,813,cs),
(182,759,o),
(212,725,o),
(268,725,cs),
(324,725,o),
(368,759,o),
(379,813,cs),
(391,867,o),
(361,901,o),
(305,901,cs)
);
},
{
closed = 1;
nodes = (
(204,0,l),
(350,690,l),
(170,690,l),
(24,0,l)
);
}
);
width = 314;
}
);
note = Idotaccent;
unicode = 304;
},
{
glyphname = Igrave;
lastChange = "2022-11-29 13:08:13 +0000";
layers = (
{
hints = (
{
horizontal = 1;
place = (-56, 21);
target = up;
type = BottomGhost;
},
{
horizontal = 1;
place = (634, -20);
target = down;
type = TopGhost;
},
{
horizontal = 1;
place = (679, 69);
place = (679, 69);
type = Stem;
},
{
place = (24, 124);
place = (24, 124);
type = Stem;
}
);
layerId = m01;
shapes = (
{
closed = 1;
nodes = (
(331,735,l),
(266,860,l),
(106,860,l),
(235,735,l)
);
},
{
closed = 1;
nodes = (
(204,0,l),
(350,690,l),
(170,690,l),
(24,0,l)
);
}
);
width = 314;
}
);
note = Igrave;
unicode = 204;
},
{
glyphname = Imacron;
lastChange = "2022-11-29 13:08:13 +0000";
layers = (
{
hints = (
{
horizontal = 1;
place = (-56, 21);
target = up;
type = BottomGhost;
},
{
horizontal = 1;
place = (634, -20);
target = down;
type = TopGhost;
},
{
horizontal = 1;
place = (704, 40);
place = (704, 40);
type = Stem;
},
{
place = (24, 124);
place = (24, 124);
type = Stem;
}
);
layerId = m01;
shapes = (
{
closed = 1;
nodes = (
(425,760,l),
(446,856,l),
(146,856,l),
(125,760,l)
);
},
{
closed = 1;
nodes = (
(204,0,l),
(350,690,l),
(170,690,l),
(24,0,l)
);
}
);
width = 314;
}
);
note = Imacron;
unicode = 298;
},
{
glyphname = Iogonek;
lastChange = "2022-11-29 13:08:13 +0000";
layers = (
{
hints = (
{
horizontal = 1;
place = (-279, 46);
place = (-279, 46);
type = Stem;
},
{
horizontal = 1;
place = (-56, 21);
target = up;
type = BottomGhost;
},
{
horizontal = 1;
place = (634, -20);
target = down;
type = TopGhost;
},
{
place = (24, 124);
place = (24, 124);
type = Stem;
}
);
layerId = m01;
shapes = (
{
closed = 1;
nodes = (
(204,0,l),
(350,690,l),
(170,690,l),
(25,5,l),
(-26,-20,o),
(-79,-77,o),
(-91,-137,cs),
(-105,-201,o),
(-62,-223,o),
(4,-223,cs),
(68,-223,o),
(115,-202,o),
(150,-173,c),
(165,-100,l),
(146,-115,o),
(131,-121,o),
(117,-121,cs),
(97,-121,o),
(79,-108,o),
(87,-70,cs),
(95,-32,o),
(122,0,o),
(147,0,cs)
);
}
);
width = 314;
}
);
note = Iogonek;
unicode = 302;
},
{
glyphname = J;
kernLeft = J;
kernRight = IJ;
lastChange = "2022-11-29 13:08:13 +0000";
layers = (
{
hints = (
{
horizontal = 1;
place = (-70, 76);
place = (-70, 76);
type = Stem;
},
{
horizontal = 1;
place = (634, -20);
target = down;
type = TopGhost;
},
{
place = (-7, 124);
place = (-7, 124);
type = Stem;
},
{
place = (350, 124);
place = (350, 124);
type = Stem;
}
);
layerId = m01;
shapes = (
{
closed = 1;
nodes = (
(676,690,l),
(496,690,l),
(407,271,ls),
(403,250,o),
(398,228,o),
(391,205,cs),
(375,150,o),
(342,118,o),
(292,118,cs),
(241,118,o),
(210,144,o),
(223,234,cs),
(228,264,l),
(48,264,l),
(42,234,ls),
(16,84,o),
(72,-14,o),
(259,-14,cs),
(438,-14,o),
(535,73,o),
(568,194,cs),
(582,245,o),
(586,267,o),
(593,299,cs)
);
}
);
width = 638;
}
);
note = J;
unicode = 74;
},
{
glyphname = K;
kernRight = K;
lastChange = "2022-11-29 13:08:13 +0000";
layers = (
{
hints = (
{
horizontal = 1;
place = (-56, 21);
target = up;
type = BottomGhost;
},
{
horizontal = 1;
place = (634, -20);
target = down;
type = TopGhost;
},
{
place = (24, 124);
place = (24, 124);
type = Stem;
}
);
layerId = m01;
shapes = (
{
closed = 1;
nodes = (
(461,365,l),
(828,690,l),
(613,690,l),
(286,385,l),
(350,690,l),
(170,690,l),
(24,0,l),
(204,0,l),
(249,212,l),
(309,266,l),
(448,0,l),
(673,0,l)
);
}
);
width = 743;
}
);
note = K;
unicode = 75;
},
{
glyphname = Kcommaaccent;
kernRight = K;
lastChange = "2022-11-29 13:08:13 +0000";
layers = (
{
hints = (
{
horizontal = 1;
place = (-272, 123);
place = (-272, 123);
type = Stem;
},
{
horizontal = 1;
place = (-56, 21);
target = up;
type = BottomGhost;
},
{
horizontal = 1;
place = (634, -20);
target = down;
type = TopGhost;
},
{
place = (24, 124);
place = (24, 124);
type = Stem;
}
);
layerId = m01;
shapes = (
{
closed = 1;
nodes = (
(461,365,l),
(828,690,l),
(613,690,l),
(286,385,l),
(350,690,l),
(170,690,l),
(24,0,l),
(204,0,l),
(249,212,l),
(309,266,l),
(448,0,l),
(673,0,l)
);
},
{
closed = 1;
nodes = (
(261,-37,l),
(139,-216,l),
(236,-216,l),
(373,-47,l),
(375,-37,l)
);
}
);
width = 743;
}
);
note = Kcommaaccent;
unicode = 310;
},
{
glyphname = L;
kernRight = L;
lastChange = "2022-11-29 13:08:13 +0000";
layers = (
{
hints = (
{
horizontal = 1;
place = (-56, 96);
place = (-56, 96);
type = Stem;
},
{
horizontal = 1;
place = (634, -20);
target = down;
type = TopGhost;
},
{
place = (24, 124);
place = (24, 124);
type = Stem;
}
);
layerId = m01;
shapes = (
{
closed = 1;
nodes = (
(585,152,l),
(236,152,l),
(350,690,l),
(170,690,l),
(24,0,l),
(553,0,l)
);
}
);
width = 628;
}
);
note = L;
unicode = 76;
},
{
glyphname = Lacute;
kernRight = L;
lastChange = "2022-11-29 13:08:13 +0000";
layers = (
{
hints = (
{
horizontal = 1;
place = (-56, 96);
place = (-56, 96);
type = Stem;
},
{
horizontal = 1;
place = (634, -20);
target = down;
type = TopGhost;
},
{
horizontal = 1;
place = (679, 69);
place = (679, 69);
type = Stem;
},
{
place = (24, 124);
place = (24, 124);
type = Stem;
}
);
layerId = m01;
shapes = (
{
closed = 1;
nodes = (
(312,735,l),
(493,860,l),
(333,860,l),
(216,735,l)
);
},
{
closed = 1;
nodes = (
(585,152,l),
(236,152,l),
(350,690,l),
(170,690,l),
(24,0,l),
(553,0,l)
);
}
);
width = 628;
}
);
note = Lacute;
unicode = 313;
},
{
glyphname = Lcaron;
kernRight = L;
lastChange = "2022-11-29 13:08:13 +0000";
layers = (
{
hints = (
{
horizontal = 1;
place = (-56, 96);
place = (-56, 96);
type = Stem;
},
{
horizontal = 1;
place = (634, -20);
target = down;
type = TopGhost;
},
{
place = (24, 124);
place = (24, 124);
type = Stem;
}
);
layerId = m01;
shapes = (
{
closed = 1;
nodes = (
(585,152,l),
(236,152,l),
(350,690,l),
(170,690,l),
(24,0,l),
(553,0,l)
);
}
);
width = 628;
}
);
note = Lcaron;
unicode = 317;
},
{
glyphname = Lcommaaccent;
kernRight = L;
lastChange = "2022-11-29 13:08:13 +0000";
layers = (
{
hints = (
{
horizontal = 1;
place = (-272, 123);
place = (-272, 123);
type = Stem;
},
{
horizontal = 1;
place = (-56, 96);
place = (-56, 96);
type = Stem;
},
{
horizontal = 1;
place = (634, -20);
target = down;
type = TopGhost;
},
{
place = (24, 124);
place = (24, 124);
type = Stem;
}
);
layerId = m01;
shapes = (
{
closed = 1;
nodes = (
(585,152,l),
(236,152,l),
(350,690,l),
(170,690,l),
(24,0,l),
(553,0,l)
);
},
{
closed = 1;
nodes = (
(235,-37,l),
(113,-216,l),
(210,-216,l),
(347,-47,l),
(349,-37,l)
);
}
);
width = 628;
}
);
note = Lcommaaccent;
unicode = 315;
},
{
glyphname = Ldot;
kernRight = L;
lastChange = "2022-11-29 13:08:13 +0000";
layers = (
{
hints = (
{
horizontal = 1;
place = (-56, 96);
place = (-56, 96);
type = Stem;
},
{
horizontal = 1;
place = (244, 144);
place = (244, 144);
type = Stem;
},
{
horizontal = 1;
place = (634, -20);
target = down;
type = TopGhost;
},
{
place = (24, 124);
place = (24, 124);
type = Stem;
},
{
place = (294, 144);
place = (294, 144);
type = Stem;
}
);
layerId = m01;
shapes = (
{
closed = 1;
nodes = (
(585,152,l),
(236,152,l),
(350,690,l),
(170,690,l),
(24,0,l),
(553,0,l)
);
},
{
closed = 1;
nodes = (
(514,300,o),
(567,343,o),
(579,400,cs),
(591,457,o),
(557,500,o),
(500,500,cs),
(443,500,o),
(391,457,o),
(379,400,cs),
(367,343,o),
(400,300,o),
(457,300,cs)
);
}
);
width = 628;
}
);
note = Ldot;
unicode = 319;
},
{
glyphname = Lslash;
kernRight = L;
lastChange = "2022-11-29 13:08:13 +0000";
layers = (
{
hints = (
{
horizontal = 1;
place = (-56, 96);
place = (-56, 96);
type = Stem;
},
{
horizontal = 1;
place = (482, -20);
target = down;
type = TopGhost;
},
{
horizontal = 1;
place = (634, -20);
target = down;
type = TopGhost;
},
{
place = (64, 124);
place = (64, 124);
type = Stem;
}
);
layerId = m01;
shapes = (
{
closed = 1;
nodes = (
(625,152,l),
(276,152,l),
(324,380,l),
(420,425,l),
(444,538,l),
(348,493,l),
(390,690,l),
(210,690,l),
(148,398,l),
(44,348,l),
(20,235,l),
(124,285,l),
(64,0,l),
(593,0,l)
);
}
);
width = 668;
}
);
note = Lslash;
unicode = 321;
},
{
glyphname = M;
lastChange = "2022-11-29 13:08:13 +0000";
layers = (
{
hints = (
{
horizontal = 1;
place = (-56, 21);
target = up;
type = BottomGhost;
},
{
horizontal = 1;
place = (634, -20);
target = down;
type = TopGhost;
},
{
place = (24, 124);
place = (24, 124);
type = Stem;
},
{
place = (633, 124);
place = (633, 124);
type = Stem;
},
{
horizontal = 1;
place = (-56, 119);
place = (-56, 119);
type = Stem;
},
{
horizontal = 1;
place = (453, 125);
place = (453, 125);
type = Stem;
}
);
layerId = m01;
shapes = (
{
closed = 1;
nodes = (
(959,690,l),
(685,690,l),
(459,175,l),
(451,690,l),
(170,690,l),
(24,0,l),
(204,0,l),
(265,290,ls),
(278,350,o),
(297,439,o),
(310,509,c),
(306,439,o),
(307,350,o),
(310,290,cs),
(326,0,l),
(511,0,l),
(648,290,ls),
(677,351,o),
(716,439,o),
(743,509,c),
(726,439,o),
(707,350,o),
(694,290,cs),
(633,0,l),
(813,0,l)
);
}
);
width = 923;
}
);
note = M;
unicode = 77;
},
{
glyphname = N;
lastChange = "2022-11-29 13:08:13 +0000";
layers = (
{
hints = (
{
horizontal = 1;
place = (-56, 21);
target = up;
type = BottomGhost;
},
{
horizontal = 1;
place = (634, -20);
target = down;
type = TopGhost;
},
{
place = (24, 124);
place = (24, 124);
type = Stem;
},
{
place = (504, 124);
place = (504, 124);
type = Stem;
}
);
layerId = m01;
shapes = (
{
closed = 1;
nodes = (
(684,0,l),
(830,690,l),
(650,690,l),
(588,395,ls),
(579,355,o),
(565,284,o),
(555,214,c),
(394,690,l),
(170,690,l),
(24,0,l),
(204,0,l),
(264,285,ls),
(273,325,o),
(286,386,o),
(295,456,c),
(449,0,l)
);
}
);
width = 794;
}
);
note = N;
unicode = 78;
},
{
glyphname = Nacute;
lastChange = "2022-11-29 13:08:13 +0000";
layers = (
{
hints = (
{
horizontal = 1;
place = (-56, 21);
target = up;
type = BottomGhost;
},
{
horizontal = 1;
place = (634, -20);
target = down;
type = TopGhost;
},
{
horizontal = 1;
place = (679, 69);
place = (679, 69);
type = Stem;
},
{
place = (24, 124);
place = (24, 124);
type = Stem;
},
{
place = (504, 124);
place = (504, 124);
type = Stem;
}
);
layerId = m01;
shapes = (
{
closed = 1;
nodes = (
(547,735,l),
(728,860,l),
(568,860,l),
(451,735,l)
);
},
{
closed = 1;
nodes = (
(684,0,l),
(830,690,l),
(650,690,l),
(588,395,ls),
(579,355,o),
(565,284,o),
(555,214,c),
(394,690,l),
(170,690,l),
(24,0,l),
(204,0,l),
(264,285,ls),
(273,325,o),
(286,386,o),
(295,456,c),
(449,0,l)
);
}
);
width = 794;
}
);
note = Nacute;
unicode = 323;
},
{
glyphname = Ncaron;
lastChange = "2022-11-29 13:08:13 +0000";
layers = (
{
hints = (
{
horizontal = 1;
place = (-56, 21);
target = up;
type = BottomGhost;
},
{
horizontal = 1;
place = (634, -20);
target = down;
type = TopGhost;
},
{
horizontal = 1;
place = (679, 69);
place = (679, 69);
type = Stem;
},
{
place = (24, 124);
place = (24, 124);
type = Stem;
},
{
place = (504, 124);
place = (504, 124);
type = Stem;
}
);
layerId = m01;
shapes = (
{
closed = 1;
nodes = (
(431,735,l),
(580,735,l),
(668,860,l),
(565,860,l),
(517,784,l),
(499,860,l),
(395,860,l)
);
},
{
closed = 1;
nodes = (
(830,690,l),
(650,690,l),
(588,395,ls),
(579,355,o),
(565,284,o),
(555,214,c),
(394,690,l),
(170,690,l),
(24,0,l),
(204,0,l),
(264,285,ls),
(273,325,o),
(286,386,o),
(295,456,c),
(449,0,l),
(684,0,l)
);
}
);
width = 794;
}
);
note = Ncaron;
unicode = 327;
},
{
glyphname = Ncommaaccent;
lastChange = "2022-11-29 13:08:13 +0000";
layers = (
{
hints = (
{
horizontal = 1;
place = (-272, 123);
place = (-272, 123);
type = Stem;
},
{
horizontal = 1;
place = (-56, 21);
target = up;
type = BottomGhost;
},
{
horizontal = 1;
place = (634, -20);
target = down;
type = TopGhost;
},
{
place = (24, 124);
place = (24, 124);
type = Stem;
},
{
place = (504, 124);
place = (504, 124);
type = Stem;
}
);
layerId = m01;
shapes = (
{
closed = 1;
nodes = (
(684,0,l),
(830,690,l),
(650,690,l),
(588,395,ls),
(579,355,o),
(565,284,o),
(555,214,c),
(394,690,l),
(170,690,l),
(24,0,l),
(204,0,l),
(264,285,ls),
(273,325,o),
(286,386,o),
(295,456,c),
(449,0,l)
);
},
{
closed = 1;
nodes = (
(413,-47,l),
(415,-37,l),
(301,-37,l),
(179,-216,l),
(276,-216,l)
);
}
);
width = 794;
}
);
note = Ncommaaccent;
unicode = 325;
},
{
glyphname = Eng;
lastChange = "2022-11-29 13:08:13 +0000";
layers = (
{
hints = (
{
horizontal = 1;
place = (-279, 76);
place = (-279, 76);
type = Stem;
},
{
horizontal = 1;
place = (-56, 21);
target = up;
type = BottomGhost;
},
{
horizontal = 1;
place = (634, -20);
target = down;
type = TopGhost;
},
{
place = (24, 124);
place = (24, 124);
type = Stem;
},
{
place = (504, 124);
place = (504, 124);
type = Stem;
}
);
layerId = m01;
shapes = (
{
closed = 1;
nodes = (
(830,690,l),
(650,690,l),
(596,435,ls),
(588,395,o),
(574,324,o),
(564,254,c),
(394,690,l),
(170,690,l),
(24,0,l),
(204,0,l),
(264,285,ls),
(273,325,o),
(286,386,o),
(295,456,c),
(499,-20,l),
(497,-33,ls),
(490,-66,o),
(471,-85,o),
(409,-91,c),
(381,-223,l),
(556,-223,o),
(634,-186,o),
(662,-98,cs),
(666,-84,o),
(668,-75,o),
(672,-57,cs)
);
}
);
width = 794;
}
);
note = Eng;
unicode = 330;
},
{
glyphname = Ntilde;
lastChange = "2022-11-29 13:08:13 +0000";
layers = (
{
hints = (
{
horizontal = 1;
place = (-56, 21);
target = up;
type = BottomGhost;
},
{
horizontal = 1;
place = (634, -20);
target = down;
type = TopGhost;
},
{
horizontal = 1;
place = (686, 78);
place = (686, 78);
type = Stem;
},
{
place = (185, 40);
place = (185, 40);
type = Stem;
},
{
place = (504, 124);
place = (504, 124);
type = Stem;
},
{
horizontal = 1;
place = (683, 78);
place = (683, 78);
type = Stem;
},
{
place = (24, 124);
place = (24, 124);
type = Stem;
},
{
place = (417, 40);
place = (417, 40);
type = Stem;
}
);
layerId = m01;
shapes = (
{
closed = 1;
nodes = (
(399,876,o),
(362,835,o),
(342,742,c),
(438,742,l),
(443,764,o),
(449,773,o),
(460,773,cs),
(468,773,o),
(480,768,o),
(502,758,cs),
(535,742,o),
(551,739,o),
(580,739,cs),
(642,739,o),
(678,780,o),
(698,873,c),
(602,873,l),
(598,851,o),
(592,842,o),
(581,842,cs),
(573,842,o),
(560,846,o),
(539,857,cs),
(506,873,o),
(490,876,o),
(461,876,cs)
);
},
{
closed = 1;
nodes = (
(684,0,l),
(830,690,l),
(650,690,l),
(588,395,ls),
(579,355,o),
(565,284,o),
(555,214,c),
(394,690,l),
(170,690,l),
(24,0,l),
(204,0,l),
(264,285,ls),
(273,325,o),
(286,386,o),
(295,456,c),
(449,0,l)
);
}
);
width = 794;
}
);
note = Ntilde;
unicode = 209;
},
{
glyphname = O;
kernLeft = C;
kernRight = D;
lastChange = "2022-11-29 13:08:13 +0000";
layers = (
{
hints = (
{
horizontal = 1;
place = (-70, 76);
place = (-70, 76);
type = Stem;
},
{
horizontal = 1;
place = (516, 76);
place = (516, 76);
type = Stem;
},
{
place = (-2, 128);
place = (-2, 128);
type = Stem;
},
{
place = (520, 128);
place = (520, 128);
type = Stem;
}
);
layerId = m01;
shapes = (
{
closed = 1;
nodes = (
(285,704,o),
(118,567,o),
(71,345,cs),
(24,124,o),
(133,-14,o),
(348,-14,cs),
(563,-14,o),
(730,124,o),
(777,345,cs),
(824,567,o),
(715,704,o),
(500,704,cs)
);
},
{
closed = 1;
nodes = (
(272,118,o),
(224,199,o),
(255,345,cs),
(286,492,o),
(368,572,o),
(472,572,cs),
(576,572,o),
(624,492,o),
(593,345,cs),
(562,199,o),
(480,118,o),
(376,118,cs)
);
}
);
width = 788;
}
);
note = O;
unicode = 79;
},
{
glyphname = Oacute;
kernLeft = C;
kernRight = D;
lastChange = "2022-11-29 13:08:13 +0000";
layers = (
{
hints = (
{
horizontal = 1;
place = (-70, 76);
place = (-70, 76);
type = Stem;
},
{
horizontal = 1;
place = (516, 76);
place = (516, 76);
type = Stem;
},
{
horizontal = 1;
place = (679, 69);
place = (679, 69);
type = Stem;
},
{
place = (-2, 128);
place = (-2, 128);
type = Stem;
},
{
place = (520, 128);
place = (520, 128);
type = Stem;
}
);
layerId = m01;
shapes = (
{
closed = 1;
nodes = (
(549,735,l),
(730,860,l),
(570,860,l),
(453,735,l)
);
},
{
closed = 1;
nodes = (
(285,704,o),
(118,567,o),
(71,345,cs),
(24,124,o),
(133,-14,o),
(348,-14,cs),
(563,-14,o),
(730,124,o),
(777,345,cs),
(824,567,o),
(715,704,o),
(500,704,cs)
);
},
{
closed = 1;
nodes = (
(272,118,o),
(224,199,o),
(255,345,cs),
(286,492,o),
(368,572,o),
(472,572,cs),
(576,572,o),
(624,492,o),
(593,345,cs),
(562,199,o),
(480,118,o),
(376,118,cs)
);
}
);
width = 788;
}
);
note = Oacute;
unicode = 211;
},
{
glyphname = Ocircumflex;
kernLeft = C;
kernRight = D;
lastChange = "2022-11-29 13:08:13 +0000";
layers = (
{
hints = (
{
horizontal = 1;
place = (-70, 76);
place = (-70, 76);
type = Stem;
},
{
horizontal = 1;
place = (516, 76);
place = (516, 76);
type = Stem;
},
{
horizontal = 1;
place = (679, 69);
place = (679, 69);
type = Stem;
},
{
place = (-2, 128);
place = (-2, 128);
type = Stem;
},
{
place = (520, 128);
place = (520, 128);
type = Stem;
}
);
layerId = m01;
shapes = (
{
closed = 1;
nodes = (
(474,735,l),
(522,811,l),
(540,735,l),
(644,735,l),
(608,860,l),
(459,860,l),
(371,735,l)
);
},
{
closed = 1;
nodes = (
(285,704,o),
(118,567,o),
(71,345,cs),
(24,124,o),
(133,-14,o),
(348,-14,cs),
(563,-14,o),
(730,124,o),
(777,345,cs),
(824,567,o),
(715,704,o),
(500,704,cs)
);
},
{
closed = 1;
nodes = (
(272,118,o),
(224,199,o),
(255,345,cs),
(286,492,o),
(368,572,o),
(472,572,cs),
(576,572,o),
(624,492,o),
(593,345,cs),
(562,199,o),
(480,118,o),
(376,118,cs)
);
}
);
width = 788;
}
);
note = Ocircumflex;
unicode = 212;
},
{
glyphname = Odieresis;
kernLeft = C;
kernRight = D;
lastChange = "2022-11-29 13:08:13 +0000";
layers = (
{
hints = (
{
horizontal = 1;
place = (-70, 76);
place = (-70, 76);
type = Stem;
},
{
horizontal = 1;
place = (516, 76);
place = (516, 76);
type = Stem;
},
{
horizontal = 1;
place = (666, 90);
place = (666, 90);
type = Stem;
},
{
place = (176, 94);
place = (176, 94);
type = Stem;
},
{
place = (376, 94);
place = (376, 94);
type = Stem;
},
{
place = (-2, 128);
place = (-2, 128);
type = Stem;
},
{
place = (520, 128);
place = (520, 128);
type = Stem;
}
);
layerId = m01;
shapes = (
{
closed = 1;
nodes = (
(285,704,o),
(118,567,o),
(71,345,cs),
(24,124,o),
(133,-14,o),
(348,-14,cs),
(563,-14,o),
(730,124,o),
(777,345,cs),
(824,567,o),
(715,704,o),
(500,704,cs)
);
},
{
closed = 1;
nodes = (
(272,118,o),
(224,199,o),
(255,345,cs),
(286,492,o),
(368,572,o),
(472,572,cs),
(576,572,o),
(624,492,o),
(593,345,cs),
(562,199,o),
(480,118,o),
(376,118,cs)
);
},
{
closed = 1;
nodes = (
(331,724,l),
(481,724,l),
(512,871,l),
(362,871,l)
);
},
{
closed = 1;
nodes = (
(532,724,l),
(682,724,l),
(713,871,l),
(563,871,l)
);
}
);
width = 788;
}
);
note = Odieresis;
unicode = 214;
},
{
glyphname = Ograve;
kernLeft = C;
kernRight = D;
lastChange = "2022-11-29 13:08:13 +0000";
layers = (
{
hints = (
{
horizontal = 1;
place = (-70, 76);
place = (-70, 76);
type = Stem;
},
{
horizontal = 1;
place = (516, 76);
place = (516, 76);
type = Stem;
},
{
horizontal = 1;
place = (679, 69);
place = (679, 69);
type = Stem;
},
{
place = (-2, 128);
place = (-2, 128);
type = Stem;
},
{
place = (520, 128);
place = (520, 128);
type = Stem;
}
);
layerId = m01;
shapes = (
{
closed = 1;
nodes = (
(472,735,l),
(568,735,l),
(503,860,l),
(343,860,l)
);
},
{
closed = 1;
nodes = (
(285,704,o),
(118,567,o),
(71,345,cs),
(24,124,o),
(133,-14,o),
(348,-14,cs),
(563,-14,o),
(730,124,o),
(777,345,cs),
(824,567,o),
(715,704,o),
(500,704,cs)
);
},
{
closed = 1;
nodes = (
(272,118,o),
(224,199,o),
(255,345,cs),
(286,492,o),
(368,572,o),
(472,572,cs),
(576,572,o),
(624,492,o),
(593,345,cs),
(562,199,o),
(480,118,o),
(376,118,cs)
);
}
);
width = 788;
}
);
note = Ograve;
unicode = 210;
},
{
glyphname = Ohungarumlaut;
kernLeft = C;
kernRight = D;
lastChange = "2022-11-29 13:08:13 +0000";
layers = (
{
hints = (
{
horizontal = 1;
place = (-70, 76);
place = (-70, 76);
type = Stem;
},
{
horizontal = 1;
place = (516, 76);
place = (516, 76);
type = Stem;
},
{
horizontal = 1;
place = (680, 69);
place = (680, 69);
type = Stem;
},
{
place = (-2, 128);
place = (-2, 128);
type = Stem;
},
{
place = (520, 128);
place = (520, 128);
type = Stem;
}
);
layerId = m01;
shapes = (
{
closed = 1;
nodes = (
(426,736,l),
(608,861,l),
(448,861,l),
(330,736,l)
);
},
{
closed = 1;
nodes = (
(531,736,l),
(627,736,l),
(809,861,l),
(649,861,l)
);
},
{
closed = 1;
nodes = (
(285,704,o),
(118,567,o),
(71,345,cs),
(24,124,o),
(133,-14,o),
(348,-14,cs),
(563,-14,o),
(730,124,o),
(777,345,cs),
(824,567,o),
(715,704,o),
(500,704,cs)
);
},
{
closed = 1;
nodes = (
(272,118,o),
(224,199,o),
(255,345,cs),
(286,492,o),
(368,572,o),
(472,572,cs),
(576,572,o),
(624,492,o),
(593,345,cs),
(562,199,o),
(480,118,o),
(376,118,cs)
);
}
);
width = 788;
}
);
note = Ohungarumlaut;
unicode = 336;
},
{
glyphname = Omacron;
kernLeft = C;
kernRight = D;
lastChange = "2022-11-29 13:08:13 +0000";
layers = (
{
hints = (
{
horizontal = 1;
place = (-70, 76);
place = (-70, 76);
type = Stem;
},
{
horizontal = 1;
place = (516, 76);
place = (516, 76);
type = Stem;
},
{
horizontal = 1;
place = (704, 40);
place = (704, 40);
type = Stem;
},
{
place = (-2, 128);
place = (-2, 128);
type = Stem;
},
{
place = (201, 244);
place = (201, 244);
type = Stem;
},
{
place = (520, 128);
place = (520, 128);
type = Stem;
}
);
layerId = m01;
shapes = (
{
closed = 1;
nodes = (
(662,760,l),
(683,856,l),
(383,856,l),
(362,760,l)
);
},
{
closed = 1;
nodes = (
(285,704,o),
(118,567,o),
(71,345,cs),
(24,124,o),
(133,-14,o),
(348,-14,cs),
(563,-14,o),
(730,124,o),
(777,345,cs),
(824,567,o),
(715,704,o),
(500,704,cs)
);
},
{
closed = 1;
nodes = (
(272,118,o),
(224,199,o),
(255,345,cs),
(286,492,o),
(368,572,o),
(472,572,cs),
(576,572,o),
(624,492,o),
(593,345,cs),
(562,199,o),
(480,118,o),
(376,118,cs)
);
}
);
width = 788;
}
);
note = Omacron;
unicode = 332;
},
{
glyphname = Oslash;
kernLeft = C;
kernRight = D;
lastChange = "2022-11-29 13:08:13 +0000";
layers = (
{
hints = (
{
horizontal = 1;
place = (-70, 76);
place = (-70, 76);
type = Stem;
},
{
horizontal = 1;
place = (516, 76);
place = (516, 76);
type = Stem;
},
{
place = (-1, 128);
place = (-1, 128);
type = Stem;
},
{
place = (521, 128);
place = (521, 128);
type = Stem;
}
);
layerId = m01;
shapes = (
{
closed = 1;
nodes = (
(844,633,l),
(789,703,l),
(710,638,l),
(660,681,o),
(590,704,o),
(501,704,cs),
(286,704,o),
(119,567,o),
(72,345,cs),
(53,257,o),
(59,182,o),
(87,124,c),
(6,57,l),
(61,-13,l),
(141,53,l),
(190,9,o),
(260,-14,o),
(349,-14,cs),
(564,-14,o),
(731,124,o),
(778,345,cs),
(797,433,o),
(791,508,o),
(763,566,c)
);
},
{
closed = 1;
nodes = (
(287,492,o),
(369,572,o),
(473,572,cs),
(519,572,o),
(554,557,o),
(576,527,c),
(247,256,l),
(246,282,o),
(249,312,o),
(256,345,cs)
);
},
{
closed = 1;
nodes = (
(563,199,o),
(481,118,o),
(377,118,cs),
(331,118,o),
(296,133,o),
(274,163,c),
(603,434,l),
(604,408,o),
(601,378,o),
(594,345,cs)
);
}
);
width = 790;
}
);
note = Oslash;
unicode = 216;
},
{
glyphname = Otilde;
kernLeft = C;
kernRight = D;
lastChange = "2022-11-29 13:08:13 +0000";
layers = (
{
hints = (
{
horizontal = 1;
place = (-70, 76);
place = (-70, 76);
type = Stem;
},
{
horizontal = 1;
place = (516, 76);
place = (516, 76);
type = Stem;
},
{
horizontal = 1;
place = (686, 78);
place = (686, 78);
type = Stem;
},
{
place = (187, 40);
place = (187, 40);
type = Stem;
},
{
place = (520, 128);
place = (520, 128);
type = Stem;
},
{
horizontal = 1;
place = (683, 78);
place = (683, 78);
type = Stem;
},
{
place = (-2, 128);
place = (-2, 128);
type = Stem;
},
{
place = (419, 40);
place = (419, 40);
type = Stem;
}
);
layerId = m01;
shapes = (
{
closed = 1;
nodes = (
(470,773,o),
(482,768,o),
(504,758,cs),
(537,742,o),
(553,739,o),
(582,739,cs),
(644,739,o),
(680,780,o),
(700,873,c),
(604,873,l),
(600,851,o),
(594,842,o),
(583,842,cs),
(575,842,o),
(562,846,o),
(541,857,cs),
(508,873,o),
(492,876,o),
(463,876,cs),
(401,876,o),
(364,835,o),
(344,742,c),
(440,742,l),
(445,764,o),
(451,773,o),
(462,773,cs)
);
},
{
closed = 1;
nodes = (
(285,704,o),
(118,567,o),
(71,345,cs),
(24,124,o),
(133,-14,o),
(348,-14,cs),
(563,-14,o),
(730,124,o),
(777,345,cs),
(824,567,o),
(715,704,o),
(500,704,cs)
);
},
{
closed = 1;
nodes = (
(272,118,o),
(224,199,o),
(255,345,cs),
(286,492,o),
(368,572,o),
(472,572,cs),
(576,572,o),
(624,492,o),
(593,345,cs),
(562,199,o),
(480,118,o),
(376,118,cs)
);
}
);
width = 788;
}
);
note = Otilde;
unicode = 213;
},
{
glyphname = OE;
kernLeft = C;
lastChange = "2022-11-29 13:08:13 +0000";
layers = (
{
hints = (
{
horizontal = 1;
place = (-56, 84);
place = (-56, 84);
type = Stem;
},
{
horizontal = 1;
place = (220, 84);
place = (220, 84);
type = Stem;
},
{
horizontal = 1;
place = (494, 84);
place = (494, 84);
type = Stem;
},
{
place = (-2, 128);
place = (-2, 128);
type = Stem;
},
{
place = (520, 124);
place = (520, 124);
type = Stem;
},
{
horizontal = 1;
place = (-70, 76);
place = (-70, 76);
type = Stem;
},
{
horizontal = 1;
place = (516, 76);
place = (516, 76);
type = Stem;
}
);
layerId = m01;
shapes = (
{
closed = 1;
nodes = (
(1078,140,l),
(729,140,l),
(758,276,l),
(1077,276,l),
(1107,416,l),
(788,416,l),
(817,550,l),
(1156,550,l),
(1185,690,l),
(666,690,l),
(645,588,l),
(627,656,l),
(585,694,o),
(547,704,o),
(460,704,cs),
(285,704,o),
(118,567,o),
(71,345,cs),
(24,124,o),
(133,-14,o),
(308,-14,cs),
(397,-14,o),
(436,-4,o),
(495,36,c),
(542,103,l),
(520,0,l),
(1049,0,l)
);
},
{
closed = 1;
nodes = (
(272,118,o),
(224,199,o),
(255,345,cs),
(286,492,o),
(368,572,o),
(472,572,cs),
(576,572,o),
(624,492,o),
(593,345,cs),
(562,199,o),
(480,118,o),
(376,118,cs)
);
}
);
width = 1135;
}
);
note = OE;
unicode = 338;
},
{
glyphname = P;
kernRight = P;
lastChange = "2022-11-29 13:08:13 +0000";
layers = (
{
hints = (
{
horizontal = 1;
place = (-56, 21);
target = up;
type = BottomGhost;
},
{
horizontal = 1;
place = (186, 84);
place = (186, 84);
type = Stem;
},
{
horizontal = 1;
place = (494, 84);
place = (494, 84);
type = Stem;
},
{
place = (24, 124);
place = (24, 124);
type = Stem;
},
{
place = (395, 132);
place = (395, 132);
type = Stem;
}
);
layerId = m01;
shapes = (
{
closed = 1;
nodes = (
(501,689,o),
(473,690,o),
(430,690,cs),
(170,690,l),
(24,0,l),
(204,0,l),
(255,242,l),
(335,242,ls),
(378,242,o),
(406,243,o),
(444,247,cs),
(547,259,o),
(653,330,o),
(682,466,cs),
(711,602,o),
(635,673,o),
(537,685,cs)
);
},
{
closed = 1;
nodes = (
(390,382,o),
(374,382,o),
(355,382,cs),
(285,382,l),
(321,550,l),
(391,550,ls),
(410,550,o),
(426,550,o),
(438,549,cs),
(484,545,o),
(505,518,o),
(494,466,cs),
(483,414,o),
(450,387,o),
(403,383,cs)
);
}
);
width = 644;
}
);
note = P;
unicode = 80;
},
{
glyphname = Thorn;
lastChange = "2022-11-29 13:08:13 +0000";
layers = (
{
hints = (
{
horizontal = 1;
place = (-56, 21);
target = up;
type = BottomGhost;
},
{
horizontal = 1;
place = (118, 84);
place = (118, 84);
type = Stem;
},
{
horizontal = 1;
place = (406, 84);
place = (406, 84);
type = Stem;
},
{
horizontal = 1;
place = (634, -20);
target = down;
type = TopGhost;
},
{
place = (24, 124);
place = (24, 124);
type = Stem;
},
{
place = (395, 132);
place = (395, 132);
type = Stem;
}
);
layerId = m01;
shapes = (
{
closed = 1;
nodes = (
(491,601,o),
(464,602,o),
(421,602,cs),
(332,602,l),
(350,690,l),
(170,690,l),
(24,0,l),
(204,0,l),
(241,174,l),
(330,174,ls),
(373,174,o),
(401,175,o),
(439,179,cs),
(541,191,o),
(637,255,o),
(665,388,cs),
(693,521,o),
(625,585,o),
(528,597,cs)
);
},
{
closed = 1;
nodes = (
(375,314,o),
(359,314,o),
(340,314,cs),
(270,314,l),
(302,462,l),
(372,462,ls),
(391,462,o),
(407,462,o),
(420,461,cs),
(465,457,o),
(487,435,o),
(477,388,cs),
(467,341,o),
(435,319,o),
(389,315,cs)
);
}
);
width = 653;
}
);
note = Thorn;
unicode = 222;
},
{
glyphname = Q;
kernLeft = C;
lastChange = "2022-11-29 13:08:13 +0000";
layers = (
{
hints = (
{
horizontal = 1;
place = (-70, 76);
place = (-70, 76);
type = Stem;
},
{
horizontal = 1;
place = (517, 76);
place = (517, 76);
type = Stem;
},
{
place = (-2, 128);
place = (-2, 128);
type = Stem;
},
{
place = (520, 128);
place = (520, 128);
type = Stem;
},
{
horizontal = 1;
place = (-54, 60);
place = (-54, 60);
type = Stem;
}
);
layerId = m01;
shapes = (
{
closed = 1;
nodes = (
(713,182,o),
(759,261,o),
(777,345,cs),
(824,567,o),
(716,705,o),
(501,705,cs),
(286,705,o),
(118,567,o),
(71,345,cs),
(24,124,o),
(133,-14,o),
(348,-14,cs),
(374,-14,o),
(397,-12,o),
(420,-7,cs),
(449,-1,o),
(467,2,o),
(495,2,cs),
(542,2,o),
(571,-9,o),
(626,-48,c),
(737,66,l),
(706,97,o),
(677,116,o),
(643,127,c)
);
},
{
closed = 1;
nodes = (
(286,492,o),
(368,573,o),
(472,573,cs),
(576,573,o),
(624,492,o),
(593,345,cs),
(562,199,o),
(480,118,o),
(376,118,cs),
(272,118,o),
(224,199,o),
(255,345,cs)
);
}
);
width = 791;
}
);
note = Q;
unicode = 81;
},
{
glyphname = R;
lastChange = "2022-11-29 13:08:13 +0000";
layers = (
{
hints = (
{
horizontal = 1;
place = (-56, 21);
target = up;
type = BottomGhost;
},
{
horizontal = 1;
place = (206, 74);
place = (206, 74);
type = Stem;
},
{
horizontal = 1;
place = (494, 84);
place = (494, 84);
type = Stem;
},
{
place = (24, 124);
place = (24, 124);
type = Stem;
},
{
place = (405, 132);
place = (405, 132);
type = Stem;
}
);
layerId = m01;
shapes = (
{
closed = 1;
nodes = (
(605,251,o),
(590,304,o),
(524,330,c),
(622,357,o),
(681,415,o),
(699,502,cs),
(725,624,o),
(649,673,o),
(551,685,cs),
(515,689,o),
(487,690,o),
(444,690,cs),
(170,690,l),
(24,0,l),
(204,0,l),
(259,262,l),
(299,262,ls),
(319,262,o),
(336,262,o),
(356,261,cs),
(402,258,o),
(422,214,o),
(415,138,cs),
(411,89,o),
(412,49,o),
(418,0,c),
(614,0,l),
(595,41,o),
(590,90,o),
(597,168,cs)
);
},
{
closed = 1;
nodes = (
(287,392,l),
(321,550,l),
(391,550,ls),
(410,550,o),
(426,550,o),
(438,549,cs),
(484,545,o),
(517,529,o),
(505,471,cs),
(492,413,o),
(447,397,o),
(400,393,cs),
(387,392,o),
(371,392,o),
(352,392,cs)
);
}
);
width = 682;
}
);
note = R;
unicode = 82;
},
{
glyphname = Racute;
lastChange = "2022-11-29 13:08:13 +0000";
layers = (
{
hints = (
{
horizontal = 1;
place = (-56, 21);
target = up;
type = BottomGhost;
},
{
horizontal = 1;
place = (206, 74);
place = (206, 74);
type = Stem;
},
{
horizontal = 1;
place = (494, 84);
place = (494, 84);
type = Stem;
},
{
horizontal = 1;
place = (679, 69);
place = (679, 69);
type = Stem;
},
{
place = (24, 124);
place = (24, 124);
type = Stem;
},
{
place = (405, 132);
place = (405, 132);
type = Stem;
}
);
layerId = m01;
shapes = (
{
closed = 1;
nodes = (
(502,735,l),
(683,860,l),
(523,860,l),
(406,735,l)
);
},
{
closed = 1;
nodes = (
(605,251,o),
(590,304,o),
(524,330,c),
(622,357,o),
(681,415,o),
(699,502,cs),
(725,624,o),
(649,673,o),
(551,685,cs),
(515,689,o),
(487,690,o),
(444,690,cs),
(170,690,l),
(24,0,l),
(204,0,l),
(259,262,l),
(299,262,ls),
(319,262,o),
(336,262,o),
(356,261,cs),
(402,258,o),
(422,214,o),
(415,138,cs),
(411,89,o),
(412,49,o),
(418,0,c),
(614,0,l),
(595,41,o),
(590,90,o),
(597,168,cs)
);
},
{
closed = 1;
nodes = (
(287,392,l),
(321,550,l),
(391,550,ls),
(410,550,o),
(426,550,o),
(438,549,cs),
(484,545,o),
(517,529,o),
(505,471,cs),
(492,413,o),
(447,397,o),
(400,393,cs),
(387,392,o),
(371,392,o),
(352,392,cs)
);
}
);
width = 682;
}
);
note = Racute;
unicode = 340;
},
{
glyphname = Rcaron;
lastChange = "2022-11-29 13:08:13 +0000";
layers = (
{
hints = (
{
horizontal = 1;
place = (-56, 21);
target = up;
type = BottomGhost;
},
{
horizontal = 1;
place = (206, 74);
place = (206, 74);
type = Stem;
},
{
horizontal = 1;
place = (494, 84);
place = (494, 84);
type = Stem;
},
{
horizontal = 1;
place = (679, 69);
place = (679, 69);
type = Stem;
},
{
place = (24, 124);
place = (24, 124);
type = Stem;
},
{
place = (405, 132);
place = (405, 132);
type = Stem;
}
);
layerId = m01;
shapes = (
{
closed = 1;
nodes = (
(386,735,l),
(535,735,l),
(623,860,l),
(520,860,l),
(472,784,l),
(454,860,l),
(350,860,l)
);
},
{
closed = 1;
nodes = (
(605,251,o),
(590,304,o),
(524,330,c),
(622,357,o),
(681,415,o),
(699,502,cs),
(725,624,o),
(649,673,o),
(551,685,cs),
(515,689,o),
(487,690,o),
(444,690,cs),
(170,690,l),
(24,0,l),
(204,0,l),
(259,262,l),
(299,262,ls),
(319,262,o),
(336,262,o),
(356,261,cs),
(402,258,o),
(422,214,o),
(415,138,cs),
(411,89,o),
(412,49,o),
(418,0,c),
(614,0,l),
(595,41,o),
(590,90,o),
(597,168,cs)
);
},
{
closed = 1;
nodes = (
(287,392,l),
(321,550,l),
(391,550,ls),
(410,550,o),
(426,550,o),
(438,549,cs),
(484,545,o),
(517,529,o),
(505,471,cs),
(492,413,o),
(447,397,o),
(400,393,cs),
(387,392,o),
(371,392,o),
(352,392,cs)
);
}
);
width = 682;
}
);
note = Rcaron;
unicode = 344;
},
{
glyphname = Rcommaaccent;
lastChange = "2022-11-29 13:08:13 +0000";
layers = (
{
hints = (
{
horizontal = 1;
place = (-272, 123);
place = (-272, 123);
type = Stem;
},
{
horizontal = 1;
place = (-56, 21);
target = up;
type = BottomGhost;
},
{
horizontal = 1;
place = (206, 74);
place = (206, 74);
type = Stem;
},
{
horizontal = 1;
place = (494, 84);
place = (494, 84);
type = Stem;
},
{
place = (24, 124);
place = (24, 124);
type = Stem;
},
{
place = (405, 132);
place = (405, 132);
type = Stem;
}
);
layerId = m01;
shapes = (
{
closed = 1;
nodes = (
(605,251,o),
(590,304,o),
(524,330,c),
(622,357,o),
(681,415,o),
(699,502,cs),
(725,624,o),
(649,673,o),
(551,685,cs),
(515,689,o),
(487,690,o),
(444,690,cs),
(170,690,l),
(24,0,l),
(204,0,l),
(259,262,l),
(299,262,ls),
(319,262,o),
(336,262,o),
(356,261,cs),
(402,258,o),
(422,214,o),
(415,138,cs),
(411,89,o),
(412,49,o),
(418,0,c),
(614,0,l),
(595,41,o),
(590,90,o),
(597,168,cs)
);
},
{
closed = 1;
nodes = (
(287,392,l),
(321,550,l),
(391,550,ls),
(410,550,o),
(426,550,o),
(438,549,cs),
(484,545,o),
(517,529,o),
(505,471,cs),
(492,413,o),
(447,397,o),
(400,393,cs),
(387,392,o),
(371,392,o),
(352,392,cs)
);
},
{
closed = 1;
nodes = (
(249,-37,l),
(127,-216,l),
(224,-216,l),
(361,-47,l),
(363,-37,l)
);
}
);
width = 682;
}
);
note = Rcommaaccent;
unicode = 342;
},
{
glyphname = S;
kernLeft = S;
kernRight = S;
lastChange = "2022-11-29 13:08:13 +0000";
layers = (
{
hints = (
{
horizontal = 1;
place = (-70, 76);
place = (-70, 76);
type = Stem;
},
{
horizontal = 1;
place = (516, 76);
place = (516, 76);
type = Stem;
},
{
place = (5, 132);
place = (5, 132);
type = Stem;
},
{
place = (365, 132);
place = (365, 132);
type = Stem;
}
);
layerId = m01;
shapes = (
{
closed = 1;
nodes = (
(278,704,o),
(138,629,o),
(110,496,cs),
(81,358,o),
(162,309,o),
(311,270,cs),
(392,249,o),
(411,218,o),
(403,182,cs),
(395,144,o),
(352,118,o),
(302,118,cs),
(248,118,o),
(201,146,o),
(203,211,c),
(23,211,l),
(1,56,o),
(104,-14,o),
(279,-14,cs),
(418,-14,o),
(565,56,o),
(594,194,cs),
(616,300,o),
(571,376,o),
(426,412,cs),
(318,439,o),
(292,466,o),
(301,510,cs),
(310,552,o),
(342,572,o),
(383,572,cs),
(442,572,o),
(464,534,o),
(460,477,c),
(640,477,l),
(652,605,o),
(597,704,o),
(415,704,cs)
);
}
);
width = 626;
}
);
note = S;
unicode = 83;
},
{
glyphname = Sacute;
kernLeft = S;
kernRight = S;
lastChange = "2022-11-29 13:08:13 +0000";
layers = (
{
hints = (
{
horizontal = 1;
place = (-70, 76);
place = (-70, 76);
type = Stem;
},
{
horizontal = 1;
place = (516, 76);
place = (516, 76);
type = Stem;
},
{
horizontal = 1;
place = (679, 69);
place = (679, 69);
type = Stem;
},
{
place = (5, 132);
place = (5, 132);
type = Stem;
},
{
place = (365, 132);
place = (365, 132);
type = Stem;
}
);
layerId = m01;
shapes = (
{
closed = 1;
nodes = (
(468,735,l),
(649,860,l),
(489,860,l),
(372,735,l)
);
},
{
closed = 1;
nodes = (
(278,704,o),
(138,629,o),
(110,496,cs),
(81,358,o),
(162,309,o),
(311,270,cs),
(392,249,o),
(411,218,o),
(403,182,cs),
(395,144,o),
(352,118,o),
(302,118,cs),
(248,118,o),
(201,146,o),
(203,211,c),
(23,211,l),
(1,56,o),
(104,-14,o),
(279,-14,cs),
(418,-14,o),
(565,56,o),
(594,194,cs),
(616,300,o),
(571,376,o),
(426,412,cs),
(318,439,o),
(292,466,o),
(301,510,cs),
(310,552,o),
(342,572,o),
(383,572,cs),
(442,572,o),
(464,534,o),
(460,477,c),
(640,477,l),
(652,605,o),
(597,704,o),
(415,704,cs)
);
}
);
width = 626;
}
);
note = Sacute;
unicode = 346;
},
{
glyphname = Scaron;
kernLeft = S;
kernRight = S;
lastChange = "2022-11-29 13:08:13 +0000";
layers = (
{
hints = (
{
horizontal = 1;
place = (-70, 76);
place = (-70, 76);
type = Stem;
},
{
horizontal = 1;
place = (516, 76);
place = (516, 76);
type = Stem;
},
{
horizontal = 1;
place = (679, 69);
place = (679, 69);
type = Stem;
},
{
place = (5, 132);
place = (5, 132);
type = Stem;
},
{
place = (365, 132);
place = (365, 132);
type = Stem;
}
);
layerId = m01;
shapes = (
{
closed = 1;
nodes = (
(352,735,l),
(501,735,l),
(589,860,l),
(486,860,l),
(438,784,l),
(420,860,l),
(316,860,l)
);
},
{
closed = 1;
nodes = (
(318,439,o),
(292,466,o),
(301,510,cs),
(310,552,o),
(342,572,o),
(383,572,cs),
(442,572,o),
(464,534,o),
(460,477,c),
(640,477,l),
(652,605,o),
(597,704,o),
(415,704,cs),
(278,704,o),
(138,629,o),
(110,496,cs),
(81,358,o),
(162,309,o),
(311,270,cs),
(392,249,o),
(411,218,o),
(403,182,cs),
(395,144,o),
(352,118,o),
(302,118,cs),
(248,118,o),
(201,146,o),
(203,211,c),
(23,211,l),
(1,56,o),
(104,-14,o),
(279,-14,cs),
(418,-14,o),
(565,56,o),
(594,194,cs),
(616,300,o),
(571,376,o),
(426,412,cs)
);
}
);
width = 626;
}
);
note = Scaron;
unicode = 352;
},
{
glyphname = Scedilla;
kernLeft = S;
kernRight = S;
lastChange = "2022-11-29 13:08:13 +0000";
layers = (
{
hints = (
{
horizontal = 1;
place = (-266, 13);
place = (-266, 13);
type = Stem;
},
{
horizontal = 1;
place = (-65, 21);
target = up;
type = BottomGhost;
},
{
horizontal = 1;
place = (516, 76);
place = (516, 76);
type = Stem;
},
{
place = (5, 132);
place = (5, 132);
type = Stem;
},
{
place = (365, 132);
place = (365, 132);
type = Stem;
},
{
place = (262, 52);
place = (262, 52);
type = Stem;
}
);
layerId = m01;
shapes = (
{
closed = 1;
nodes = (
(616,300,o),
(571,376,o),
(426,412,cs),
(318,439,o),
(292,466,o),
(301,510,cs),
(310,552,o),
(342,572,o),
(383,572,cs),
(442,572,o),
(464,534,o),
(460,477,c),
(640,477,l),
(652,605,o),
(597,704,o),
(415,704,cs),
(278,704,o),
(138,629,o),
(110,496,cs),
(81,358,o),
(162,309,o),
(311,270,cs),
(392,249,o),
(411,218,o),
(403,182,cs),
(395,144,o),
(352,118,o),
(302,118,cs),
(248,118,o),
(201,146,o),
(203,211,c),
(23,211,l),
(4,81,o),
(74,10,o),
(201,-9,c),
(146,-88,l),
(222,-83,o),
(242,-94,o),
(237,-114,cs),
(234,-132,o),
(215,-141,o),
(172,-141,cs),
(159,-141,o),
(139,-140,o),
(115,-134,c),
(100,-204,l),
(118,-209,o),
(136,-210,o),
(156,-210,cs),
(248,-210,o),
(330,-188,o),
(344,-119,cs),
(354,-74,o),
(327,-49,o),
(266,-42,c),
(286,-14,l),
(422,-12,o),
(565,58,o),
(594,194,cs)
);
}
);
width = 626;
}
);
note = Scedilla;
unicode = 350;
},
{
glyphname = Scommaaccent;
kernLeft = S;
kernRight = S;
lastChange = "2022-11-29 13:08:13 +0000";
layers = (
{
hints = (
{
horizontal = 1;
place = (-70, 76);
place = (-70, 76);
type = Stem;
},
{
horizontal = 1;
place = (516, 76);
place = (516, 76);
type = Stem;
},
{
place = (5, 132);
place = (5, 132);
type = Stem;
},
{
place = (365, 132);
place = (365, 132);
type = Stem;
},
{
horizontal = 1;
place = (-272, 123);
place = (-272, 123);
type = Stem;
}
);
layerId = m01;
shapes = (
{
closed = 1;
nodes = (
(278,704,o),
(138,629,o),
(110,496,cs),
(81,358,o),
(162,309,o),
(311,270,cs),
(392,249,o),
(411,218,o),
(403,182,cs),
(395,144,o),
(352,118,o),
(302,118,cs),
(248,118,o),
(201,146,o),
(203,211,c),
(23,211,l),
(1,56,o),
(104,-14,o),
(279,-14,cs),
(418,-14,o),
(565,56,o),
(594,194,cs),
(616,300,o),
(571,376,o),
(426,412,cs),
(318,439,o),
(292,466,o),
(301,510,cs),
(310,552,o),
(342,572,o),
(383,572,cs),
(442,572,o),
(464,534,o),
(460,477,c),
(640,477,l),
(652,605,o),
(597,704,o),
(415,704,cs)
);
},
{
closed = 1;
nodes = (
(320,-47,l),
(322,-37,l),
(208,-37,l),
(86,-216,l),
(183,-216,l)
);
}
);
width = 626;
}
);
note = Scommaaccent;
unicode = 536;
},
{
glyphname = T;
kernLeft = T;
kernRight = T;
lastChange = "2022-11-29 13:08:13 +0000";
layers = (
{
hints = (
{
horizontal = 1;
place = (-56, 21);
target = up;
type = BottomGhost;
},
{
horizontal = 1;
place = (494, 84);
place = (494, 84);
type = Stem;
},
{
place = (182, 124);
place = (182, 124);
type = Stem;
}
);
layerId = m01;
shapes = (
{
closed = 1;
nodes = (
(703,550,l),
(732,690,l),
(104,690,l),
(75,550,l),
(299,550,l),
(182,0,l),
(362,0,l),
(479,550,l)
);
}
);
width = 632;
}
);
note = T;
unicode = 84;
},
{
glyphname = Tbar;
kernLeft = T;
kernRight = T;
lastChange = "2022-11-29 13:08:13 +0000";
layers = (
{
hints = (
{
horizontal = 1;
place = (-56, 21);
target = up;
type = BottomGhost;
},
{
horizontal = 1;
place = (237, 40);
place = (237, 40);
type = Stem;
},
{
horizontal = 1;
place = (494, 84);
place = (494, 84);
type = Stem;
},
{
place = (182, 124);
place = (182, 124);
type = Stem;
}
);
layerId = m01;
shapes = (
{
closed = 1;
nodes = (
(479,550,l),
(703,550,l),
(732,690,l),
(104,690,l),
(75,550,l),
(299,550,l),
(264,389,l),
(174,389,l),
(154,293,l),
(244,293,l),
(182,0,l),
(362,0,l),
(424,293,l),
(514,293,l),
(534,389,l),
(444,389,l)
);
}
);
width = 632;
}
);
note = Tbar;
unicode = 358;
},
{
glyphname = Tcaron;
kernLeft = T;
kernRight = T;
lastChange = "2022-11-29 13:08:13 +0000";
layers = (
{
hints = (
{
horizontal = 1;
place = (-56, 21);
target = up;
type = BottomGhost;
},
{
horizontal = 1;
place = (494, 84);
place = (494, 84);
type = Stem;
},
{
horizontal = 1;
place = (679, 69);
place = (679, 69);
type = Stem;
},
{
place = (182, 124);
place = (182, 124);
type = Stem;
}
);
layerId = m01;
shapes = (
{
closed = 1;
nodes = (
(354,735,l),
(503,735,l),
(591,860,l),
(488,860,l),
(440,784,l),
(422,860,l),
(318,860,l)
);
},
{
closed = 1;
nodes = (
(703,550,l),
(732,690,l),
(104,690,l),
(75,550,l),
(299,550,l),
(182,0,l),
(362,0,l),
(479,550,l)
);
}
);
width = 632;
}
);
note = Tcaron;
unicode = 356;
},
{
glyphname = Tcedilla;
kernLeft = T;
kernRight = T;
lastChange = "2022-11-29 13:08:13 +0000";
layers = (
{
hints = (
{
horizontal = 1;
place = (-266, 13);
place = (-266, 13);
type = Stem;
},
{
horizontal = 1;
place = (-56, 21);
target = up;
type = BottomGhost;
},
{
horizontal = 1;
place = (494, 84);
place = (494, 84);
type = Stem;
},
{
place = (182, 124);
place = (182, 124);
type = Stem;
},
{
place = (278, 52);
place = (278, 52);
type = Stem;
}
);
layerId = m01;
shapes = (
{
closed = 1;
nodes = (
(311,0,l),
(362,0,l),
(479,550,l),
(703,550,l),
(732,690,l),
(104,690,l),
(75,550,l),
(299,550,l),
(182,0,l),
(224,0,l),
(162,-88,l),
(238,-83,o),
(258,-94,o),
(253,-114,cs),
(250,-132,o),
(231,-141,o),
(188,-141,cs),
(175,-141,o),
(155,-140,o),
(131,-134,c),
(116,-204,l),
(134,-209,o),
(152,-210,o),
(172,-210,cs),
(264,-210,o),
(346,-188,o),
(360,-119,cs),
(370,-74,o),
(343,-49,o),
(282,-42,c)
);
}
);
width = 632;
}
);
note = Tcedilla;
unicode = 354;
},
{
glyphname = uni021A;
kernLeft = T;
kernRight = T;
lastChange = "2022-11-29 13:08:13 +0000";
layers = (
{
hints = (
{
horizontal = 1;
place = (-272, 123);
place = (-272, 123);
type = Stem;
},
{
horizontal = 1;
place = (-56, 21);
target = up;
type = BottomGhost;
},
{
horizontal = 1;
place = (494, 84);
place = (494, 84);
type = Stem;
},
{
place = (182, 124);
place = (182, 124);
type = Stem;
}
);
layerId = m01;
shapes = (
{
closed = 1;
nodes = (
(703,550,l),
(732,690,l),
(104,690,l),
(75,550,l),
(299,550,l),
(182,0,l),
(362,0,l),
(479,550,l)
);
},
{
closed = 1;
nodes = (
(224,-37,l),
(102,-216,l),
(199,-216,l),
(336,-47,l),
(338,-37,l)
);
}
);
width = 632;
}
);
note = uni021A;
unicode = 538;
},
{
glyphname = U;
kernLeft = U;
kernRight = U;
lastChange = "2022-11-29 13:08:13 +0000";
layers = (
{
hints = (
{
horizontal = 1;
place = (-70, 76);
place = (-70, 76);
type = Stem;
},
{
horizontal = 1;
place = (634, -20);
target = down;
type = TopGhost;
},
{
place = (12, 124);
place = (12, 124);
type = Stem;
},
{
place = (444, 124);
place = (444, 124);
type = Stem;
}
);
layerId = m01;
shapes = (
{
closed = 1;
nodes = (
(770,690,l),
(590,690,l),
(501,270,ls),
(497,251,o),
(495,241,o),
(491,229,cs),
(471,157,o),
(422,118,o),
(343,118,cs),
(264,118,o),
(231,157,o),
(241,229,cs),
(243,241,o),
(245,251,o),
(249,270,cs),
(338,690,l),
(158,690,l),
(76,303,ls),
(69,268,o),
(64,247,o),
(58,206,cs),
(42,90,o),
(102,-14,o),
(315,-14,cs),
(528,-14,o),
(632,90,o),
(664,206,cs),
(676,247,o),
(681,268,o),
(688,303,cs)
);
}
);
width = 718;
}
);
note = U;
unicode = 85;
},
{
glyphname = Uacute;
kernLeft = U;
kernRight = U;
lastChange = "2022-11-29 13:08:13 +0000";
layers = (
{
hints = (
{
horizontal = 1;
place = (-70, 76);
place = (-70, 76);
type = Stem;
},
{
horizontal = 1;
place = (634, -20);
target = down;
type = TopGhost;
},
{
horizontal = 1;
place = (679, 69);
place = (679, 69);
type = Stem;
},
{
place = (12, 124);
place = (12, 124);
type = Stem;
},
{
place = (444, 124);
place = (444, 124);
type = Stem;
}
);
layerId = m01;
shapes = (
{
closed = 1;
nodes = (
(516,735,l),
(697,860,l),
(537,860,l),
(420,735,l)
);
},
{
closed = 1;
nodes = (
(770,690,l),
(590,690,l),
(501,270,ls),
(497,251,o),
(495,241,o),
(491,229,cs),
(471,157,o),
(422,118,o),
(343,118,cs),
(264,118,o),
(231,157,o),
(241,229,cs),
(243,241,o),
(245,251,o),
(249,270,cs),
(338,690,l),
(158,690,l),
(76,303,ls),
(69,268,o),
(64,247,o),
(58,206,cs),
(42,90,o),
(102,-14,o),
(315,-14,cs),
(528,-14,o),
(632,90,o),
(664,206,cs),
(676,247,o),
(681,268,o),
(688,303,cs)
);
}
);
width = 718;
}
);
note = Uacute;
unicode = 218;
},
{
glyphname = Ucircumflex;
kernLeft = U;
kernRight = U;
lastChange = "2022-11-29 13:08:13 +0000";
layers = (
{
hints = (
{
horizontal = 1;
place = (-70, 76);
place = (-70, 76);
type = Stem;
},
{
horizontal = 1;
place = (634, -20);
target = down;
type = TopGhost;
},
{
horizontal = 1;
place = (679, 69);
place = (679, 69);
type = Stem;
},
{
place = (12, 124);
place = (12, 124);
type = Stem;
},
{
place = (444, 124);
place = (444, 124);
type = Stem;
}
);
layerId = m01;
shapes = (
{
closed = 1;
nodes = (
(441,735,l),
(489,811,l),
(507,735,l),
(611,735,l),
(575,860,l),
(426,860,l),
(338,735,l)
);
},
{
closed = 1;
nodes = (
(770,690,l),
(590,690,l),
(501,270,ls),
(497,251,o),
(495,241,o),
(491,229,cs),
(471,157,o),
(422,118,o),
(343,118,cs),
(264,118,o),
(231,157,o),
(241,229,cs),
(243,241,o),
(245,251,o),
(249,270,cs),
(338,690,l),
(158,690,l),
(76,303,ls),
(69,268,o),
(64,247,o),
(58,206,cs),
(42,90,o),
(102,-14,o),
(315,-14,cs),
(528,-14,o),
(632,90,o),
(664,206,cs),
(676,247,o),
(681,268,o),
(688,303,cs)
);
}
);
width = 718;
}
);
note = Ucircumflex;
unicode = 219;
},
{
glyphname = Udieresis;
kernLeft = U;
kernRight = U;
lastChange = "2022-11-29 13:08:13 +0000";
layers = (
{
hints = (
{
horizontal = 1;
place = (-70, 76);
place = (-70, 76);
type = Stem;
},
{
horizontal = 1;
place = (634, -20);
target = down;
type = TopGhost;
},
{
horizontal = 1;
place = (666, 90);
place = (666, 90);
type = Stem;
},
{
place = (12, 124);
place = (12, 124);
type = Stem;
},
{
place = (444, 124);
place = (444, 124);
type = Stem;
},
{
place = (143, 94);
place = (143, 94);
type = Stem;
},
{
place = (343, 94);
place = (343, 94);
type = Stem;
}
);
layerId = m01;
shapes = (
{
closed = 1;
nodes = (
(770,690,l),
(590,690,l),
(501,270,ls),
(497,251,o),
(495,241,o),
(491,229,cs),
(471,157,o),
(422,118,o),
(343,118,cs),
(264,118,o),
(231,157,o),
(241,229,cs),
(243,241,o),
(245,251,o),
(249,270,cs),
(338,690,l),
(158,690,l),
(76,303,ls),
(69,268,o),
(64,247,o),
(58,206,cs),
(42,90,o),
(102,-14,o),
(315,-14,cs),
(528,-14,o),
(632,90,o),
(664,206,cs),
(676,247,o),
(681,268,o),
(688,303,cs)
);
},
{
closed = 1;
nodes = (
(295,723,l),
(445,723,l),
(476,870,l),
(326,870,l)
);
},
{
closed = 1;
nodes = (
(496,723,l),
(646,723,l),
(677,870,l),
(527,870,l)
);
}
);
width = 718;
}
);
note = Udieresis;
unicode = 220;
},
{
glyphname = Ugrave;
kernLeft = U;
kernRight = U;
lastChange = "2022-11-29 13:08:13 +0000";
layers = (
{
hints = (
{
horizontal = 1;
place = (-70, 76);
place = (-70, 76);
type = Stem;
},
{
horizontal = 1;
place = (634, -20);
target = down;
type = TopGhost;
},
{
horizontal = 1;
place = (679, 69);
place = (679, 69);
type = Stem;
},
{
place = (12, 124);
place = (12, 124);
type = Stem;
},
{
place = (444, 124);
place = (444, 124);
type = Stem;
}
);
layerId = m01;
shapes = (
{
closed = 1;
nodes = (
(535,735,l),
(470,860,l),
(310,860,l),
(439,735,l)
);
},
{
closed = 1;
nodes = (
(770,690,l),
(590,690,l),
(501,270,ls),
(497,251,o),
(495,241,o),
(491,229,cs),
(471,157,o),
(422,118,o),
(343,118,cs),
(264,118,o),
(231,157,o),
(241,229,cs),
(243,241,o),
(245,251,o),
(249,270,cs),
(338,690,l),
(158,690,l),
(76,303,ls),
(69,268,o),
(64,247,o),
(58,206,cs),
(42,90,o),
(102,-14,o),
(315,-14,cs),
(528,-14,o),
(632,90,o),
(664,206,cs),
(676,247,o),
(681,268,o),
(688,303,cs)
);
}
);
width = 718;
}
);
note = Ugrave;
unicode = 217;
},
{
glyphname = Uhungarumlaut;
kernLeft = U;
kernRight = U;
lastChange = "2022-11-29 13:08:13 +0000";
layers = (
{
hints = (
{
horizontal = 1;
place = (-70, 76);
place = (-70, 76);
type = Stem;
},
{
horizontal = 1;
place = (634, -20);
target = down;
type = TopGhost;
},
{
horizontal = 1;
place = (680, 69);
place = (680, 69);
type = Stem;
},
{
place = (12, 124);
place = (12, 124);
type = Stem;
},
{
place = (444, 124);
place = (444, 124);
type = Stem;
}
);
layerId = m01;
shapes = (
{
closed = 1;
nodes = (
(393,736,l),
(575,861,l),
(415,861,l),
(297,736,l)
);
},
{
closed = 1;
nodes = (
(594,736,l),
(776,861,l),
(616,861,l),
(498,736,l)
);
},
{
closed = 1;
nodes = (
(770,690,l),
(590,690,l),
(501,270,ls),
(497,251,o),
(495,241,o),
(491,229,cs),
(471,157,o),
(422,118,o),
(343,118,cs),
(264,118,o),
(231,157,o),
(241,229,cs),
(243,241,o),
(245,251,o),
(249,270,cs),
(338,690,l),
(158,690,l),
(76,303,ls),
(69,268,o),
(64,247,o),
(58,206,cs),
(42,90,o),
(102,-14,o),
(315,-14,cs),
(528,-14,o),
(632,90,o),
(664,206,cs),
(676,247,o),
(681,268,o),
(688,303,cs)
);
}
);
width = 718;
}
);
note = Uhungarumlaut;
unicode = 368;
},
{
glyphname = Umacron;
kernLeft = U;
kernRight = U;
lastChange = "2022-11-29 13:08:13 +0000";
layers = (
{
hints = (
{
horizontal = 1;
place = (-70, 76);
place = (-70, 76);
type = Stem;
},
{
horizontal = 1;
place = (634, -20);
target = down;
type = TopGhost;
},
{
horizontal = 1;
place = (704, 40);
place = (704, 40);
type = Stem;
},
{
place = (12, 124);
place = (12, 124);
type = Stem;
},
{
place = (444, 124);
place = (444, 124);
type = Stem;
}
);
layerId = m01;
shapes = (
{
closed = 1;
nodes = (
(629,760,l),
(650,856,l),
(350,856,l),
(329,760,l)
);
},
{
closed = 1;
nodes = (
(770,690,l),
(590,690,l),
(501,270,ls),
(497,251,o),
(495,241,o),
(491,229,cs),
(471,157,o),
(422,118,o),
(343,118,cs),
(264,118,o),
(231,157,o),
(241,229,cs),
(243,241,o),
(245,251,o),
(249,270,cs),
(338,690,l),
(158,690,l),
(76,303,ls),
(69,268,o),
(64,247,o),
(58,206,cs),
(42,90,o),
(102,-14,o),
(315,-14,cs),
(528,-14,o),
(632,90,o),
(664,206,cs),
(676,247,o),
(681,268,o),
(688,303,cs)
);
}
);
width = 718;
}
);
note = Umacron;
unicode = 362;
},
{
glyphname = Uogonek;
kernLeft = U;
kernRight = U;
lastChange = "2022-11-29 13:08:13 +0000";
layers = (
{
hints = (
{
horizontal = 1;
place = (-59, 21);
target = up;
type = BottomGhost;
},
{
horizontal = 1;
place = (634, -20);
target = down;
type = TopGhost;
},
{
place = (12, 124);
place = (12, 124);
type = Stem;
},
{
place = (444, 124);
place = (444, 124);
type = Stem;
},
{
horizontal = 1;
place = (-69, 75);
place = (-69, 75);
type = Stem;
},
{
horizontal = 1;
place = (-279, 46);
place = (-279, 46);
type = Stem;
},
{
place = (231, 193);
place = (231, 193);
type = Stem;
}
);
layerId = m01;
shapes = (
{
closed = 1;
nodes = (
(770,690,l),
(590,690,l),
(501,270,ls),
(497,251,o),
(495,241,o),
(491,229,cs),
(471,157,o),
(422,118,o),
(343,118,cs),
(264,118,o),
(231,157,o),
(241,229,cs),
(243,241,o),
(245,251,o),
(249,270,cs),
(338,690,l),
(158,690,l),
(76,303,ls),
(69,268,o),
(64,247,o),
(58,206,cs),
(43,95,o),
(97,-5,o),
(288,-13,c),
(248,-43,o),
(212,-89,o),
(202,-137,cs),
(188,-201,o),
(231,-223,o),
(297,-223,cs),
(361,-223,o),
(408,-202,o),
(443,-173,c),
(458,-100,l),
(439,-115,o),
(424,-121,o),
(410,-121,cs),
(390,-121,o),
(372,-108,o),
(380,-70,cs),
(386,-39,o),
(405,-12,o),
(426,-3,c),
(430,-2,o),
(434,-1,o),
(440,0,cs),
(569,32,o),
(639,115,o),
(664,206,cs),
(676,247,o),
(681,268,o),
(688,303,cs)
);
}
);
width = 718;
}
);
note = Uogonek;
unicode = 370;
},
{
glyphname = Uring;
kernLeft = U;
kernRight = U;
lastChange = "2022-11-29 13:08:13 +0000";
layers = (
{
hints = (
{
horizontal = 1;
place = (-70, 76);
place = (-70, 76);
type = Stem;
},
{
horizontal = 1;
place = (634, -20);
target = down;
type = TopGhost;
},
{
horizontal = 1;
place = (666, 10);
place = (666, 10);
type = Stem;
},
{
horizontal = 1;
place = (810, 10);
place = (810, 10);
type = Stem;
},
{
place = (199, 27);
place = (199, 27);
type = Stem;
},
{
place = (354, 27);
place = (354, 27);
type = Stem;
},
{
place = (12, 124);
place = (12, 124);
type = Stem;
},
{
place = (444, 124);
place = (444, 124);
type = Stem;
}
);
layerId = m01;
shapes = (
{
closed = 1;
nodes = (
(446,932,o),
(388,889,o),
(374,827,cs),
(361,765,o),
(401,722,o),
(471,722,cs),
(541,722,o),
(599,765,o),
(612,827,cs),
(626,889,o),
(586,932,o),
(516,932,cs)
);
},
{
closed = 1;
nodes = (
(523,866,o),
(534,850,o),
(529,827,cs),
(525,804,o),
(506,788,o),
(485,788,cs),
(464,788,o),
(453,804,o),
(457,827,cs),
(462,850,o),
(481,866,o),
(502,866,cs)
);
},
{
closed = 1;
nodes = (
(770,690,l),
(590,690,l),
(501,270,ls),
(497,251,o),
(495,241,o),
(491,229,cs),
(471,157,o),
(422,118,o),
(343,118,cs),
(264,118,o),
(231,157,o),
(241,229,cs),
(243,241,o),
(245,251,o),
(249,270,cs),
(338,690,l),
(158,690,l),
(76,303,ls),
(69,268,o),
(64,247,o),
(58,206,cs),
(42,90,o),
(102,-14,o),
(315,-14,cs),
(528,-14,o),
(632,90,o),
(664,206,cs),
(676,247,o),
(681,268,o),
(688,303,cs)
);
}
);
width = 718;
}
);
note = Uring;
unicode = 366;
},
{
glyphname = V;
kernLeft = V;
kernRight = V;
lastChange = "2022-11-29 13:08:13 +0000";
layers = (
{
hints = (
{
horizontal = 1;
place = (-56, 21);
target = up;
type = BottomGhost;
},
{
horizontal = 1;
place = (634, -20);
target = down;
type = TopGhost;
},
{
place = (-24, 662);
place = (-24, 662);
type = Stem;
},
{
horizontal = 1;
place = (-56, 83);
place = (-56, 83);
type = Stem;
}
);
layerId = m01;
shapes = (
{
closed = 1;
nodes = (
(445,0,l),
(840,690,l),
(649,690,l),
(366,139,l),
(318,690,l),
(122,690,l),
(225,0,l)
);
}
);
width = 742;
}
);
note = V;
unicode = 86;
},
{
glyphname = W;
kernLeft = W;
kernRight = W;
lastChange = "2022-11-29 13:08:13 +0000";
layers = (
{
hints = (
{
horizontal = 1;
place = (-56, 21);
target = up;
type = BottomGhost;
},
{
horizontal = 1;
place = (634, -20);
target = down;
type = TopGhost;
},
{
place = (-30, 947);
place = (-30, 947);
type = Stem;
},
{
horizontal = 1;
place = (-56, 82);
place = (-56, 82);
type = Stem;
}
);
layerId = m01;
shapes = (
{
closed = 1;
nodes = (
(1119,690,l),
(935,690,l),
(718,138,l),
(746,680,l),
(488,680,l),
(282,140,l),
(307,690,l),
(116,690,l),
(136,0,l),
(377,0,l),
(584,537,l),
(557,0,l),
(797,0,l)
);
}
);
width = 1016;
}
);
note = W;
unicode = 87;
},
{
glyphname = Wacute;
kernLeft = W;
kernRight = W;
lastChange = "2022-11-29 13:08:13 +0000";
layers = (
{
hints = (
{
horizontal = 1;
place = (-56, 21);
target = up;
type = BottomGhost;
},
{
horizontal = 1;
place = (634, -20);
target = down;
type = TopGhost;
},
{
horizontal = 1;
place = (679, 69);
place = (679, 69);
type = Stem;
},
{
place = (-30, 947);
place = (-30, 947);
type = Stem;
},
{
horizontal = 1;
place = (-56, 82);
place = (-56, 82);
type = Stem;
}
);
layerId = m01;
shapes = (
{
closed = 1;
nodes = (
(670,735,l),
(851,860,l),
(691,860,l),
(574,735,l)
);
},
{
closed = 1;
nodes = (
(1119,690,l),
(935,690,l),
(718,138,l),
(746,680,l),
(488,680,l),
(282,140,l),
(307,690,l),
(116,690,l),
(136,0,l),
(377,0,l),
(584,537,l),
(557,0,l),
(797,0,l)
);
}
);
width = 1016;
}
);
note = Wacute;
unicode = 7810;
},
{
glyphname = Wcircumflex;
kernLeft = W;
kernRight = W;
lastChange = "2022-11-29 13:08:13 +0000";
layers = (
{
hints = (
{
horizontal = 1;
place = (-56, 21);
target = up;
type = BottomGhost;
},
{
horizontal = 1;
place = (634, -20);
target = down;
type = TopGhost;
},
{
horizontal = 1;
place = (679, 69);
place = (679, 69);
type = Stem;
},
{
place = (-30, 947);
place = (-30, 947);
type = Stem;
},
{
horizontal = 1;
place = (-56, 82);
place = (-56, 82);
type = Stem;
}
);
layerId = m01;
shapes = (
{
closed = 1;
nodes = (
(595,735,l),
(643,811,l),
(661,735,l),
(765,735,l),
(729,860,l),
(580,860,l),
(492,735,l)
);
},
{
closed = 1;
nodes = (
(1119,690,l),
(935,690,l),
(718,138,l),
(746,680,l),
(488,680,l),
(282,140,l),
(307,690,l),
(116,690,l),
(136,0,l),
(377,0,l),
(584,537,l),
(557,0,l),
(797,0,l)
);
}
);
width = 1016;
}
);
note = Wcircumflex;
unicode = 372;
},
{
glyphname = Wdieresis;
kernLeft = W;
kernRight = W;
lastChange = "2022-11-29 13:08:13 +0000";
layers = (
{
hints = (
{
horizontal = 1;
place = (-56, 21);
target = up;
type = BottomGhost;
},
{
horizontal = 1;
place = (634, -20);
target = down;
type = TopGhost;
},
{
horizontal = 1;
place = (666, 90);
place = (666, 90);
type = Stem;
},
{
place = (297, 94);
place = (297, 94);
type = Stem;
},
{
place = (497, 94);
place = (497, 94);
type = Stem;
},
{
horizontal = 1;
place = (-56, 82);
place = (-56, 82);
type = Stem;
}
);
layerId = m01;
shapes = (
{
closed = 1;
nodes = (
(1119,690,l),
(935,690,l),
(718,138,l),
(746,680,l),
(488,680,l),
(282,140,l),
(307,690,l),
(116,690,l),
(136,0,l),
(377,0,l),
(584,537,l),
(557,0,l),
(797,0,l)
);
},
{
closed = 1;
nodes = (
(450,719,l),
(600,719,l),
(631,866,l),
(481,866,l)
);
},
{
closed = 1;
nodes = (
(651,719,l),
(801,719,l),
(832,866,l),
(682,866,l)
);
}
);
width = 1016;
}
);
note = Wdieresis;
unicode = 7812;
},
{
glyphname = Wgrave;
kernLeft = W;
kernRight = W;
lastChange = "2022-11-29 13:08:13 +0000";
layers = (
{
hints = (
{
horizontal = 1;
place = (-56, 21);
target = up;
type = BottomGhost;
},
{
horizontal = 1;
place = (634, -20);
target = down;
type = TopGhost;
},
{
horizontal = 1;
place = (679, 69);
place = (679, 69);
type = Stem;
},
{
place = (-30, 947);
place = (-30, 947);
type = Stem;
},
{
horizontal = 1;
place = (-56, 82);
place = (-56, 82);
type = Stem;
}
);
layerId = m01;
shapes = (
{
closed = 1;
nodes = (
(593,735,l),
(689,735,l),
(624,860,l),
(464,860,l)
);
},
{
closed = 1;
nodes = (
(1119,690,l),
(935,690,l),
(718,138,l),
(746,680,l),
(488,680,l),
(282,140,l),
(307,690,l),
(116,690,l),
(136,0,l),
(377,0,l),
(584,537,l),
(557,0,l),
(797,0,l)
);
}
);
width = 1016;
}
);
note = Wgrave;
unicode = 7808;
},
{
glyphname = X;
lastChange = "2022-11-29 13:08:13 +0000";
layers = (
{
hints = (
{
horizontal = 1;
place = (-56, 21);
target = up;
type = BottomGhost;
},
{
horizontal = 1;
place = (634, -20);
target = down;
type = TopGhost;
},
{
place = (-42, 650);
place = (-42, 650);
type = Stem;
}
);
layerId = m01;
shapes = (
{
closed = 1;
nodes = (
(454,0,l),
(664,0,l),
(495,351,l),
(808,690,l),
(601,690,l),
(412,460,l),
(331,690,l),
(121,690,l),
(279,348,l),
(-42,0,l),
(175,0,l),
(358,233,l)
);
}
);
width = 717;
}
);
note = X;
unicode = 88;
},
{
glyphname = Y;
kernLeft = Y;
kernRight = Y;
lastChange = "2022-11-29 13:08:13 +0000";
layers = (
{
hints = (
{
horizontal = 1;
place = (-56, 21);
target = up;
type = BottomGhost;
},
{
horizontal = 1;
place = (634, -20);
target = down;
type = TopGhost;
},
{
place = (201, 124);
place = (201, 124);
type = Stem;
}
);
layerId = m01;
shapes = (
{
closed = 1;
nodes = (
(437,264,l),
(770,690,l),
(573,690,l),
(384,417,l),
(306,690,l),
(104,690,l),
(257,264,l),
(201,0,l),
(381,0,l)
);
}
);
width = 663;
}
);
note = Y;
unicode = 89;
},
{
glyphname = Yacute;
kernLeft = Y;
kernRight = Y;
lastChange = "2022-11-29 13:08:13 +0000";
layers = (
{
hints = (
{
horizontal = 1;
place = (-56, 21);
target = up;
type = BottomGhost;
},
{
horizontal = 1;
place = (634, -20);
target = down;
type = TopGhost;
},
{
horizontal = 1;
place = (679, 69);
place = (679, 69);
type = Stem;
},
{
place = (201, 124);
place = (201, 124);
type = Stem;
}
);
layerId = m01;
shapes = (
{
closed = 1;
nodes = (
(489,735,l),
(670,860,l),
(510,860,l),
(393,735,l)
);
},
{
closed = 1;
nodes = (
(437,264,l),
(770,690,l),
(573,690,l),
(384,417,l),
(306,690,l),
(104,690,l),
(257,264,l),
(201,0,l),
(381,0,l)
);
}
);
width = 663;
}
);
note = Yacute;
unicode = 221;
},
{
glyphname = Ycircumflex;
kernLeft = Y;
kernRight = Y;
lastChange = "2022-11-29 13:08:13 +0000";
layers = (
{
hints = (
{
horizontal = 1;
place = (-56, 21);
target = up;
type = BottomGhost;
},
{
horizontal = 1;
place = (634, -20);
target = down;
type = TopGhost;
},
{
horizontal = 1;
place = (679, 69);
place = (679, 69);
type = Stem;
},
{
place = (201, 124);
place = (201, 124);
type = Stem;
}
);
layerId = m01;
shapes = (
{
closed = 1;
nodes = (
(414,735,l),
(462,811,l),
(480,735,l),
(584,735,l),
(548,860,l),
(399,860,l),
(311,735,l)
);
},
{
closed = 1;
nodes = (
(437,264,l),
(770,690,l),
(573,690,l),
(384,417,l),
(306,690,l),
(104,690,l),
(257,264,l),
(201,0,l),
(381,0,l)
);
}
);
width = 663;
}
);
note = Ycircumflex;
unicode = 374;
},
{
glyphname = Ydieresis;
kernLeft = Y;
kernRight = Y;
lastChange = "2022-11-29 13:08:13 +0000";
layers = (
{
hints = (
{
horizontal = 1;
place = (-56, 21);
target = up;
type = BottomGhost;
},
{
horizontal = 1;
place = (634, -20);
target = down;
type = TopGhost;
},
{
horizontal = 1;
place = (666, 90);
place = (666, 90);
type = Stem;
},
{
place = (116, 94);
place = (116, 94);
type = Stem;
},
{
place = (316, 94);
place = (316, 94);
type = Stem;
},
{
place = (201, 124);
place = (201, 124);
type = Stem;
}
);
layerId = m01;
shapes = (
{
closed = 1;
nodes = (
(437,264,l),
(770,690,l),
(573,690,l),
(384,417,l),
(306,690,l),
(104,690,l),
(257,264,l),
(201,0,l),
(381,0,l)
);
},
{
closed = 1;
nodes = (
(269,717,l),
(419,717,l),
(450,864,l),
(300,864,l)
);
},
{
closed = 1;
nodes = (
(470,717,l),
(620,717,l),
(651,864,l),
(501,864,l)
);
}
);
width = 663;
}
);
note = Ydieresis;
unicode = 376;
},
{
glyphname = Ygrave;
kernLeft = Y;
kernRight = Y;
lastChange = "2022-11-29 13:08:13 +0000";
layers = (
{
hints = (
{
horizontal = 1;
place = (-56, 21);
target = up;
type = BottomGhost;
},
{
horizontal = 1;
place = (634, -20);
target = down;
type = TopGhost;
},
{
horizontal = 1;
place = (679, 69);
place = (679, 69);
type = Stem;
},
{
place = (201, 124);
place = (201, 124);
type = Stem;
}
);
layerId = m01;
shapes = (
{
closed = 1;
nodes = (
(412,735,l),
(508,735,l),
(443,860,l),
(283,860,l)
);
},
{
closed = 1;
nodes = (
(437,264,l),
(770,690,l),
(573,690,l),
(384,417,l),
(306,690,l),
(104,690,l),
(257,264,l),
(201,0,l),
(381,0,l)
);
}
);
width = 663;
}
);
note = Ygrave;
unicode = 7922;
},
{
glyphname = Z;
kernLeft = Z;
kernRight = Z;
lastChange = "2022-11-29 13:08:13 +0000";
layers = (
{
hints = (
{
horizontal = 1;
place = (-56, 84);
place = (-56, 84);
type = Stem;
},
{
horizontal = 1;
place = (494, 84);
place = (494, 84);
type = Stem;
},
{
place = (-3, 509);
place = (-3, 509);
type = Stem;
}
);
layerId = m01;
shapes = (
{
closed = 1;
nodes = (
(591,140,l),
(249,140,l),
(675,551,l),
(704,690,l),
(171,690,l),
(142,550,l),
(455,550,l),
(26,136,l),
(-3,0,l),
(562,0,l)
);
}
);
width = 648;
}
);
note = Z;
unicode = 90;
},
{
glyphname = Zacute;
kernLeft = Z;
kernRight = Z;
lastChange = "2022-11-29 13:08:13 +0000";
layers = (
{
hints = (
{
horizontal = 1;
place = (-56, 84);
place = (-56, 84);
type = Stem;
},
{
horizontal = 1;
place = (494, 84);
place = (494, 84);
type = Stem;
},
{
horizontal = 1;
place = (679, 69);
place = (679, 69);
type = Stem;
},
{
place = (-3, 509);
place = (-3, 509);
type = Stem;
}
);
layerId = m01;
shapes = (
{
closed = 1;
nodes = (
(483,735,l),
(664,860,l),
(504,860,l),
(387,735,l)
);
},
{
closed = 1;
nodes = (
(591,140,l),
(249,140,l),
(675,551,l),
(704,690,l),
(171,690,l),
(142,550,l),
(455,550,l),
(26,136,l),
(-3,0,l),
(562,0,l)
);
}
);
width = 648;
}
);
note = Zacute;
unicode = 377;
},
{
glyphname = Zcaron;
kernLeft = Z;
kernRight = Z;
lastChange = "2022-11-29 13:08:13 +0000";
layers = (
{
hints = (
{
horizontal = 1;
place = (-56, 84);
place = (-56, 84);
type = Stem;
},
{
horizontal = 1;
place = (494, 84);
place = (494, 84);
type = Stem;
},
{
horizontal = 1;
place = (679, 69);
place = (679, 69);
type = Stem;
},
{
place = (-3, 509);
place = (-3, 509);
type = Stem;
}
);
layerId = m01;
shapes = (
{
closed = 1;
nodes = (
(367,735,l),
(516,735,l),
(604,860,l),
(501,860,l),
(453,784,l),
(435,860,l),
(331,860,l)
);
},
{
closed = 1;
nodes = (
(591,140,l),
(249,140,l),
(675,551,l),
(704,690,l),
(171,690,l),
(142,550,l),
(455,550,l),
(26,136,l),
(-3,0,l),
(562,0,l)
);
}
);
width = 648;
}
);
note = Zcaron;
unicode = 381;
},
{
glyphname = Zdotaccent;
kernLeft = Z;
kernRight = Z;
lastChange = "2022-11-29 13:08:13 +0000";
layers = (
{
hints = (
{
horizontal = 1;
place = (-56, 84);
place = (-56, 84);
type = Stem;
},
{
horizontal = 1;
place = (494, 84);
place = (494, 84);
type = Stem;
},
{
horizontal = 1;
place = (669, 120);
place = (669, 120);
type = Stem;
},
{
place = (192, 130);
place = (192, 130);
type = Stem;
}
);
layerId = m01;
shapes = (
{
closed = 1;
nodes = (
(495,725,o),
(539,759,o),
(550,813,cs),
(562,867,o),
(532,901,o),
(476,901,cs),
(420,901,o),
(376,867,o),
(364,813,cs),
(353,759,o),
(383,725,o),
(439,725,cs)
);
},
{
closed = 1;
nodes = (
(591,140,l),
(249,140,l),
(675,551,l),
(704,690,l),
(171,690,l),
(142,550,l),
(455,550,l),
(26,136,l),
(-3,0,l),
(562,0,l)
);
}
);
width = 648;
}
);
note = Zdotaccent;
unicode = 379;
},
{
glyphname = a;
kernLeft = a;
lastChange = "2022-11-29 13:08:13 +0000";
layers = (
{
hints = (
{
horizontal = 1;
place = (-56, 52);
place = (-56, 52);
type = Stem;
},
{
horizontal = 1;
place = (170, 46);
place = (170, 46);
type = Stem;
},
{
horizontal = 1;
place = (370, 66);
place = (370, 66);
type = Stem;
},
{
place = (-8, 114);
place = (-8, 114);
type = Stem;
},
{
place = (297, 124);
place = (297, 124);
type = Stem;
},
{
horizontal = 1;
place = (-70, 21);
target = up;
type = BottomGhost;
},
{
place = (-26, 128);
place = (-26, 128);
type = Stem;
}
);
layerId = m01;
shapes = (
{
closed = 1;
nodes = (
(311,0,l),
(487,0,l),
(491,59,o),
(497,95,o),
(505,135,cs),
(537,285,ls),
(544,318,o),
(550,349,o),
(554,376,cs),
(566,473,o),
(524,548,o),
(355,548,cs),
(220,548,o),
(94,477,o),
(66,352,c),
(237,353,l),
(249,399,o),
(279,426,o),
(321,426,cs),
(360,426,o),
(377,402,o),
(374,375,cs),
(373,358,o),
(370,347,o),
(368,336,cs),
(366,328,l),
(332,328,ls),
(151,328,o),
(29,258,o),
(4,144,cs),
(-18,41,o),
(54,-14,o),
(142,-14,cs),
(191,-14,o),
(238,-2,o),
(281,22,c),
(315,78,l)
);
},
{
closed = 1;
nodes = (
(206,108,o),
(184,126,o),
(191,158,cs),
(203,211,o),
(265,232,o),
(345,226,c),
(337,191,ls),
(325,135,o),
(278,108,o),
(242,108,cs)
);
}
);
width = 587;
}
);
note = a;
unicode = 97;
},
{
glyphname = aacute;
kernLeft = a;
lastChange = "2022-11-29 13:08:13 +0000";
layers = (
{
hints = (
{
horizontal = 1;
place = (-70, 21);
target = up;
type = BottomGhost;
},
{
horizontal = 1;
place = (170, 46);
place = (170, 46);
type = Stem;
},
{
horizontal = 1;
place = (515, 69);
place = (515, 69);
type = Stem;
},
{
place = (-26, 128);
place = (-26, 128);
type = Stem;
},
{
place = (297, 124);
place = (297, 124);
type = Stem;
},
{
horizontal = 1;
place = (-56, 52);
place = (-56, 52);
type = Stem;
},
{
horizontal = 1;
place = (370, 66);
place = (370, 66);
type = Stem;
},
{
place = (-8, 114);
place = (-8, 114);
type = Stem;
}
);
layerId = m01;
shapes = (
{
closed = 1;
nodes = (
(400,571,l),
(582,696,l),
(422,696,l),
(304,571,l)
);
},
{
closed = 1;
nodes = (
(311,0,l),
(487,0,l),
(491,59,o),
(497,95,o),
(505,135,cs),
(537,285,ls),
(544,318,o),
(550,349,o),
(554,376,cs),
(566,473,o),
(524,548,o),
(355,548,cs),
(220,548,o),
(94,477,o),
(66,352,c),
(237,353,l),
(249,399,o),
(279,426,o),
(321,426,cs),
(360,426,o),
(377,402,o),
(374,375,cs),
(373,358,o),
(370,347,o),
(368,336,cs),
(366,328,l),
(332,328,ls),
(151,328,o),
(29,258,o),
(4,144,cs),
(-18,41,o),
(54,-14,o),
(142,-14,cs),
(191,-14,o),
(238,-2,o),
(281,22,c),
(315,78,l)
);
},
{
closed = 1;
nodes = (
(206,108,o),
(184,126,o),
(191,158,cs),
(203,211,o),
(265,232,o),
(345,226,c),
(337,191,ls),
(325,135,o),
(278,108,o),
(242,108,cs)
);
}
);
width = 587;
}
);
note = aacute;
unicode = 225;
},
{
glyphname = abreve;
kernLeft = a;
lastChange = "2022-11-29 13:08:13 +0000";
layers = (
{
hints = (
{
horizontal = 1;
place = (-70, 21);
target = up;
type = BottomGhost;
},
{
horizontal = 1;
place = (170, 46);
place = (170, 46);
type = Stem;
},
{
horizontal = 1;
place = (512, 72);
place = (512, 72);
type = Stem;
},
{
place = (-26, 128);
place = (-26, 128);
type = Stem;
},
{
place = (297, 124);
place = (297, 124);
type = Stem;
},
{
horizontal = 1;
place = (512, 29);
place = (512, 29);
type = Stem;
},
{
horizontal = 1;
place = (-56, 52);
place = (-56, 52);
type = Stem;
},
{
horizontal = 1;
place = (370, 66);
place = (370, 66);
type = Stem;
},
{
place = (-8, 114);
place = (-8, 114);
type = Stem;
}
);
layerId = m01;
shapes = (
{
closed = 1;
nodes = (
(428,568,o),
(499,597,o),
(520,696,c),
(430,696,l),
(422,669,o),
(404,653,o),
(375,653,cs),
(346,653,o),
(336,669,o),
(340,696,c),
(250,696,l),
(229,597,o),
(285,568,o),
(357,568,cs)
);
},
{
closed = 1;
nodes = (
(311,0,l),
(487,0,l),
(491,59,o),
(497,95,o),
(505,135,cs),
(537,285,ls),
(544,318,o),
(550,349,o),
(554,376,cs),
(566,473,o),
(524,548,o),
(355,548,cs),
(220,548,o),
(94,477,o),
(66,352,c),
(237,353,l),
(249,399,o),
(279,426,o),
(321,426,cs),
(360,426,o),
(377,402,o),
(374,375,cs),
(373,358,o),
(370,347,o),
(368,336,cs),
(366,328,l),
(332,328,ls),
(151,328,o),
(29,258,o),
(4,144,cs),
(-18,41,o),
(54,-14,o),
(142,-14,cs),
(191,-14,o),
(238,-2,o),
(281,22,c),
(315,78,l)
);
},
{
closed = 1;
nodes = (
(206,108,o),
(184,126,o),
(191,158,cs),
(203,211,o),
(265,232,o),
(345,226,c),
(337,191,ls),
(325,135,o),
(278,108,o),
(242,108,cs)
);
}
);
width = 587;
}
);
note = abreve;
unicode = 259;
},
{
glyphname = acircumflex;
kernLeft = a;
lastChange = "2022-11-29 13:08:13 +0000";
layers = (
{
hints = (
{
horizontal = 1;
place = (-70, 21);
target = up;
type = BottomGhost;
},
{
horizontal = 1;
place = (170, 46);
place = (170, 46);
type = Stem;
},
{
horizontal = 1;
place = (515, 69);
place = (515, 69);
type = Stem;
},
{
place = (-26, 128);
place = (-26, 128);
type = Stem;
},
{
place = (297, 124);
place = (297, 124);
type = Stem;
},
{
horizontal = 1;
place = (591, -7);
place = (591, -7);
type = Stem;
},
{
horizontal = 1;
place = (-56, 52);
place = (-56, 52);
type = Stem;
},
{
horizontal = 1;
place = (370, 66);
place = (370, 66);
type = Stem;
},
{
place = (-8, 114);
place = (-8, 114);
type = Stem;
}
);
layerId = m01;
shapes = (
{
closed = 1;
nodes = (
(325,571,l),
(373,647,l),
(391,571,l),
(495,571,l),
(460,696,l),
(311,696,l),
(222,571,l)
);
},
{
closed = 1;
nodes = (
(311,0,l),
(487,0,l),
(491,59,o),
(497,95,o),
(505,135,cs),
(537,285,ls),
(544,318,o),
(550,349,o),
(554,376,cs),
(566,473,o),
(524,548,o),
(355,548,cs),
(220,548,o),
(94,477,o),
(66,352,c),
(237,353,l),
(249,399,o),
(279,426,o),
(321,426,cs),
(360,426,o),
(377,402,o),
(374,375,cs),
(373,358,o),
(370,347,o),
(368,336,cs),
(366,328,l),
(332,328,ls),
(151,328,o),
(29,258,o),
(4,144,cs),
(-18,41,o),
(54,-14,o),
(142,-14,cs),
(191,-14,o),
(238,-2,o),
(281,22,c),
(315,78,l)
);
},
{
closed = 1;
nodes = (
(206,108,o),
(184,126,o),
(191,158,cs),
(203,211,o),
(265,232,o),
(345,226,c),
(337,191,ls),
(325,135,o),
(278,108,o),
(242,108,cs)
);
}
);
width = 587;
}
);
note = acircumflex;
unicode = 226;
},
{
glyphname = adieresis;
kernLeft = a;
lastChange = "2022-11-29 13:08:13 +0000";
layers = (
{
hints = (
{
horizontal = 1;
place = (-56, 52);
place = (-56, 52);
type = Stem;
},
{
horizontal = 1;
place = (170, 46);
place = (170, 46);
type = Stem;
},
{
horizontal = 1;
place = (370, 66);
place = (370, 66);
type = Stem;
},
{
horizontal = 1;
place = (513, 90);
place = (513, 90);
type = Stem;
},
{
place = (62, 94);
place = (62, 94);
type = Stem;
},
{
place = (262, 94);
place = (262, 94);
type = Stem;
},
{
place = (-8, 114);
place = (-8, 114);
type = Stem;
},
{
place = (297, 124);
place = (297, 124);
type = Stem;
},
{
horizontal = 1;
place = (-70, 21);
target = up;
type = BottomGhost;
},
{
place = (-26, 128);
place = (-26, 128);
type = Stem;
}
);
layerId = m01;
shapes = (
{
closed = 1;
nodes = (
(311,0,l),
(487,0,l),
(491,59,o),
(497,95,o),
(505,135,cs),
(537,285,ls),
(544,318,o),
(550,349,o),
(554,376,cs),
(566,473,o),
(524,548,o),
(355,548,cs),
(220,548,o),
(94,477,o),
(66,352,c),
(237,353,l),
(249,399,o),
(279,426,o),
(321,426,cs),
(360,426,o),
(377,402,o),
(374,375,cs),
(373,358,o),
(370,347,o),
(368,336,cs),
(366,328,l),
(332,328,ls),
(151,328,o),
(29,258,o),
(4,144,cs),
(-18,41,o),
(54,-14,o),
(142,-14,cs),
(191,-14,o),
(238,-2,o),
(281,22,c),
(315,78,l)
);
},
{
closed = 1;
nodes = (
(206,108,o),
(184,126,o),
(191,158,cs),
(203,211,o),
(265,232,o),
(345,226,c),
(337,191,ls),
(325,135,o),
(278,108,o),
(242,108,cs)
);
},
{
closed = 1;
nodes = (
(185,572,l),
(335,572,l),
(366,719,l),
(216,719,l)
);
},
{
closed = 1;
nodes = (
(386,572,l),
(536,572,l),
(567,719,l),
(417,719,l)
);
}
);
width = 587;
}
);
note = adieresis;
unicode = 228;
},
{
glyphname = agrave;
kernLeft = a;
lastChange = "2022-11-29 13:08:13 +0000";
layers = (
{
hints = (
{
horizontal = 1;
place = (-70, 21);
target = up;
type = BottomGhost;
},
{
horizontal = 1;
place = (170, 46);
place = (170, 46);
type = Stem;
},
{
horizontal = 1;
place = (515, 69);
place = (515, 69);
type = Stem;
},
{
place = (-26, 128);
place = (-26, 128);
type = Stem;
},
{
place = (297, 124);
place = (297, 124);
type = Stem;
},
{
horizontal = 1;
place = (-56, 52);
place = (-56, 52);
type = Stem;
},
{
horizontal = 1;
place = (370, 66);
place = (370, 66);
type = Stem;
},
{
place = (-8, 114);
place = (-8, 114);
type = Stem;
}
);
layerId = m01;
shapes = (
{
closed = 1;
nodes = (
(331,571,l),
(427,571,l),
(363,696,l),
(203,696,l)
);
},
{
closed = 1;
nodes = (
(311,0,l),
(487,0,l),
(491,59,o),
(497,95,o),
(505,135,cs),
(537,285,ls),
(544,318,o),
(550,349,o),
(554,376,cs),
(566,473,o),
(524,548,o),
(355,548,cs),
(220,548,o),
(94,477,o),
(66,352,c),
(237,353,l),
(249,399,o),
(279,426,o),
(321,426,cs),
(360,426,o),
(377,402,o),
(374,375,cs),
(373,358,o),
(370,347,o),
(368,336,cs),
(366,328,l),
(332,328,ls),
(151,328,o),
(29,258,o),
(4,144,cs),
(-18,41,o),
(54,-14,o),
(142,-14,cs),
(191,-14,o),
(238,-2,o),
(281,22,c),
(315,78,l)
);
},
{
closed = 1;
nodes = (
(206,108,o),
(184,126,o),
(191,158,cs),
(203,211,o),
(265,232,o),
(345,226,c),
(337,191,ls),
(325,135,o),
(278,108,o),
(242,108,cs)
);
}
);
width = 587;
}
);
note = agrave;
unicode = 224;
},
{
glyphname = amacron;
kernLeft = a;
lastChange = "2022-11-29 13:08:13 +0000";
layers = (
{
hints = (
{
horizontal = 1;
place = (-56, 52);
place = (-56, 52);
type = Stem;
},
{
horizontal = 1;
place = (170, 46);
place = (170, 46);
type = Stem;
},
{
horizontal = 1;
place = (370, 66);
place = (370, 66);
type = Stem;
},
{
horizontal = 1;
place = (530, 40);
place = (530, 40);
type = Stem;
},
{
place = (87, 244);
place = (87, 244);
type = Stem;
},
{
place = (-8, 114);
place = (-8, 114);
type = Stem;
},
{
place = (297, 124);
place = (297, 124);
type = Stem;
},
{
horizontal = 1;
place = (-70, 21);
target = up;
type = BottomGhost;
},
{
place = (-26, 128);
place = (-26, 128);
type = Stem;
}
);
layerId = m01;
shapes = (
{
closed = 1;
nodes = (
(511,586,l),
(532,682,l),
(232,682,l),
(211,586,l)
);
},
{
closed = 1;
nodes = (
(311,0,l),
(487,0,l),
(491,59,o),
(497,95,o),
(505,135,cs),
(537,285,ls),
(544,318,o),
(550,349,o),
(554,376,cs),
(566,473,o),
(524,548,o),
(355,548,cs),
(220,548,o),
(94,477,o),
(66,352,c),
(237,353,l),
(249,399,o),
(279,426,o),
(321,426,cs),
(360,426,o),
(377,402,o),
(374,375,cs),
(373,358,o),
(370,347,o),
(368,336,cs),
(366,328,l),
(332,328,ls),
(151,328,o),
(29,258,o),
(4,144,cs),
(-18,41,o),
(54,-14,o),
(142,-14,cs),
(191,-14,o),
(238,-2,o),
(281,22,c),
(315,78,l)
);
},
{
closed = 1;
nodes = (
(206,108,o),
(184,126,o),
(191,158,cs),
(203,211,o),
(265,232,o),
(345,226,c),
(337,191,ls),
(325,135,o),
(278,108,o),
(242,108,cs)
);
}
);
width = 587;
}
);
note = amacron;
unicode = 257;
},
{
glyphname = aogonek;
kernLeft = a;
lastChange = "2022-11-29 13:08:13 +0000";
layers = (
{
hints = (
{
horizontal = 1;
place = (-279, 46);
place = (-279, 46);
type = Stem;
},
{
horizontal = 1;
place = (-56, 21);
target = up;
type = BottomGhost;
},
{
horizontal = 1;
place = (170, 46);
place = (170, 46);
type = Stem;
},
{
horizontal = 1;
place = (370, 66);
place = (370, 66);
type = Stem;
},
{
place = (-26, 128);
place = (-26, 128);
type = Stem;
},
{
place = (225, 193);
place = (225, 193);
type = Stem;
},
{
place = (-8, 114);
place = (-8, 114);
type = Stem;
},
{
place = (297, 124);
place = (297, 124);
type = Stem;
},
{
horizontal = 1;
place = (-70, 21);
target = up;
type = BottomGhost;
},
{
horizontal = 1;
place = (-70, 66);
place = (-70, 66);
type = Stem;
}
);
layerId = m01;
shapes = (
{
closed = 1;
nodes = (
(382,-32,o),
(409,0,o),
(434,0,cs),
(487,0,l),
(491,59,o),
(497,95,o),
(505,135,cs),
(537,285,ls),
(544,318,o),
(550,349,o),
(554,376,cs),
(566,473,o),
(524,548,o),
(355,548,cs),
(220,548,o),
(94,477,o),
(66,352,c),
(237,353,l),
(249,399,o),
(279,426,o),
(321,426,cs),
(360,426,o),
(377,402,o),
(374,375,cs),
(373,358,o),
(370,347,o),
(368,336,cs),
(366,328,l),
(332,328,ls),
(151,328,o),
(29,258,o),
(4,144,cs),
(-18,41,o),
(54,-14,o),
(142,-14,cs),
(191,-14,o),
(238,-2,o),
(281,22,c),
(315,78,l),
(311,5,l),
(261,-21,o),
(208,-77,o),
(196,-137,cs),
(182,-201,o),
(225,-223,o),
(291,-223,cs),
(355,-223,o),
(402,-202,o),
(437,-173,c),
(452,-100,l),
(433,-115,o),
(418,-121,o),
(404,-121,cs),
(384,-121,o),
(366,-108,o),
(374,-70,cs)
);
},
{
closed = 1;
nodes = (
(206,108,o),
(184,126,o),
(191,158,cs),
(203,211,o),
(265,232,o),
(345,226,c),
(337,191,ls),
(325,135,o),
(278,108,o),
(242,108,cs)
);
}
);
width = 587;
}
);
note = aogonek;
unicode = 261;
},
{
glyphname = aring;
kernLeft = a;
lastChange = "2022-11-29 13:08:13 +0000";
layers = (
{
hints = (
{
horizontal = 1;
place = (-56, 52);
place = (-56, 52);
type = Stem;
},
{
horizontal = 1;
place = (170, 46);
place = (170, 46);
type = Stem;
},
{
horizontal = 1;
place = (370, 66);
place = (370, 66);
type = Stem;
},
{
horizontal = 1;
place = (511, 10);
place = (511, 10);
type = Stem;
},
{
horizontal = 1;
place = (659, 10);
place = (659, 10);
type = Stem;
},
{
place = (118, 27);
place = (118, 27);
type = Stem;
},
{
place = (273, 27);
place = (273, 27);
type = Stem;
},
{
place = (-8, 114);
place = (-8, 114);
type = Stem;
},
{
place = (297, 124);
place = (297, 124);
type = Stem;
},
{
horizontal = 1;
place = (-70, 21);
target = up;
type = BottomGhost;
},
{
place = (-26, 128);
place = (-26, 128);
type = Stem;
}
);
layerId = m01;
shapes = (
{
closed = 1;
nodes = (
(427,567,o),
(485,610,o),
(499,674,cs),
(513,738,o),
(473,781,o),
(403,781,cs),
(333,781,o),
(275,738,o),
(261,674,cs),
(247,610,o),
(287,567,o),
(357,567,cs)
);
},
{
closed = 1;
nodes = (
(410,715,o),
(421,700,o),
(416,674,cs),
(410,648,o),
(392,633,o),
(371,633,cs),
(350,633,o),
(338,648,o),
(344,674,cs),
(349,700,o),
(368,715,o),
(389,715,cs)
);
},
{
closed = 1;
nodes = (
(311,0,l),
(487,0,l),
(491,59,o),
(497,95,o),
(505,135,cs),
(537,285,ls),
(544,318,o),
(550,349,o),
(554,376,cs),
(566,473,o),
(524,548,o),
(355,548,cs),
(220,548,o),
(94,477,o),
(66,352,c),
(237,353,l),
(249,399,o),
(279,426,o),
(321,426,cs),
(360,426,o),
(377,402,o),
(374,375,cs),
(373,358,o),
(370,347,o),
(368,336,cs),
(366,328,l),
(332,328,ls),
(151,328,o),
(29,258,o),
(4,144,cs),
(-18,41,o),
(54,-14,o),
(142,-14,cs),
(191,-14,o),
(238,-2,o),
(281,22,c),
(315,78,l)
);
},
{
closed = 1;
nodes = (
(206,108,o),
(184,126,o),
(191,158,cs),
(203,211,o),
(265,232,o),
(345,226,c),
(337,191,ls),
(325,135,o),
(278,108,o),
(242,108,cs)
);
}
);
width = 587;
}
);
note = aring;
unicode = 229;
},
{
glyphname = atilde;
kernLeft = a;
lastChange = "2022-11-29 13:08:13 +0000";
layers = (
{
hints = (
{
horizontal = 1;
place = (-70, 21);
target = up;
type = BottomGhost;
},
{
horizontal = 1;
place = (170, 46);
place = (170, 46);
type = Stem;
},
{
horizontal = 1;
place = (370, 66);
place = (370, 66);
type = Stem;
},
{
horizontal = 1;
place = (518, 78);
place = (518, 78);
type = Stem;
},
{
place = (73, 40);
place = (73, 40);
type = Stem;
},
{
place = (297, 124);
place = (297, 124);
type = Stem;
},
{
horizontal = 1;
place = (515, 78);
place = (515, 78);
type = Stem;
},
{
place = (-26, 128);
place = (-26, 128);
type = Stem;
},
{
place = (305, 40);
place = (305, 40);
type = Stem;
},
{
horizontal = 1;
place = (515, 47);
place = (515, 47);
type = Stem;
},
{
horizontal = 1;
place = (-56, 52);
place = (-56, 52);
type = Stem;
},
{
place = (-8, 114);
place = (-8, 114);
type = Stem;
}
);
layerId = m01;
shapes = (
{
closed = 1;
nodes = (
(320,605,o),
(332,600,o),
(354,590,cs),
(388,574,o),
(403,571,o),
(432,571,cs),
(494,571,o),
(531,612,o),
(551,705,c),
(455,705,l),
(450,683,o),
(444,674,o),
(433,674,cs),
(425,674,o),
(413,678,o),
(391,689,cs),
(359,705,o),
(342,708,o),
(313,708,cs),
(251,708,o),
(214,667,o),
(195,574,c),
(291,574,l),
(295,596,o),
(301,605,o),
(312,605,cs)
);
},
{
closed = 1;
nodes = (
(311,0,l),
(487,0,l),
(491,59,o),
(497,95,o),
(505,135,cs),
(537,285,ls),
(544,318,o),
(550,349,o),
(554,376,cs),
(566,473,o),
(524,548,o),
(355,548,cs),
(220,548,o),
(94,477,o),
(66,352,c),
(237,353,l),
(249,399,o),
(279,426,o),
(321,426,cs),
(360,426,o),
(377,402,o),
(374,375,cs),
(373,358,o),
(370,347,o),
(368,336,cs),
(366,328,l),
(332,328,ls),
(151,328,o),
(29,258,o),
(4,144,cs),
(-18,41,o),
(54,-14,o),
(142,-14,cs),
(191,-14,o),
(238,-2,o),
(281,22,c),
(315,78,l)
);
},
{
closed = 1;
nodes = (
(206,108,o),
(184,126,o),
(191,158,cs),
(203,211,o),
(265,232,o),
(345,226,c),
(337,191,ls),
(325,135,o),
(278,108,o),
(242,108,cs)
);
}
);
width = 587;
}
);
note = atilde;
unicode = 227;
},
{
glyphname = ae;
kernLeft = a;
kernRight = ae;
lastChange = "2022-11-29 13:08:13 +0000";
layers = (
{
hints = (
{
horizontal = 1;
place = (-70, 66);
place = (-70, 66);
type = Stem;
},
{
horizontal = 1;
place = (166, 54);
place = (166, 54);
type = Stem;
},
{
horizontal = 1;
place = (370, 66);
place = (370, 66);
type = Stem;
},
{
place = (-26, 128);
place = (-26, 128);
type = Stem;
}
);
layerId = m01;
shapes = (
{
closed = 1;
nodes = (
(981,412,o),
(920,548,o),
(752,548,cs),
(665,548,o),
(584,517,o),
(526,455,c),
(509,514,o),
(452,548,o),
(355,548,cs),
(220,548,o),
(94,477,o),
(66,352,c),
(236,352,l),
(249,399,o),
(289,426,o),
(331,426,cs),
(385,426,o),
(405,397,o),
(393,338,cs),
(391,332,l),
(333,332,ls),
(162,332,o),
(31,271,o),
(5,149,cs),
(-18,41,o),
(54,-14,o),
(182,-14,cs),
(231,-14,o),
(288,-2,o),
(331,22,c),
(414,100,l),
(445,23,o),
(515,-14,o),
(613,-14,cs),
(750,-14,o),
(864,54,o),
(921,175,c),
(744,175,l),
(728,134,o),
(692,108,o),
(641,108,cs),
(590,108,o),
(556,133,o),
(566,222,c),
(938,222,l),
(944,240,o),
(949,258,o),
(952,274,cs)
);
},
{
closed = 1;
nodes = (
(595,332,l),
(622,397,o),
(661,426,o),
(707,426,cs),
(756,426,o),
(780,394,o),
(776,332,c)
);
},
{
closed = 1;
nodes = (
(367,214,ls),
(353,146,o),
(308,108,o),
(253,108,cs),
(206,108,o),
(184,126,o),
(192,163,cs),
(202,210,o),
(256,228,o),
(369,222,c)
);
}
);
width = 974;
}
);
note = ae;
unicode = 230;
},
{
glyphname = b;
kernRight = b;
lastChange = "2022-11-29 13:08:13 +0000";
layers = (
{
hints = (
{
horizontal = 1;
place = (-70, 66);
place = (-70, 66);
type = Stem;
},
{
horizontal = 1;
place = (370, 66);
place = (370, 66);
type = Stem;
},
{
horizontal = 1;
place = (679, -20);
target = down;
type = TopGhost;
},
{
place = (-2, 124);
place = (-2, 124);
type = Stem;
},
{
place = (405, 128);
place = (405, 128);
type = Stem;
},
{
horizontal = 1;
place = (-56, 52);
place = (-56, 52);
type = Stem;
}
);
layerId = m01;
shapes = (
{
closed = 1;
nodes = (
(416,548,o),
(362,537,o),
(327,515,c),
(275,456,l),
(334,735,l),
(154,735,l),
(-2,0,l),
(178,0,l),
(192,69,l),
(215,12,l),
(239,-4,o),
(289,-14,o),
(333,-14,cs),
(470,-14,o),
(608,89,o),
(648,279,cs),
(682,437,o),
(615,548,o),
(470,548,cs)
);
},
{
closed = 1;
nodes = (
(256,108,o),
(208,144,o),
(231,251,cs),
(236,274,ls),
(260,386,o),
(316,426,o),
(382,426,cs),
(445,426,o),
(483,370,o),
(462,270,cs),
(439,161,o),
(380,108,o),
(310,108,cs)
);
}
);
width = 669;
}
);
note = b;
unicode = 98;
},
{
glyphname = c;
kernLeft = c;
lastChange = "2022-11-29 13:08:13 +0000";
layers = (
{
hints = (
{
horizontal = 1;
place = (-70, 66);
place = (-70, 66);
type = Stem;
},
{
horizontal = 1;
place = (370, 66);
place = (370, 66);
type = Stem;
},
{
place = (-32, 128);
place = (-32, 128);
type = Stem;
},
{
place = (333, 118);
place = (333, 118);
type = Stem;
}
);
layerId = m01;
shapes = (
{
closed = 1;
nodes = (
(208,548,o),
(62,445,o),
(23,261,cs),
(-14,85,o),
(81,-14,o),
(234,-14,cs),
(379,-14,o),
(501,58,o),
(550,196,c),
(373,196,l),
(351,138,o),
(311,108,o),
(270,108,cs),
(209,108,o),
(185,158,o),
(209,272,cs),
(231,375,o),
(275,426,o),
(335,426,cs),
(380,426,o),
(410,400,o),
(403,330,c),
(577,330,l),
(597,450,o),
(522,548,o),
(365,548,cs)
);
}
);
width = 587;
}
);
note = c;
unicode = 99;
},
{
glyphname = cacute;
kernLeft = c;
lastChange = "2022-11-29 13:08:13 +0000";
layers = (
{
hints = (
{
horizontal = 1;
place = (-70, 66);
place = (-70, 66);
type = Stem;
},
{
horizontal = 1;
place = (515, 69);
place = (515, 69);
type = Stem;
},
{
place = (-32, 128);
place = (-32, 128);
type = Stem;
},
{
horizontal = 1;
place = (370, 66);
place = (370, 66);
type = Stem;
},
{
place = (333, 118);
place = (333, 118);
type = Stem;
}
);
layerId = m01;
shapes = (
{
closed = 1;
nodes = (
(400,571,l),
(582,696,l),
(422,696,l),
(304,571,l)
);
},
{
closed = 1;
nodes = (
(208,548,o),
(62,445,o),
(23,261,cs),
(-14,85,o),
(81,-14,o),
(234,-14,cs),
(379,-14,o),
(501,58,o),
(550,196,c),
(373,196,l),
(351,138,o),
(311,108,o),
(270,108,cs),
(209,108,o),
(185,158,o),
(209,272,cs),
(231,375,o),
(275,426,o),
(335,426,cs),
(380,426,o),
(410,400,o),
(403,330,c),
(577,330,l),
(597,450,o),
(522,548,o),
(365,548,cs)
);
}
);
width = 587;
}
);
note = cacute;
unicode = 263;
},
{
glyphname = ccaron;
kernLeft = c;
lastChange = "2022-11-29 13:08:13 +0000";
layers = (
{
hints = (
{
horizontal = 1;
place = (-70, 66);
place = (-70, 66);
type = Stem;
},
{
horizontal = 1;
place = (515, 69);
place = (515, 69);
type = Stem;
},
{
place = (-32, 128);
place = (-32, 128);
type = Stem;
},
{
horizontal = 1;
place = (370, 66);
place = (370, 66);
type = Stem;
},
{
place = (333, 118);
place = (333, 118);
type = Stem;
}
);
layerId = m01;
shapes = (
{
closed = 1;
nodes = (
(284,571,l),
(433,571,l),
(522,696,l),
(419,696,l),
(370,620,l),
(353,696,l),
(249,696,l)
);
},
{
closed = 1;
nodes = (
(373,196,l),
(351,138,o),
(311,108,o),
(270,108,cs),
(209,108,o),
(185,158,o),
(209,272,cs),
(231,375,o),
(275,426,o),
(335,426,cs),
(380,426,o),
(410,400,o),
(403,330,c),
(577,330,l),
(597,450,o),
(522,548,o),
(365,548,cs),
(208,548,o),
(62,445,o),
(23,261,cs),
(-14,85,o),
(81,-14,o),
(234,-14,cs),
(379,-14,o),
(501,58,o),
(550,196,c)
);
}
);
width = 587;
}
);
note = ccaron;
unicode = 269;
},
{
glyphname = ccedilla;
kernLeft = c;
lastChange = "2022-11-29 13:08:13 +0000";
layers = (
{
hints = (
{
horizontal = 1;
place = (-266, 13);
place = (-266, 13);
type = Stem;
},
{
horizontal = 1;
place = (-66, 21);
target = up;
type = BottomGhost;
},
{
horizontal = 1;
place = (370, 66);
place = (370, 66);
type = Stem;
},
{
place = (-32, 128);
place = (-32, 128);
type = Stem;
},
{
place = (243, 52);
place = (243, 52);
type = Stem;
},
{
place = (333, 118);
place = (333, 118);
type = Stem;
}
);
layerId = m01;
shapes = (
{
closed = 1;
nodes = (
(373,196,l),
(351,138,o),
(311,108,o),
(270,108,cs),
(209,108,o),
(185,158,o),
(209,272,cs),
(231,375,o),
(275,426,o),
(335,426,cs),
(380,426,o),
(410,400,o),
(403,330,c),
(577,330,l),
(597,450,o),
(522,548,o),
(365,548,cs),
(208,548,o),
(62,445,o),
(23,261,cs),
(-10,106,o),
(60,11,o),
(182,-10,c),
(127,-88,l),
(203,-83,o),
(223,-94,o),
(218,-114,cs),
(215,-132,o),
(196,-141,o),
(153,-141,cs),
(140,-141,o),
(120,-140,o),
(96,-134,c),
(81,-204,l),
(99,-209,o),
(117,-210,o),
(137,-210,cs),
(229,-210,o),
(311,-188,o),
(325,-119,cs),
(335,-74,o),
(308,-49,o),
(247,-42,c),
(267,-13,l),
(397,-2,o),
(505,69,o),
(550,196,c)
);
}
);
width = 587;
}
);
note = ccedilla;
unicode = 231;
},
{
glyphname = cdotaccent;
kernLeft = c;
lastChange = "2022-11-29 13:08:13 +0000";
layers = (
{
hints = (
{
horizontal = 1;
place = (-70, 66);
place = (-70, 66);
type = Stem;
},
{
horizontal = 1;
place = (370, 66);
place = (370, 66);
type = Stem;
},
{
horizontal = 1;
place = (519, 120);
place = (519, 120);
type = Stem;
},
{
place = (144, 130);
place = (144, 130);
type = Stem;
},
{
place = (-32, 128);
place = (-32, 128);
type = Stem;
},
{
place = (333, 118);
place = (333, 118);
type = Stem;
}
);
layerId = m01;
shapes = (
{
closed = 1;
nodes = (
(340,751,o),
(296,717,o),
(285,663,cs),
(273,609,o),
(303,575,o),
(359,575,cs),
(415,575,o),
(459,609,o),
(471,663,cs),
(482,717,o),
(452,751,o),
(396,751,cs)
);
},
{
closed = 1;
nodes = (
(208,548,o),
(62,445,o),
(23,261,cs),
(-14,85,o),
(81,-14,o),
(234,-14,cs),
(379,-14,o),
(501,58,o),
(550,196,c),
(373,196,l),
(351,138,o),
(311,108,o),
(270,108,cs),
(209,108,o),
(185,158,o),
(209,272,cs),
(231,375,o),
(275,426,o),
(335,426,cs),
(380,426,o),
(410,400,o),
(403,330,c),
(577,330,l),
(597,450,o),
(522,548,o),
(365,548,cs)
);
}
);
width = 587;
}
);
note = cdotaccent;
unicode = 267;
},
{
glyphname = d;
kernLeft = c;
lastChange = "2022-11-29 13:08:13 +0000";
layers = (
{
hints = (
{
horizontal = 1;
place = (-70, 66);
place = (-70, 66);
type = Stem;
},
{
horizontal = 1;
place = (370, 66);
place = (370, 66);
type = Stem;
},
{
horizontal = 1;
place = (679, -20);
target = down;
type = TopGhost;
},
{
place = (-32, 128);
place = (-32, 128);
type = Stem;
},
{
place = (379, 124);
place = (379, 124);
type = Stem;
},
{
horizontal = 1;
place = (-56, 52);
place = (-56, 52);
type = Stem;
}
);
layerId = m01;
shapes = (
{
closed = 1;
nodes = (
(715,735,l),
(535,735,l),
(478,465,l),
(455,522,l),
(431,538,o),
(381,548,o),
(337,548,cs),
(200,548,o),
(62,445,o),
(22,255,cs),
(-12,97,o),
(55,-14,o),
(200,-14,cs),
(254,-14,o),
(308,-3,o),
(343,19,c),
(395,78,l),
(379,0,l),
(559,0,l)
);
},
{
closed = 1;
nodes = (
(225,108,o),
(187,164,o),
(208,264,cs),
(231,373,o),
(290,426,o),
(360,426,cs),
(414,426,o),
(462,390,o),
(439,283,cs),
(434,260,ls),
(410,148,o),
(354,108,o),
(288,108,cs)
);
}
);
width = 669;
}
);
note = d;
unicode = 100;
},
{
glyphname = eth;
kernLeft = c;
lastChange = "2022-11-29 13:08:13 +0000";
layers = (
{
hints = (
{
horizontal = 1;
place = (-70, 76);
place = (-70, 76);
type = Stem;
},
{
horizontal = 1;
place = (360, 76);
place = (360, 76);
type = Stem;
},
{
horizontal = 1;
place = (640, -20);
target = down;
type = TopGhost;
},
{
horizontal = 1;
place = (689, -20);
target = down;
type = TopGhost;
},
{
place = (-32, 132);
place = (-32, 132);
type = Stem;
},
{
place = (379, 128);
place = (379, 128);
type = Stem;
}
);
layerId = m01;
shapes = (
{
closed = 1;
nodes = (
(669,623,l),
(673,696,l),
(583,680,l),
(560,705,o),
(529,727,o),
(493,745,c),
(324,679,l),
(347,668,o),
(366,657,o),
(383,644,c),
(315,632,l),
(311,559,l),
(440,582,l),
(462,546,o),
(469,506,o),
(466,465,c),
(434,519,l),
(402,541,o),
(377,548,o),
(348,548,cs),
(201,548,o),
(63,450,o),
(24,267,cs),
(-11,102,o),
(64,-14,o),
(268,-14,cs),
(405,-14,o),
(577,67,o),
(628,307,cs),
(658,447,o),
(656,544,o),
(625,615,c)
);
},
{
closed = 1;
nodes = (
(434,260,ls),
(417,178,o),
(372,118,o),
(296,118,cs),
(225,118,o),
(190,163,o),
(212,267,cs),
(232,359,o),
(282,416,o),
(360,416,cs),
(426,416,o),
(456,364,o),
(440,289,cs)
);
}
);
width = 662;
}
);
note = eth;
unicode = 240;
},
{
glyphname = dcaron;
kernLeft = c;
lastChange = "2022-11-29 13:08:13 +0000";
layers = (
{
hints = (
{
horizontal = 1;
place = (-70, 66);
place = (-70, 66);
type = Stem;
},
{
horizontal = 1;
place = (500, 123);
place = (500, 123);
type = Stem;
},
{
place = (-32, 128);
place = (-32, 128);
type = Stem;
},
{
place = (379, 124);
place = (379, 124);
type = Stem;
},
{
horizontal = 1;
place = (370, 66);
place = (370, 66);
type = Stem;
},
{
horizontal = 1;
place = (-56, 52);
place = (-56, 52);
type = Stem;
}
);
layerId = m01;
shapes = (
{
closed = 1;
nodes = (
(535,735,l),
(478,465,l),
(455,522,l),
(431,538,o),
(381,548,o),
(337,548,cs),
(200,548,o),
(62,445,o),
(22,255,cs),
(-12,97,o),
(55,-14,o),
(200,-14,cs),
(254,-14,o),
(308,-3,o),
(343,19,c),
(395,78,l),
(379,0,l),
(559,0,l),
(715,735,l)
);
},
{
closed = 1;
nodes = (
(936,735,l),
(822,735,l),
(700,556,l),
(797,556,l),
(934,725,l)
);
},
{
closed = 1;
nodes = (
(225,108,o),
(187,164,o),
(208,264,cs),
(231,373,o),
(290,426,o),
(360,426,cs),
(414,426,o),
(462,390,o),
(439,283,cs),
(434,260,ls),
(410,148,o),
(354,108,o),
(288,108,cs)
);
}
);
width = 661;
}
);
note = dcaron;
unicode = 271;
},
{
glyphname = dcroat;
kernLeft = c;
lastChange = "2022-11-29 13:08:13 +0000";
layers = (
{
hints = (
{
horizontal = 1;
place = (-70, 66);
place = (-70, 66);
type = Stem;
},
{
horizontal = 1;
place = (519, 104);
place = (519, 104);
type = Stem;
},
{
place = (-32, 128);
place = (-32, 128);
type = Stem;
},
{
place = (379, 124);
place = (379, 124);
type = Stem;
},
{
horizontal = 1;
place = (519, 40);
place = (519, 40);
type = Stem;
},
{
horizontal = 1;
place = (370, 66);
place = (370, 66);
type = Stem;
},
{
horizontal = 1;
place = (-56, 52);
place = (-56, 52);
type = Stem;
}
);
layerId = m01;
shapes = (
{
closed = 1;
nodes = (
(721,575,l),
(741,671,l),
(701,671,l),
(715,735,l),
(535,735,l),
(521,671,l),
(401,671,l),
(381,575,l),
(501,575,l),
(478,465,l),
(455,522,l),
(431,538,o),
(381,548,o),
(337,548,cs),
(200,548,o),
(62,445,o),
(22,255,cs),
(-12,97,o),
(55,-14,o),
(200,-14,cs),
(254,-14,o),
(308,-3,o),
(343,19,c),
(395,78,l),
(379,0,l),
(559,0,l),
(681,575,l)
);
},
{
closed = 1;
nodes = (
(225,108,o),
(187,164,o),
(208,264,cs),
(231,373,o),
(290,426,o),
(360,426,cs),
(414,426,o),
(462,390,o),
(439,283,cs),
(434,260,ls),
(410,148,o),
(354,108,o),
(288,108,cs)
);
}
);
width = 669;
}
);
note = dcroat;
unicode = 273;
},
{
glyphname = e;
kernLeft = c;
kernRight = ae;
lastChange = "2022-11-29 13:08:13 +0000";
layers = (
{
hints = (
{
horizontal = 1;
place = (-70, 66);
place = (-70, 66);
type = Stem;
},
{
horizontal = 1;
place = (166, 54);
place = (166, 54);
type = Stem;
},
{
horizontal = 1;
place = (370, 66);
place = (370, 66);
type = Stem;
},
{
place = (-32, 122);
place = (-32, 122);
type = Stem;
}
);
layerId = m01;
shapes = (
{
closed = 1;
nodes = (
(608,412,o),
(547,548,o),
(369,548,cs),
(191,548,o),
(57,421,o),
(24,265,cs),
(-16,77,o),
(87,-14,o),
(240,-14,cs),
(377,-14,o),
(491,54,o),
(548,175,c),
(371,175,l),
(355,134,o),
(319,108,o),
(268,108,cs),
(217,108,o),
(183,133,o),
(193,222,c),
(565,222,l),
(571,240,o),
(576,258,o),
(579,274,cs)
);
},
{
closed = 1;
nodes = (
(382,426,o),
(407,395,o),
(403,332,c),
(222,332,l),
(248,398,o),
(287,426,o),
(334,426,cs)
);
}
);
width = 601;
}
);
note = e;
unicode = 101;
},
{
glyphname = eacute;
kernLeft = c;
kernRight = ae;
lastChange = "2022-11-29 13:08:13 +0000";
layers = (
{
hints = (
{
horizontal = 1;
place = (-70, 66);
place = (-70, 66);
type = Stem;
},
{
horizontal = 1;
place = (166, 54);
place = (166, 54);
type = Stem;
},
{
horizontal = 1;
place = (515, 69);
place = (515, 69);
type = Stem;
},
{
place = (-32, 122);
place = (-32, 122);
type = Stem;
},
{
horizontal = 1;
place = (370, 66);
place = (370, 66);
type = Stem;
}
);
layerId = m01;
shapes = (
{
closed = 1;
nodes = (
(409,571,l),
(591,696,l),
(431,696,l),
(313,571,l)
);
},
{
closed = 1;
nodes = (
(608,412,o),
(547,548,o),
(369,548,cs),
(191,548,o),
(57,421,o),
(24,265,cs),
(-16,77,o),
(87,-14,o),
(240,-14,cs),
(377,-14,o),
(491,54,o),
(548,175,c),
(371,175,l),
(355,134,o),
(319,108,o),
(268,108,cs),
(217,108,o),
(183,133,o),
(193,222,c),
(565,222,l),
(571,240,o),
(576,258,o),
(579,274,cs)
);
},
{
closed = 1;
nodes = (
(382,426,o),
(407,395,o),
(403,332,c),
(222,332,l),
(248,398,o),
(287,426,o),
(334,426,cs)
);
}
);
width = 601;
}
);
note = eacute;
unicode = 233;
},
{
glyphname = ecaron;
kernLeft = c;
kernRight = ae;
lastChange = "2022-11-29 13:08:13 +0000";
layers = (
{
hints = (
{
horizontal = 1;
place = (-70, 66);
place = (-70, 66);
type = Stem;
},
{
horizontal = 1;
place = (166, 54);
place = (166, 54);
type = Stem;
},
{
horizontal = 1;
place = (515, 69);
place = (515, 69);
type = Stem;
},
{
place = (-32, 122);
place = (-32, 122);
type = Stem;
},
{
horizontal = 1;
place = (370, 66);
place = (370, 66);
type = Stem;
}
);
layerId = m01;
shapes = (
{
closed = 1;
nodes = (
(293,571,l),
(442,571,l),
(531,696,l),
(428,696,l),
(379,620,l),
(362,696,l),
(258,696,l)
);
},
{
closed = 1;
nodes = (
(608,412,o),
(547,548,o),
(369,548,cs),
(191,548,o),
(57,421,o),
(24,265,cs),
(-16,77,o),
(87,-14,o),
(240,-14,cs),
(377,-14,o),
(491,54,o),
(548,175,c),
(371,175,l),
(355,134,o),
(319,108,o),
(268,108,cs),
(217,108,o),
(183,133,o),
(193,222,c),
(565,222,l),
(571,240,o),
(576,258,o),
(579,274,cs)
);
},
{
closed = 1;
nodes = (
(382,426,o),
(407,395,o),
(403,332,c),
(222,332,l),
(248,398,o),
(287,426,o),
(334,426,cs)
);
}
);
width = 601;
}
);
note = ecaron;
unicode = 283;
},
{
glyphname = ecircumflex;
kernLeft = c;
kernRight = ae;
lastChange = "2022-11-29 13:08:13 +0000";
layers = (
{
hints = (
{
horizontal = 1;
place = (-70, 66);
place = (-70, 66);
type = Stem;
},
{
horizontal = 1;
place = (166, 54);
place = (166, 54);
type = Stem;
},
{
horizontal = 1;
place = (515, 69);
place = (515, 69);
type = Stem;
},
{
place = (-32, 122);
place = (-32, 122);
type = Stem;
},
{
horizontal = 1;
place = (591, -7);
place = (591, -7);
type = Stem;
},
{
horizontal = 1;
place = (370, 66);
place = (370, 66);
type = Stem;
}
);
layerId = m01;
shapes = (
{
closed = 1;
nodes = (
(334,571,l),
(382,647,l),
(400,571,l),
(504,571,l),
(469,696,l),
(320,696,l),
(231,571,l)
);
},
{
closed = 1;
nodes = (
(608,412,o),
(547,548,o),
(369,548,cs),
(191,548,o),
(57,421,o),
(24,265,cs),
(-16,77,o),
(87,-14,o),
(240,-14,cs),
(377,-14,o),
(491,54,o),
(548,175,c),
(371,175,l),
(355,134,o),
(319,108,o),
(268,108,cs),
(217,108,o),
(183,133,o),
(193,222,c),
(565,222,l),
(571,240,o),
(576,258,o),
(579,274,cs)
);
},
{
closed = 1;
nodes = (
(382,426,o),
(407,395,o),
(403,332,c),
(222,332,l),
(248,398,o),
(287,426,o),
(334,426,cs)
);
}
);
width = 601;
}
);
note = ecircumflex;
unicode = 234;
},
{
glyphname = edieresis;
kernLeft = c;
kernRight = ae;
lastChange = "2022-11-29 13:08:13 +0000";
layers = (
{
hints = (
{
horizontal = 1;
place = (-70, 66);
place = (-70, 66);
type = Stem;
},
{
horizontal = 1;
place = (166, 54);
place = (166, 54);
type = Stem;
},
{
horizontal = 1;
place = (370, 66);
place = (370, 66);
type = Stem;
},
{
horizontal = 1;
place = (513, 90);
place = (513, 90);
type = Stem;
},
{
place = (71, 94);
place = (71, 94);
type = Stem;
},
{
place = (271, 94);
place = (271, 94);
type = Stem;
},
{
place = (-32, 122);
place = (-32, 122);
type = Stem;
}
);
layerId = m01;
shapes = (
{
closed = 1;
nodes = (
(608,412,o),
(547,548,o),
(369,548,cs),
(191,548,o),
(57,421,o),
(24,265,cs),
(-16,77,o),
(87,-14,o),
(240,-14,cs),
(377,-14,o),
(491,54,o),
(548,175,c),
(371,175,l),
(355,134,o),
(319,108,o),
(268,108,cs),
(217,108,o),
(183,133,o),
(193,222,c),
(565,222,l),
(571,240,o),
(576,258,o),
(579,274,cs)
);
},
{
closed = 1;
nodes = (
(382,426,o),
(407,395,o),
(403,332,c),
(222,332,l),
(248,398,o),
(287,426,o),
(334,426,cs)
);
},
{
closed = 1;
nodes = (
(192,567,l),
(342,567,l),
(373,714,l),
(223,714,l)
);
},
{
closed = 1;
nodes = (
(393,567,l),
(543,567,l),
(574,714,l),
(424,714,l)
);
}
);
width = 601;
}
);
note = edieresis;
unicode = 235;
},
{
glyphname = edotaccent;
kernLeft = c;
kernRight = ae;
lastChange = "2022-11-29 13:08:13 +0000";
layers = (
{
hints = (
{
horizontal = 1;
place = (-70, 66);
place = (-70, 66);
type = Stem;
},
{
horizontal = 1;
place = (166, 54);
place = (166, 54);
type = Stem;
},
{
horizontal = 1;
place = (370, 66);
place = (370, 66);
type = Stem;
},
{
horizontal = 1;
place = (519, 120);
place = (519, 120);
type = Stem;
},
{
place = (153, 130);
place = (153, 130);
type = Stem;
},
{
place = (-32, 122);
place = (-32, 122);
type = Stem;
}
);
layerId = m01;
shapes = (
{
closed = 1;
nodes = (
(424,575,o),
(468,609,o),
(480,663,cs),
(491,717,o),
(461,751,o),
(405,751,cs),
(349,751,o),
(305,717,o),
(294,663,cs),
(282,609,o),
(312,575,o),
(368,575,cs)
);
},
{
closed = 1;
nodes = (
(608,412,o),
(547,548,o),
(369,548,cs),
(191,548,o),
(57,421,o),
(24,265,cs),
(-16,77,o),
(87,-14,o),
(240,-14,cs),
(377,-14,o),
(491,54,o),
(548,175,c),
(371,175,l),
(355,134,o),
(319,108,o),
(268,108,cs),
(217,108,o),
(183,133,o),
(193,222,c),
(565,222,l),
(571,240,o),
(576,258,o),
(579,274,cs)
);
},
{
closed = 1;
nodes = (
(382,426,o),
(407,395,o),
(403,332,c),
(222,332,l),
(248,398,o),
(287,426,o),
(334,426,cs)
);
}
);
width = 601;
}
);
note = edotaccent;
unicode = 279;
},
{
glyphname = egrave;
kernLeft = c;
kernRight = ae;
lastChange = "2022-11-29 13:08:13 +0000";
layers = (
{
hints = (
{
horizontal = 1;
place = (-70, 66);
place = (-70, 66);
type = Stem;
},
{
horizontal = 1;
place = (166, 54);
place = (166, 54);
type = Stem;
},
{
horizontal = 1;
place = (515, 69);
place = (515, 69);
type = Stem;
},
{
place = (-32, 122);
place = (-32, 122);
type = Stem;
},
{
horizontal = 1;
place = (370, 66);
place = (370, 66);
type = Stem;
}
);
layerId = m01;
shapes = (
{
closed = 1;
nodes = (
(340,571,l),
(436,571,l),
(372,696,l),
(212,696,l)
);
},
{
closed = 1;
nodes = (
(608,412,o),
(547,548,o),
(369,548,cs),
(191,548,o),
(57,421,o),
(24,265,cs),
(-16,77,o),
(87,-14,o),
(240,-14,cs),
(377,-14,o),
(491,54,o),
(548,175,c),
(371,175,l),
(355,134,o),
(319,108,o),
(268,108,cs),
(217,108,o),
(183,133,o),
(193,222,c),
(565,222,l),
(571,240,o),
(576,258,o),
(579,274,cs)
);
},
{
closed = 1;
nodes = (
(382,426,o),
(407,395,o),
(403,332,c),
(222,332,l),
(248,398,o),
(287,426,o),
(334,426,cs)
);
}
);
width = 601;
}
);
note = egrave;
unicode = 232;
},
{
glyphname = emacron;
kernLeft = c;
kernRight = ae;
lastChange = "2022-11-29 13:08:13 +0000";
layers = (
{
hints = (
{
horizontal = 1;
place = (-70, 66);
place = (-70, 66);
type = Stem;
},
{
horizontal = 1;
place = (166, 54);
place = (166, 54);
type = Stem;
},
{
horizontal = 1;
place = (370, 66);
place = (370, 66);
type = Stem;
},
{
horizontal = 1;
place = (530, 40);
place = (530, 40);
type = Stem;
},
{
place = (96, 244);
place = (96, 244);
type = Stem;
},
{
place = (-32, 122);
place = (-32, 122);
type = Stem;
}
);
layerId = m01;
shapes = (
{
closed = 1;
nodes = (
(520,586,l),
(541,682,l),
(241,682,l),
(220,586,l)
);
},
{
closed = 1;
nodes = (
(608,412,o),
(547,548,o),
(369,548,cs),
(191,548,o),
(57,421,o),
(24,265,cs),
(-16,77,o),
(87,-14,o),
(240,-14,cs),
(377,-14,o),
(491,54,o),
(548,175,c),
(371,175,l),
(355,134,o),
(319,108,o),
(268,108,cs),
(217,108,o),
(183,133,o),
(193,222,c),
(565,222,l),
(571,240,o),
(576,258,o),
(579,274,cs)
);
},
{
closed = 1;
nodes = (
(382,426,o),
(407,395,o),
(403,332,c),
(222,332,l),
(248,398,o),
(287,426,o),
(334,426,cs)
);
}
);
width = 601;
}
);
note = emacron;
unicode = 275;
},
{
glyphname = eogonek;
kernLeft = c;
kernRight = ae;
lastChange = "2022-11-29 13:08:13 +0000";
layers = (
{
hints = (
{
horizontal = 1;
place = (-60, 21);
target = up;
type = BottomGhost;
},
{
horizontal = 1;
place = (166, 54);
place = (166, 54);
type = Stem;
},
{
horizontal = 1;
place = (370, 66);
place = (370, 66);
type = Stem;
},
{
place = (-32, 122);
place = (-32, 122);
type = Stem;
},
{
horizontal = 1;
place = (-67, 21);
target = up;
type = BottomGhost;
},
{
horizontal = 1;
place = (-279, 46);
place = (-279, 46);
type = Stem;
},
{
place = (135, 193);
place = (135, 193);
type = Stem;
}
);
layerId = m01;
shapes = (
{
closed = 1;
nodes = (
(608,412,o),
(547,548,o),
(369,548,cs),
(191,548,o),
(57,421,o),
(24,265,cs),
(-12,96,o),
(68,5,o),
(195,-11,c),
(154,-40,o),
(116,-88,o),
(106,-137,cs),
(92,-201,o),
(135,-223,o),
(201,-223,cs),
(265,-223,o),
(312,-202,o),
(347,-173,c),
(362,-100,l),
(343,-115,o),
(328,-121,o),
(314,-121,cs),
(294,-121,o),
(276,-108,o),
(284,-70,cs),
(290,-40,o),
(309,-14,o),
(328,-4,c),
(333,-3,o),
(338,-1,o),
(343,0,cs),
(433,26,o),
(506,86,o),
(548,175,c),
(371,175,l),
(355,134,o),
(319,108,o),
(268,108,cs),
(217,108,o),
(183,133,o),
(193,222,c),
(565,222,l),
(571,240,o),
(576,258,o),
(579,274,cs)
);
},
{
closed = 1;
nodes = (
(382,426,o),
(407,395,o),
(403,332,c),
(222,332,l),
(248,398,o),
(287,426,o),
(334,426,cs)
);
}
);
width = 601;
}
);
note = eogonek;
unicode = 281;
},
{
glyphname = f;
lastChange = "2022-11-29 13:08:13 +0000";
layers = (
{
hints = (
{
horizontal = 1;
place = (-56, 21);
target = up;
type = BottomGhost;
},
{
horizontal = 1;
place = (362, 56);
place = (362, 56);
type = Stem;
},
{
horizontal = 1;
place = (575, 66);
place = (575, 66);
type = Stem;
},
{
place = (20, 124);
place = (20, 124);
type = Stem;
},
{
horizontal = 1;
place = (690, -20);
target = down;
type = TopGhost;
}
);
layerId = m01;
shapes = (
{
closed = 1;
nodes = (
(338,621,o),
(389,640,o),
(451,629,c),
(476,746,l),
(459,751,o),
(439,754,o),
(418,754,cs),
(253,754,o),
(176,692,o),
(147,592,cs),
(142,574,o),
(137,550,o),
(133,534,cs),
(132,530,l),
(75,530,l),
(52,418,l),
(109,418,l),
(20,0,l),
(200,0,l),
(289,418,l),
(398,418,l),
(421,530,l),
(312,530,l),
(313,534,ls),
(316,547,o),
(319,560,o),
(323,574,cs)
);
}
);
width = 378;
}
);
note = f;
unicode = 102;
},
{
glyphname = g;
kernLeft = c;
lastChange = "2022-11-29 13:08:13 +0000";
layers = (
{
hints = (
{
horizontal = 1;
place = (-276, 76);
place = (-276, 76);
type = Stem;
},
{
horizontal = 1;
place = (-50, 66);
place = (-50, 66);
type = Stem;
},
{
horizontal = 1;
place = (370, 52);
place = (370, 52);
type = Stem;
},
{
place = (-32, 128);
place = (-32, 128);
type = Stem;
},
{
place = (379, 124);
place = (379, 124);
type = Stem;
},
{
horizontal = 1;
place = (370, 66);
place = (370, 66);
type = Stem;
},
{
place = (-19, 118);
place = (-19, 118);
type = Stem;
}
);
layerId = m01;
shapes = (
{
closed = 1;
nodes = (
(672,534,l),
(492,534,l),
(478,465,l),
(455,522,l),
(431,538,o),
(381,548,o),
(337,548,cs),
(200,548,o),
(64,453,o),
(24,263,cs),
(-10,105,o),
(69,6,o),
(214,6,cs),
(268,6,o),
(312,17,o),
(347,39,c),
(400,98,l),
(396,83,ls),
(390,54,o),
(384,29,o),
(379,13,cs),
(359,-59,o),
(304,-88,o),
(237,-88,cs),
(181,-88,o),
(144,-68,o),
(148,-33,cs),
(149,-23,l),
(-25,-23,l),
(-26,-33,ls),
(-39,-155,o),
(44,-220,o),
(204,-220,cs),
(385,-220,o),
(521,-142,o),
(565,33,cs),
(572,62,o),
(581,103,o),
(588,136,cs)
);
},
{
closed = 1;
nodes = (
(229,128,o),
(189,176,o),
(210,276,cs),
(234,385,o),
(290,426,o),
(360,426,cs),
(414,426,o),
(462,390,o),
(439,283,cs),
(438,280,ls),
(414,168,o),
(358,128,o),
(292,128,cs)
);
}
);
width = 669;
}
);
note = g;
unicode = 103;
},
{
glyphname = gbreve;
kernLeft = c;
lastChange = "2022-11-29 13:08:13 +0000";
layers = (
{
hints = (
{
horizontal = 1;
place = (-276, 76);
place = (-276, 76);
type = Stem;
},
{
horizontal = 1;
place = (-50, 66);
place = (-50, 66);
type = Stem;
},
{
horizontal = 1;
place = (370, 52);
place = (370, 52);
type = Stem;
},
{
horizontal = 1;
place = (512, 72);
place = (512, 72);
type = Stem;
},
{
place = (-32, 128);
place = (-32, 128);
type = Stem;
},
{
place = (379, 124);
place = (379, 124);
type = Stem;
},
{
horizontal = 1;
place = (512, 29);
place = (512, 29);
type = Stem;
},
{
horizontal = 1;
place = (370, 66);
place = (370, 66);
type = Stem;
},
{
place = (-19, 118);
place = (-19, 118);
type = Stem;
}
);
layerId = m01;
shapes = (
{
closed = 1;
nodes = (
(465,568,o),
(536,597,o),
(557,696,c),
(467,696,l),
(459,669,o),
(441,653,o),
(412,653,cs),
(383,653,o),
(373,669,o),
(377,696,c),
(287,696,l),
(266,597,o),
(322,568,o),
(394,568,cs)
);
},
{
closed = 1;
nodes = (
(672,534,l),
(492,534,l),
(478,465,l),
(455,522,l),
(431,538,o),
(381,548,o),
(337,548,cs),
(200,548,o),
(64,453,o),
(24,263,cs),
(-10,105,o),
(69,6,o),
(214,6,cs),
(268,6,o),
(312,17,o),
(347,39,c),
(400,98,l),
(396,83,ls),
(390,54,o),
(384,29,o),
(379,13,cs),
(359,-59,o),
(304,-88,o),
(237,-88,cs),
(181,-88,o),
(144,-68,o),
(148,-33,cs),
(149,-23,l),
(-25,-23,l),
(-26,-33,ls),
(-39,-155,o),
(44,-220,o),
(204,-220,cs),
(385,-220,o),
(521,-142,o),
(565,33,cs),
(572,62,o),
(581,103,o),
(588,136,cs)
);
},
{
closed = 1;
nodes = (
(229,128,o),
(189,176,o),
(210,276,cs),
(234,385,o),
(290,426,o),
(360,426,cs),
(414,426,o),
(462,390,o),
(439,283,cs),
(438,280,ls),
(414,168,o),
(358,128,o),
(292,128,cs)
);
}
);
width = 669;
}
);
note = gbreve;
unicode = 287;
},
{
glyphname = gcommaaccent;
kernLeft = c;
lastChange = "2022-11-29 13:08:13 +0000";
layers = (
{
hints = (
{
horizontal = 1;
place = (-276, 76);
place = (-276, 76);
type = Stem;
},
{
horizontal = 1;
place = (-50, 66);
place = (-50, 66);
type = Stem;
},
{
horizontal = 1;
place = (370, 52);
place = (370, 52);
type = Stem;
},
{
horizontal = 1;
place = (511, 123);
place = (511, 123);
type = Stem;
},
{
place = (-32, 128);
place = (-32, 128);
type = Stem;
},
{
place = (379, 124);
place = (379, 124);
type = Stem;
},
{
horizontal = 1;
place = (370, 66);
place = (370, 66);
type = Stem;
},
{
place = (-19, 118);
place = (-19, 118);
type = Stem;
}
);
layerId = m01;
shapes = (
{
closed = 1;
nodes = (
(434,567,l),
(556,746,l),
(459,746,l),
(322,577,l),
(320,567,l)
);
},
{
closed = 1;
nodes = (
(672,534,l),
(492,534,l),
(478,465,l),
(455,522,l),
(431,538,o),
(381,548,o),
(337,548,cs),
(200,548,o),
(64,453,o),
(24,263,cs),
(-10,105,o),
(69,6,o),
(214,6,cs),
(268,6,o),
(312,17,o),
(347,39,c),
(400,98,l),
(396,83,ls),
(390,54,o),
(384,29,o),
(379,13,cs),
(359,-59,o),
(304,-88,o),
(237,-88,cs),
(181,-88,o),
(144,-68,o),
(148,-33,cs),
(149,-23,l),
(-25,-23,l),
(-26,-33,ls),
(-39,-155,o),
(44,-220,o),
(204,-220,cs),
(385,-220,o),
(521,-142,o),
(565,33,cs),
(572,62,o),
(581,103,o),
(588,136,cs)
);
},
{
closed = 1;
nodes = (
(229,128,o),
(189,176,o),
(210,276,cs),
(234,385,o),
(290,426,o),
(360,426,cs),
(414,426,o),
(462,390,o),
(439,283,cs),
(438,280,ls),
(414,168,o),
(358,128,o),
(292,128,cs)
);
}
);
width = 661;
}
);
note = gcommaaccent;
unicode = 291;
},
{
glyphname = gdotaccent;
kernLeft = c;
lastChange = "2022-11-29 13:08:13 +0000";
layers = (
{
hints = (
{
horizontal = 1;
place = (-276, 76);
place = (-276, 76);
type = Stem;
},
{
horizontal = 1;
place = (-50, 66);
place = (-50, 66);
type = Stem;
},
{
horizontal = 1;
place = (370, 66);
place = (370, 66);
type = Stem;
},
{
horizontal = 1;
place = (519, 120);
place = (519, 120);
type = Stem;
},
{
place = (-32, 128);
place = (-32, 128);
type = Stem;
},
{
place = (181, 130);
place = (181, 130);
type = Stem;
},
{
place = (379, 124);
place = (379, 124);
type = Stem;
},
{
horizontal = 1;
place = (370, 52);
place = (370, 52);
type = Stem;
},
{
place = (-19, 118);
place = (-19, 118);
type = Stem;
}
);
layerId = m01;
shapes = (
{
closed = 1;
nodes = (
(452,575,o),
(496,609,o),
(508,663,cs),
(519,717,o),
(489,751,o),
(433,751,cs),
(377,751,o),
(333,717,o),
(322,663,cs),
(310,609,o),
(340,575,o),
(396,575,cs)
);
},
{
closed = 1;
nodes = (
(672,534,l),
(492,534,l),
(478,465,l),
(455,522,l),
(431,538,o),
(381,548,o),
(337,548,cs),
(200,548,o),
(64,453,o),
(24,263,cs),
(-10,105,o),
(69,6,o),
(214,6,cs),
(268,6,o),
(312,17,o),
(347,39,c),
(400,98,l),
(396,83,ls),
(390,54,o),
(384,29,o),
(379,13,cs),
(359,-59,o),
(304,-88,o),
(237,-88,cs),
(181,-88,o),
(144,-68,o),
(148,-33,cs),
(149,-23,l),
(-25,-23,l),
(-26,-33,ls),
(-39,-155,o),
(44,-220,o),
(204,-220,cs),
(385,-220,o),
(521,-142,o),
(565,33,cs),
(572,62,o),
(581,103,o),
(588,136,cs)
);
},
{
closed = 1;
nodes = (
(229,128,o),
(189,176,o),
(210,276,cs),
(234,385,o),
(290,426,o),
(360,426,cs),
(414,426,o),
(462,390,o),
(439,283,cs),
(438,280,ls),
(414,168,o),
(358,128,o),
(292,128,cs)
);
}
);
width = 669;
}
);
note = gdotaccent;
unicode = 289;
},
{
glyphname = h;
lastChange = "2022-11-29 13:08:13 +0000";
layers = (
{
hints = (
{
horizontal = 1;
place = (-56, 21);
target = up;
type = BottomGhost;
},
{
horizontal = 1;
place = (370, 66);
place = (370, 66);
type = Stem;
},
{
horizontal = 1;
place = (684, -20);
target = down;
type = TopGhost;
},
{
place = (-2, 124);
place = (-2, 124);
type = Stem;
},
{
place = (360, 124);
place = (360, 124);
type = Stem;
}
);
layerId = m01;
shapes = (
{
closed = 1;
nodes = (
(626,496,o),
(572,548,o),
(462,548,cs),
(413,548,o),
(373,537,o),
(336,517,c),
(274,451,l),
(335,740,l),
(155,740,l),
(-2,0,l),
(178,0,l),
(231,252,ls),
(257,373,o),
(307,426,o),
(362,426,cs),
(416,426,o),
(438,396,o),
(431,345,cs),
(427,318,o),
(421,289,o),
(417,272,cs),
(360,0,l),
(540,0,l),
(604,302,ls),
(613,345,o),
(619,376,o),
(620,403,cs)
);
}
);
width = 644;
}
);
note = h;
unicode = 104;
},
{
glyphname = hbar;
lastChange = "2022-11-29 13:08:13 +0000";
layers = (
{
hints = (
{
horizontal = 1;
place = (-56, 21);
target = up;
type = BottomGhost;
},
{
horizontal = 1;
place = (519, 109);
place = (519, 109);
type = Stem;
},
{
place = (10, 124);
place = (10, 124);
type = Stem;
},
{
place = (372, 124);
place = (372, 124);
type = Stem;
},
{
horizontal = 1;
place = (370, 66);
place = (370, 66);
type = Stem;
},
{
horizontal = 1;
place = (519, 40);
place = (519, 40);
type = Stem;
}
);
layerId = m01;
shapes = (
{
closed = 1;
nodes = (
(638,496,o),
(584,548,o),
(474,548,cs),
(425,548,o),
(385,537,o),
(348,517,c),
(286,451,l),
(312,575,l),
(420,575,l),
(440,671,l),
(332,671,l),
(347,740,l),
(167,740,l),
(152,671,l),
(100,671,l),
(80,575,l),
(132,575,l),
(10,0,l),
(190,0,l),
(243,252,ls),
(269,373,o),
(319,426,o),
(374,426,cs),
(428,426,o),
(450,396,o),
(443,345,cs),
(439,318,o),
(433,289,o),
(429,272,cs),
(372,0,l),
(552,0,l),
(616,302,ls),
(625,345,o),
(631,376,o),
(632,403,cs)
);
}
);
width = 656;
}
);
note = hbar;
unicode = 295;
},
{
glyphname = i;
kernLeft = i;
lastChange = "2022-11-29 13:08:13 +0000";
layers = (
{
hints = (
{
horizontal = 1;
place = (-56, 21);
target = up;
type = BottomGhost;
},
{
horizontal = 1;
place = (478, -20);
target = down;
type = TopGhost;
},
{
horizontal = 1;
place = (519, 120);
place = (519, 120);
type = Stem;
},
{
place = (-5, 130);
place = (-5, 130);
type = Stem;
},
{
place = (-2, 124);
place = (-2, 124);
type = Stem;
}
);
layerId = m01;
shapes = (
{
closed = 1;
nodes = (
(178,0,l),
(291,534,l),
(111,534,l),
(-2,0,l)
);
},
{
closed = 1;
nodes = (
(118,572,l),
(301,572,l),
(339,748,l),
(156,748,l)
);
}
);
width = 288;
}
);
note = i;
unicode = 105;
},
{
glyphname = dotlessi;
kernLeft = i;
lastChange = "2022-11-29 13:08:13 +0000";
layers = (
{
hints = (
{
horizontal = 1;
place = (-56, 21);
target = up;
type = BottomGhost;
},
{
horizontal = 1;
place = (478, -20);
target = down;
type = TopGhost;
},
{
place = (-2, 124);
place = (-2, 124);
type = Stem;
}
);
layerId = m01;
shapes = (
{
closed = 1;
nodes = (
(178,0,l),
(291,534,l),
(111,534,l),
(-2,0,l)
);
}
);
width = 288;
}
);
note = dotlessi;
unicode = 305;
},
{
glyphname = iacute;
kernLeft = i;
lastChange = "2022-11-29 13:08:13 +0000";
layers = (
{
hints = (
{
horizontal = 1;
place = (-56, 21);
target = up;
type = BottomGhost;
},
{
horizontal = 1;
place = (478, -20);
target = down;
type = TopGhost;
},
{
horizontal = 1;
place = (515, 69);
place = (515, 69);
type = Stem;
},
{
place = (-2, 124);
place = (-2, 124);
type = Stem;
}
);
layerId = m01;
shapes = (
{
closed = 1;
nodes = (
(251,571,l),
(433,696,l),
(273,696,l),
(155,571,l)
);
},
{
closed = 1;
nodes = (
(178,0,l),
(291,534,l),
(111,534,l),
(-2,0,l)
);
}
);
width = 288;
}
);
note = iacute;
unicode = 237;
},
{
glyphname = icircumflex;
kernLeft = i;
lastChange = "2022-11-29 13:08:13 +0000";
layers = (
{
hints = (
{
horizontal = 1;
place = (-56, 21);
target = up;
type = BottomGhost;
},
{
horizontal = 1;
place = (478, -20);
target = down;
type = TopGhost;
},
{
horizontal = 1;
place = (515, 69);
place = (515, 69);
type = Stem;
},
{
place = (-2, 124);
place = (-2, 124);
type = Stem;
},
{
horizontal = 1;
place = (591, -7);
place = (591, -7);
type = Stem;
}
);
layerId = m01;
shapes = (
{
closed = 1;
nodes = (
(176,571,l),
(224,647,l),
(242,571,l),
(346,571,l),
(311,696,l),
(162,696,l),
(73,571,l)
);
},
{
closed = 1;
nodes = (
(111,534,l),
(-2,0,l),
(178,0,l),
(291,534,l)
);
}
);
width = 288;
}
);
note = icircumflex;
unicode = 238;
},
{
glyphname = idieresis;
kernLeft = i;
lastChange = "2022-11-29 13:08:13 +0000";
layers = (
{
hints = (
{
horizontal = 1;
place = (-56, 21);
target = up;
type = BottomGhost;
},
{
horizontal = 1;
place = (478, -20);
target = down;
type = TopGhost;
},
{
horizontal = 1;
place = (513, 90);
place = (513, 90);
type = Stem;
},
{
place = (-2, 124);
place = (-2, 124);
type = Stem;
},
{
place = (-87, 94);
place = (-87, 94);
type = Stem;
},
{
place = (113, 94);
place = (113, 94);
type = Stem;
}
);
layerId = m01;
shapes = (
{
closed = 1;
nodes = (
(178,0,l),
(291,534,l),
(111,534,l),
(-2,0,l)
);
},
{
closed = 1;
nodes = (
(36,569,l),
(186,569,l),
(217,716,l),
(67,716,l)
);
},
{
closed = 1;
nodes = (
(237,569,l),
(387,569,l),
(418,716,l),
(268,716,l)
);
}
);
width = 288;
}
);
note = idieresis;
unicode = 239;
},
{
glyphname = igrave;
kernLeft = i;
lastChange = "2022-11-29 13:08:13 +0000";
layers = (
{
hints = (
{
horizontal = 1;
place = (-56, 21);
target = up;
type = BottomGhost;
},
{
horizontal = 1;
place = (478, -20);
target = down;
type = TopGhost;
},
{
horizontal = 1;
place = (515, 69);
place = (515, 69);
type = Stem;
},
{
place = (-2, 124);
place = (-2, 124);
type = Stem;
}
);
layerId = m01;
shapes = (
{
closed = 1;
nodes = (
(278,571,l),
(214,696,l),
(54,696,l),
(182,571,l)
);
},
{
closed = 1;
nodes = (
(178,0,l),
(291,534,l),
(111,534,l),
(-2,0,l)
);
}
);
width = 288;
}
);
note = igrave;
unicode = 236;
},
{
glyphname = ij;
kernLeft = i;
lastChange = "2022-11-29 13:08:13 +0000";
layers = (
{
hints = (
{
horizontal = 1;
place = (-266, 69);
place = (-266, 69);
type = Stem;
},
{
horizontal = 1;
place = (-56, 21);
target = up;
type = BottomGhost;
},
{
horizontal = 1;
place = (478, -20);
target = down;
type = TopGhost;
},
{
horizontal = 1;
place = (519, 120);
place = (519, 120);
type = Stem;
},
{
place = (-5, 130);
place = (-5, 130);
type = Stem;
},
{
place = (281, 130);
place = (281, 130);
type = Stem;
},
{
place = (-2, 124);
place = (-2, 124);
type = Stem;
},
{
place = (284, 124);
place = (284, 124);
type = Stem;
}
);
layerId = m01;
shapes = (
{
closed = 1;
nodes = (
(178,0,l),
(291,534,l),
(111,534,l),
(-2,0,l)
);
},
{
closed = 1;
nodes = (
(577,534,l),
(397,534,l),
(287,15,ls),
(284,0,o),
(279,-19,o),
(275,-33,cs),
(260,-80,o),
(227,-91,o),
(164,-85,c),
(138,-206,l),
(155,-209,o),
(176,-210,o),
(197,-210,cs),
(352,-210,o),
(423,-148,o),
(451,-48,cs),
(456,-30,o),
(463,-4,o),
(467,16,cs)
);
},
{
closed = 1;
nodes = (
(121,574,l),
(303,574,l),
(341,753,l),
(159,753,l)
);
},
{
closed = 1;
nodes = (
(404,575,l),
(589,575,l),
(626,751,l),
(441,751,l)
);
}
);
width = 570;
}
);
note = ij;
unicode = 307;
},
{
glyphname = imacron;
kernLeft = i;
lastChange = "2022-11-29 13:08:13 +0000";
layers = (
{
hints = (
{
horizontal = 1;
place = (-56, 21);
target = up;
type = BottomGhost;
},
{
horizontal = 1;
place = (478, -20);
target = down;
type = TopGhost;
},
{
horizontal = 1;
place = (530, 40);
place = (530, 40);
type = Stem;
},
{
place = (-2, 124);
place = (-2, 124);
type = Stem;
}
);
layerId = m01;
shapes = (
{
closed = 1;
nodes = (
(362,586,l),
(383,682,l),
(83,682,l),
(62,586,l)
);
},
{
closed = 1;
nodes = (
(178,0,l),
(291,534,l),
(111,534,l),
(-2,0,l)
);
}
);
width = 288;
}
);
note = imacron;
unicode = 299;
},
{
glyphname = iogonek;
kernLeft = i;
lastChange = "2022-11-29 13:08:13 +0000";
layers = (
{
hints = (
{
horizontal = 1;
place = (-279, 46);
place = (-279, 46);
type = Stem;
},
{
horizontal = 1;
place = (-56, 21);
target = up;
type = BottomGhost;
},
{
horizontal = 1;
place = (478, -20);
target = down;
type = TopGhost;
},
{
horizontal = 1;
place = (519, 120);
place = (519, 120);
type = Stem;
},
{
place = (-5, 130);
place = (-5, 130);
type = Stem;
},
{
place = (-2, 124);
place = (-2, 124);
type = Stem;
}
);
layerId = m01;
shapes = (
{
closed = 1;
nodes = (
(266,575,o),
(310,609,o),
(322,663,cs),
(333,717,o),
(303,751,o),
(247,751,cs),
(191,751,o),
(147,717,o),
(136,663,cs),
(124,609,o),
(154,575,o),
(210,575,cs)
);
},
{
closed = 1;
nodes = (
(111,534,l),
(-1,5,l),
(-52,-20,o),
(-105,-77,o),
(-117,-137,cs),
(-131,-201,o),
(-88,-223,o),
(-22,-223,cs),
(42,-223,o),
(89,-202,o),
(124,-173,c),
(139,-100,l),
(120,-115,o),
(105,-121,o),
(91,-121,cs),
(71,-121,o),
(53,-108,o),
(61,-70,cs),
(69,-32,o),
(96,0,o),
(121,0,cs),
(178,0,l),
(291,534,l)
);
}
);
width = 288;
}
);
note = iogonek;
unicode = 303;
},
{
glyphname = j;
lastChange = "2022-11-29 13:08:13 +0000";
layers = (
{
hints = (
{
horizontal = 1;
place = (-266, 69);
place = (-266, 69);
type = Stem;
},
{
horizontal = 1;
place = (478, -20);
target = down;
type = TopGhost;
},
{
horizontal = 1;
place = (519, 120);
place = (519, 120);
type = Stem;
},
{
place = (-7, 130);
place = (-7, 130);
type = Stem;
},
{
place = (-4, 124);
place = (-4, 124);
type = Stem;
}
);
layerId = m01;
shapes = (
{
closed = 1;
nodes = (
(289,534,l),
(109,534,l),
(-1,15,ls),
(-4,0,o),
(-9,-19,o),
(-13,-33,cs),
(-28,-80,o),
(-61,-91,o),
(-124,-85,c),
(-150,-206,l),
(-133,-209,o),
(-112,-210,o),
(-91,-210,cs),
(64,-210,o),
(135,-148,o),
(163,-48,cs),
(168,-30,o),
(175,-4,o),
(179,16,cs)
);
},
{
closed = 1;
nodes = (
(118,575,l),
(298,575,l),
(335,750,l),
(155,750,l)
);
}
);
width = 282;
}
);
note = j;
unicode = 106;
},
{
glyphname = k;
kernRight = k;
lastChange = "2022-11-29 13:08:13 +0000";
layers = (
{
hints = (
{
horizontal = 1;
place = (-56, 21);
target = up;
type = BottomGhost;
},
{
horizontal = 1;
place = (478, -20);
target = down;
type = TopGhost;
},
{
horizontal = 1;
place = (679, -20);
target = down;
type = TopGhost;
},
{
place = (-2, 124);
place = (-2, 124);
type = Stem;
}
);
layerId = m01;
shapes = (
{
closed = 1;
nodes = (
(258,198,l),
(359,0,l),
(580,0,l),
(412,289,l),
(690,534,l),
(479,534,l),
(244,310,l),
(334,735,l),
(154,735,l),
(-2,0,l),
(178,0,l),
(211,156,l)
);
}
);
width = 632;
}
);
note = k;
unicode = 107;
},
{
glyphname = kcommaaccent;
kernRight = k;
lastChange = "2022-11-29 13:08:13 +0000";
layers = (
{
hints = (
{
horizontal = 1;
place = (-272, 123);
place = (-272, 123);
type = Stem;
},
{
horizontal = 1;
place = (-56, 21);
target = up;
type = BottomGhost;
},
{
horizontal = 1;
place = (478, -20);
target = down;
type = TopGhost;
},
{
horizontal = 1;
place = (679, -20);
target = down;
type = TopGhost;
},
{
place = (-2, 124);
place = (-2, 124);
type = Stem;
}
);
layerId = m01;
shapes = (
{
closed = 1;
nodes = (
(580,0,l),
(412,289,l),
(690,534,l),
(479,534,l),
(244,310,l),
(334,735,l),
(154,735,l),
(-2,0,l),
(178,0,l),
(211,156,l),
(258,198,l),
(359,0,l)
);
},
{
closed = 1;
nodes = (
(218,-37,l),
(96,-216,l),
(193,-216,l),
(330,-47,l),
(332,-37,l)
);
}
);
width = 632;
}
);
note = kcommaaccent;
unicode = 311;
},
{
glyphname = l;
kernRight = l;
lastChange = "2022-11-29 13:08:13 +0000";
layers = (
{
hints = (
{
horizontal = 1;
place = (-61, 21);
target = up;
type = BottomGhost;
},
{
horizontal = 1;
place = (679, -20);
target = down;
type = TopGhost;
},
{
place = (-6, 124);
place = (-6, 124);
type = Stem;
},
{
horizontal = 1;
place = (-66, 71);
place = (-66, 71);
type = Stem;
}
);
layerId = m01;
shapes = (
{
closed = 1;
nodes = (
(330,735,l),
(150,735,l),
(34,189,ls),
(25,149,o),
(20,122,o),
(16,94,cs),
(5,23,o),
(45,-10,o),
(128,-10,cs),
(168,-10,o),
(200,-8,o),
(234,-5,c),
(260,117,l),
(212,115,o),
(205,122,o),
(206,143,cs),
(207,156,o),
(209,167,o),
(214,192,cs)
);
}
);
width = 305;
}
);
note = l;
unicode = 108;
},
{
glyphname = lacute;
kernRight = l;
lastChange = "2022-11-29 13:08:13 +0000";
layers = (
{
hints = (
{
horizontal = 1;
place = (-61, 21);
target = up;
type = BottomGhost;
},
{
horizontal = 1;
place = (679, -20);
target = down;
type = TopGhost;
},
{
horizontal = 1;
place = (723, 69);
place = (723, 69);
type = Stem;
},
{
place = (-6, 124);
place = (-6, 124);
type = Stem;
},
{
horizontal = 1;
place = (-66, 71);
place = (-66, 71);
type = Stem;
}
);
layerId = m01;
shapes = (
{
closed = 1;
nodes = (
(284,779,l),
(466,904,l),
(306,904,l),
(188,779,l)
);
},
{
closed = 1;
nodes = (
(330,735,l),
(150,735,l),
(34,189,ls),
(25,149,o),
(20,122,o),
(16,94,cs),
(5,23,o),
(45,-10,o),
(128,-10,cs),
(168,-10,o),
(200,-8,o),
(234,-5,c),
(260,117,l),
(212,115,o),
(205,122,o),
(206,143,cs),
(207,156,o),
(209,167,o),
(214,192,cs)
);
}
);
width = 305;
}
);
note = lacute;
unicode = 314;
},
{
glyphname = lcaron;
kernRight = l;
lastChange = "2022-11-29 13:08:13 +0000";
layers = (
{
hints = (
{
horizontal = 1;
place = (-61, 21);
target = up;
type = BottomGhost;
},
{
horizontal = 1;
place = (679, -20);
target = down;
type = TopGhost;
},
{
place = (-6, 124);
place = (-6, 124);
type = Stem;
},
{
horizontal = 1;
place = (-66, 71);
place = (-66, 71);
type = Stem;
}
);
layerId = m01;
shapes = (
{
closed = 1;
nodes = (
(330,735,l),
(150,735,l),
(34,189,ls),
(25,149,o),
(20,122,o),
(16,94,cs),
(5,23,o),
(45,-10,o),
(128,-10,cs),
(168,-10,o),
(200,-8,o),
(234,-5,c),
(260,117,l),
(212,115,o),
(205,122,o),
(206,143,cs),
(207,156,o),
(209,167,o),
(214,192,cs)
);
}
);
width = 305;
}
);
note = lcaron;
unicode = 318;
},
{
glyphname = lcommaaccent;
kernRight = l;
lastChange = "2022-11-29 13:08:13 +0000";
layers = (
{
hints = (
{
horizontal = 1;
place = (-272, 123);
place = (-272, 123);
type = Stem;
},
{
horizontal = 1;
place = (-61, 21);
target = up;
type = BottomGhost;
},
{
horizontal = 1;
place = (679, -20);
target = down;
type = TopGhost;
},
{
place = (-6, 124);
place = (-6, 124);
type = Stem;
},
{
horizontal = 1;
place = (-66, 71);
place = (-66, 71);
type = Stem;
}
);
layerId = m01;
shapes = (
{
closed = 1;
nodes = (
(330,735,l),
(150,735,l),
(34,189,ls),
(25,149,o),
(20,122,o),
(16,94,cs),
(5,23,o),
(45,-10,o),
(128,-10,cs),
(168,-10,o),
(200,-8,o),
(234,-5,c),
(260,117,l),
(212,115,o),
(205,122,o),
(206,143,cs),
(207,156,o),
(209,167,o),
(214,192,cs)
);
},
{
closed = 1;
nodes = (
(170,-47,l),
(172,-37,l),
(58,-37,l),
(-64,-216,l),
(33,-216,l)
);
}
);
width = 305;
}
);
note = lcommaaccent;
unicode = 316;
},
{
glyphname = ldot;
kernRight = l;
lastChange = "2022-11-29 13:08:13 +0000";
layers = (
{
hints = (
{
horizontal = 1;
place = (-61, 21);
target = up;
type = BottomGhost;
},
{
horizontal = 1;
place = (256, 120);
place = (256, 120);
type = Stem;
},
{
horizontal = 1;
place = (679, -20);
target = down;
type = TopGhost;
},
{
place = (-6, 124);
place = (-6, 124);
type = Stem;
},
{
horizontal = 1;
place = (-66, 71);
place = (-66, 71);
type = Stem;
},
{
place = (231, 130);
place = (231, 130);
type = Stem;
}
);
layerId = m01;
shapes = (
{
closed = 1;
nodes = (
(330,735,l),
(150,735,l),
(34,189,ls),
(25,149,o),
(20,122,o),
(16,94,cs),
(5,23,o),
(45,-10,o),
(128,-10,cs),
(168,-10,o),
(200,-8,o),
(234,-5,c),
(260,117,l),
(212,115,o),
(205,122,o),
(206,143,cs),
(207,156,o),
(209,167,o),
(214,192,cs)
);
},
{
closed = 1;
nodes = (
(373,488,o),
(327,452,o),
(316,400,cs),
(305,348,o),
(336,312,o),
(390,312,cs),
(444,312,o),
(491,348,o),
(502,400,cs),
(513,452,o),
(481,488,o),
(427,488,cs)
);
}
);
width = 480;
}
);
note = ldot;
unicode = 320;
},
{
glyphname = lslash;
lastChange = "2022-11-29 13:08:13 +0000";
layers = (
{
hints = (
{
horizontal = 1;
place = (-66, 71);
place = (-66, 71);
type = Stem;
},
{
horizontal = 1;
place = (679, -20);
target = down;
type = TopGhost;
},
{
place = (16, 124);
place = (16, 124);
type = Stem;
}
);
layerId = m01;
shapes = (
{
closed = 1;
nodes = (
(229,156,o),
(231,167,o),
(236,192,cs),
(264,320,l),
(332,358,l),
(357,477,l),
(289,439,l),
(352,735,l),
(172,735,l),
(85,325,l),
(17,287,l),
(-9,168,l),
(59,206,l),
(56,189,ls),
(47,149,o),
(42,122,o),
(38,94,cs),
(27,23,o),
(67,-10,o),
(150,-10,cs),
(190,-10,o),
(222,-8,o),
(256,-5,c),
(282,117,l),
(234,115,o),
(227,122,o),
(228,143,cs)
);
}
);
width = 337;
}
);
note = lslash;
unicode = 322;
},
{
glyphname = m;
kernLeft = m;
lastChange = "2022-11-29 13:08:13 +0000";
layers = (
{
hints = (
{
horizontal = 1;
place = (-56, 21);
target = up;
type = BottomGhost;
},
{
horizontal = 1;
place = (370, 52);
place = (370, 52);
type = Stem;
},
{
place = (-2, 124);
place = (-2, 124);
type = Stem;
},
{
place = (340, 124);
place = (340, 124);
type = Stem;
},
{
place = (682, 124);
place = (682, 124);
type = Stem;
},
{
horizontal = 1;
place = (370, 66);
place = (370, 66);
type = Stem;
}
);
layerId = m01;
shapes = (
{
closed = 1;
nodes = (
(948,486,o),
(901,548,o),
(794,548,cs),
(745,548,o),
(710,537,o),
(673,517,c),
(601,444,l),
(591,503,o),
(543,548,o),
(452,548,cs),
(403,548,o),
(368,537,o),
(331,517,c),
(273,448,l),
(291,534,l),
(111,534,l),
(-2,0,l),
(178,0,l),
(238,282,ls),
(257,373,o),
(291,426,o),
(349,426,cs),
(396,426,o),
(414,396,o),
(409,345,cs),
(406,318,o),
(401,289,o),
(397,272,cs),
(340,0,l),
(520,0,l),
(580,282,ls),
(599,373,o),
(633,426,o),
(691,426,cs),
(738,426,o),
(756,396,o),
(751,345,cs),
(748,318,o),
(743,289,o),
(739,272,cs),
(682,0,l),
(862,0,l),
(928,312,ls),
(937,355,o),
(943,386,o),
(944,413,cs)
);
}
);
width = 966;
}
);
note = m;
unicode = 109;
},
{
glyphname = n;
kernLeft = m;
lastChange = "2022-11-29 13:08:13 +0000";
layers = (
{
hints = (
{
horizontal = 1;
place = (-56, 21);
target = up;
type = BottomGhost;
},
{
horizontal = 1;
place = (370, 52);
place = (370, 52);
type = Stem;
},
{
place = (-2, 124);
place = (-2, 124);
type = Stem;
},
{
place = (360, 124);
place = (360, 124);
type = Stem;
},
{
horizontal = 1;
place = (370, 66);
place = (370, 66);
type = Stem;
}
);
layerId = m01;
shapes = (
{
closed = 1;
nodes = (
(626,496,o),
(572,548,o),
(462,548,cs),
(413,548,o),
(373,537,o),
(336,517,c),
(274,451,l),
(291,534,l),
(111,534,l),
(-2,0,l),
(178,0,l),
(231,252,ls),
(257,373,o),
(307,426,o),
(362,426,cs),
(416,426,o),
(438,396,o),
(431,345,cs),
(427,318,o),
(421,289,o),
(417,272,cs),
(360,0,l),
(540,0,l),
(604,302,ls),
(613,345,o),
(619,376,o),
(620,403,cs)
);
}
);
width = 644;
}
);
note = n;
unicode = 110;
},
{
glyphname = nacute;
kernLeft = m;
lastChange = "2022-11-29 13:08:13 +0000";
layers = (
{
hints = (
{
horizontal = 1;
place = (-56, 21);
target = up;
type = BottomGhost;
},
{
horizontal = 1;
place = (370, 52);
place = (370, 52);
type = Stem;
},
{
horizontal = 1;
place = (515, 69);
place = (515, 69);
type = Stem;
},
{
place = (-2, 124);
place = (-2, 124);
type = Stem;
},
{
place = (360, 124);
place = (360, 124);
type = Stem;
},
{
horizontal = 1;
place = (370, 66);
place = (370, 66);
type = Stem;
}
);
layerId = m01;
shapes = (
{
closed = 1;
nodes = (
(428,571,l),
(610,696,l),
(450,696,l),
(332,571,l)
);
},
{
closed = 1;
nodes = (
(626,496,o),
(572,548,o),
(462,548,cs),
(413,548,o),
(373,537,o),
(336,517,c),
(274,451,l),
(291,534,l),
(111,534,l),
(-2,0,l),
(178,0,l),
(231,252,ls),
(257,373,o),
(307,426,o),
(362,426,cs),
(416,426,o),
(438,396,o),
(431,345,cs),
(427,318,o),
(421,289,o),
(417,272,cs),
(360,0,l),
(540,0,l),
(604,302,ls),
(613,345,o),
(619,376,o),
(620,403,cs)
);
}
);
width = 644;
}
);
note = nacute;
unicode = 324;
},
{
glyphname = ncaron;
kernLeft = m;
lastChange = "2022-11-29 13:08:13 +0000";
layers = (
{
hints = (
{
horizontal = 1;
place = (-56, 21);
target = up;
type = BottomGhost;
},
{
horizontal = 1;
place = (370, 52);
place = (370, 52);
type = Stem;
},
{
horizontal = 1;
place = (515, 69);
place = (515, 69);
type = Stem;
},
{
place = (-2, 124);
place = (-2, 124);
type = Stem;
},
{
place = (360, 124);
place = (360, 124);
type = Stem;
},
{
horizontal = 1;
place = (370, 66);
place = (370, 66);
type = Stem;
}
);
layerId = m01;
shapes = (
{
closed = 1;
nodes = (
(312,571,l),
(461,571,l),
(550,696,l),
(447,696,l),
(398,620,l),
(381,696,l),
(277,696,l)
);
},
{
closed = 1;
nodes = (
(626,496,o),
(572,548,o),
(462,548,cs),
(413,548,o),
(373,537,o),
(336,517,c),
(274,451,l),
(291,534,l),
(111,534,l),
(-2,0,l),
(178,0,l),
(231,252,ls),
(257,373,o),
(307,426,o),
(362,426,cs),
(416,426,o),
(438,396,o),
(431,345,cs),
(427,318,o),
(421,289,o),
(417,272,cs),
(360,0,l),
(540,0,l),
(604,302,ls),
(613,345,o),
(619,376,o),
(620,403,cs)
);
}
);
width = 644;
}
);
note = ncaron;
unicode = 328;
},
{
glyphname = ncommaaccent;
kernLeft = m;
lastChange = "2022-11-29 13:08:13 +0000";
layers = (
{
hints = (
{
horizontal = 1;
place = (-272, 123);
place = (-272, 123);
type = Stem;
},
{
horizontal = 1;
place = (-56, 21);
target = up;
type = BottomGhost;
},
{
horizontal = 1;
place = (370, 52);
place = (370, 52);
type = Stem;
},
{
place = (-2, 124);
place = (-2, 124);
type = Stem;
},
{
place = (360, 124);
place = (360, 124);
type = Stem;
},
{
horizontal = 1;
place = (370, 66);
place = (370, 66);
type = Stem;
}
);
layerId = m01;
shapes = (
{
closed = 1;
nodes = (
(626,496,o),
(572,548,o),
(462,548,cs),
(413,548,o),
(373,537,o),
(336,517,c),
(274,451,l),
(291,534,l),
(111,534,l),
(-2,0,l),
(178,0,l),
(231,252,ls),
(257,373,o),
(307,426,o),
(362,426,cs),
(416,426,o),
(438,396,o),
(431,345,cs),
(427,318,o),
(421,289,o),
(417,272,cs),
(360,0,l),
(540,0,l),
(604,302,ls),
(613,345,o),
(619,376,o),
(620,403,cs)
);
},
{
closed = 1;
nodes = (
(217,-37,l),
(95,-216,l),
(192,-216,l),
(329,-47,l),
(331,-37,l)
);
}
);
width = 644;
}
);
note = ncommaaccent;
unicode = 326;
},
{
glyphname = eng;
kernLeft = m;
lastChange = "2022-11-29 13:08:13 +0000";
layers = (
{
hints = (
{
horizontal = 1;
place = (-266, 76);
place = (-266, 76);
type = Stem;
},
{
horizontal = 1;
place = (-56, 21);
target = up;
type = BottomGhost;
},
{
horizontal = 1;
place = (370, 52);
place = (370, 52);
type = Stem;
},
{
place = (-2, 124);
place = (-2, 124);
type = Stem;
},
{
place = (360, 124);
place = (360, 124);
type = Stem;
},
{
horizontal = 1;
place = (370, 66);
place = (370, 66);
type = Stem;
}
);
layerId = m01;
shapes = (
{
closed = 1;
nodes = (
(626,496,o),
(572,548,o),
(462,548,cs),
(413,548,o),
(373,537,o),
(336,517,c),
(274,451,l),
(291,534,l),
(111,534,l),
(-2,0,l),
(178,0,l),
(231,252,ls),
(257,373,o),
(307,426,o),
(362,426,cs),
(416,426,o),
(438,396,o),
(431,345,cs),
(427,318,o),
(421,289,o),
(417,272,cs),
(359,-3,ls),
(357,-13,o),
(354,-26,o),
(351,-35,cs),
(340,-69,o),
(313,-78,o),
(268,-78,c),
(240,-210,l),
(436,-210,o),
(495,-163,o),
(523,-75,cs),
(527,-61,o),
(529,-52,o),
(532,-34,cs),
(604,302,ls),
(613,345,o),
(619,376,o),
(620,403,cs)
);
}
);
width = 644;
}
);
note = eng;
unicode = 331;
},
{
glyphname = ntilde;
kernLeft = m;
lastChange = "2022-11-29 13:08:13 +0000";
layers = (
{
hints = (
{
horizontal = 1;
place = (-56, 21);
target = up;
type = BottomGhost;
},
{
horizontal = 1;
place = (370, 52);
place = (370, 52);
type = Stem;
},
{
horizontal = 1;
place = (518, 78);
place = (518, 78);
type = Stem;
},
{
place = (101, 40);
place = (101, 40);
type = Stem;
},
{
place = (360, 124);
place = (360, 124);
type = Stem;
},
{
horizontal = 1;
place = (515, 78);
place = (515, 78);
type = Stem;
},
{
place = (-2, 124);
place = (-2, 124);
type = Stem;
},
{
place = (333, 40);
place = (333, 40);
type = Stem;
},
{
horizontal = 1;
place = (515, 47);
place = (515, 47);
type = Stem;
},
{
horizontal = 1;
place = (370, 66);
place = (370, 66);
type = Stem;
}
);
layerId = m01;
shapes = (
{
closed = 1;
nodes = (
(348,605,o),
(360,600,o),
(382,590,cs),
(416,574,o),
(431,571,o),
(460,571,cs),
(522,571,o),
(559,612,o),
(579,705,c),
(483,705,l),
(478,683,o),
(472,674,o),
(461,674,cs),
(453,674,o),
(441,678,o),
(419,689,cs),
(387,705,o),
(370,708,o),
(341,708,cs),
(279,708,o),
(242,667,o),
(223,574,c),
(319,574,l),
(323,596,o),
(329,605,o),
(340,605,cs)
);
},
{
closed = 1;
nodes = (
(626,496,o),
(572,548,o),
(462,548,cs),
(413,548,o),
(373,537,o),
(336,517,c),
(274,451,l),
(291,534,l),
(111,534,l),
(-2,0,l),
(178,0,l),
(231,252,ls),
(257,373,o),
(307,426,o),
(362,426,cs),
(416,426,o),
(438,396,o),
(431,345,cs),
(427,318,o),
(421,289,o),
(417,272,cs),
(360,0,l),
(540,0,l),
(604,302,ls),
(613,345,o),
(619,376,o),
(620,403,cs)
);
}
);
width = 644;
}
);
note = ntilde;
unicode = 241;
},
{
glyphname = o;
kernLeft = c;
kernRight = b;
lastChange = "2022-11-29 13:08:13 +0000";
layers = (
{
hints = (
{
horizontal = 1;
place = (-70, 66);
place = (-70, 66);
type = Stem;
},
{
horizontal = 1;
place = (370, 66);
place = (370, 66);
type = Stem;
},
{
place = (-32, 128);
place = (-32, 128);
type = Stem;
},
{
place = (358, 128);
place = (358, 128);
type = Stem;
}
);
layerId = m01;
shapes = (
{
closed = 1;
nodes = (
(196,548,o),
(61,439,o),
(24,267,cs),
(-12,96,o),
(77,-14,o),
(252,-14,cs),
(427,-14,o),
(562,96,o),
(598,267,cs),
(635,439,o),
(546,548,o),
(371,548,cs)
);
},
{
closed = 1;
nodes = (
(214,108,o),
(186,161,o),
(208,267,cs),
(231,374,o),
(281,426,o),
(345,426,cs),
(409,426,o),
(437,374,o),
(414,267,cs),
(392,161,o),
(342,108,o),
(278,108,cs)
);
}
);
width = 622;
}
);
note = o;
unicode = 111;
},
{
glyphname = oacute;
kernLeft = c;
kernRight = b;
lastChange = "2022-11-29 13:08:13 +0000";
layers = (
{
hints = (
{
horizontal = 1;
place = (-70, 66);
place = (-70, 66);
type = Stem;
},
{
horizontal = 1;
place = (515, 69);
place = (515, 69);
type = Stem;
},
{
place = (-32, 128);
place = (-32, 128);
type = Stem;
},
{
place = (358, 128);
place = (358, 128);
type = Stem;
},
{
horizontal = 1;
place = (370, 66);
place = (370, 66);
type = Stem;
}
);
layerId = m01;
shapes = (
{
closed = 1;
nodes = (
(418,571,l),
(600,696,l),
(440,696,l),
(322,571,l)
);
},
{
closed = 1;
nodes = (
(196,548,o),
(61,439,o),
(24,267,cs),
(-12,96,o),
(77,-14,o),
(252,-14,cs),
(427,-14,o),
(562,96,o),
(598,267,cs),
(635,439,o),
(546,548,o),
(371,548,cs)
);
},
{
closed = 1;
nodes = (
(214,108,o),
(186,161,o),
(208,267,cs),
(231,374,o),
(281,426,o),
(345,426,cs),
(409,426,o),
(437,374,o),
(414,267,cs),
(392,161,o),
(342,108,o),
(278,108,cs)
);
}
);
width = 622;
}
);
note = oacute;
unicode = 243;
},
{
glyphname = ocircumflex;
kernLeft = c;
kernRight = b;
lastChange = "2022-11-29 13:08:13 +0000";
layers = (
{
hints = (
{
horizontal = 1;
place = (-70, 66);
place = (-70, 66);
type = Stem;
},
{
horizontal = 1;
place = (515, 69);
place = (515, 69);
type = Stem;
},
{
place = (-32, 128);
place = (-32, 128);
type = Stem;
},
{
place = (358, 128);
place = (358, 128);
type = Stem;
},
{
horizontal = 1;
place = (591, -7);
place = (591, -7);
type = Stem;
},
{
horizontal = 1;
place = (370, 66);
place = (370, 66);
type = Stem;
}
);
layerId = m01;
shapes = (
{
closed = 1;
nodes = (
(343,571,l),
(391,647,l),
(409,571,l),
(513,571,l),
(478,696,l),
(329,696,l),
(240,571,l)
);
},
{
closed = 1;
nodes = (
(196,548,o),
(61,439,o),
(24,267,cs),
(-12,96,o),
(77,-14,o),
(252,-14,cs),
(427,-14,o),
(562,96,o),
(598,267,cs),
(635,439,o),
(546,548,o),
(371,548,cs)
);
},
{
closed = 1;
nodes = (
(214,108,o),
(186,161,o),
(208,267,cs),
(231,374,o),
(281,426,o),
(345,426,cs),
(409,426,o),
(437,374,o),
(414,267,cs),
(392,161,o),
(342,108,o),
(278,108,cs)
);
}
);
width = 622;
}
);
note = ocircumflex;
unicode = 244;
},
{
glyphname = odieresis;
kernLeft = c;
kernRight = b;
lastChange = "2022-11-29 13:08:13 +0000";
layers = (
{
hints = (
{
horizontal = 1;
place = (-70, 66);
place = (-70, 66);
type = Stem;
},
{
horizontal = 1;
place = (370, 66);
place = (370, 66);
type = Stem;
},
{
horizontal = 1;
place = (513, 90);
place = (513, 90);
type = Stem;
},
{
place = (80, 94);
place = (80, 94);
type = Stem;
},
{
place = (280, 94);
place = (280, 94);
type = Stem;
},
{
place = (-32, 128);
place = (-32, 128);
type = Stem;
},
{
place = (358, 128);
place = (358, 128);
type = Stem;
}
);
layerId = m01;
shapes = (
{
closed = 1;
nodes = (
(196,548,o),
(61,439,o),
(24,267,cs),
(-12,96,o),
(77,-14,o),
(252,-14,cs),
(427,-14,o),
(562,96,o),
(598,267,cs),
(635,439,o),
(546,548,o),
(371,548,cs)
);
},
{
closed = 1;
nodes = (
(214,108,o),
(186,161,o),
(208,267,cs),
(231,374,o),
(281,426,o),
(345,426,cs),
(409,426,o),
(437,374,o),
(414,267,cs),
(392,161,o),
(342,108,o),
(278,108,cs)
);
},
{
closed = 1;
nodes = (
(200,570,l),
(350,570,l),
(381,717,l),
(231,717,l)
);
},
{
closed = 1;
nodes = (
(401,570,l),
(551,570,l),
(582,717,l),
(432,717,l)
);
}
);
width = 622;
}
);
note = odieresis;
unicode = 246;
},
{
glyphname = ograve;
kernLeft = c;
kernRight = b;
lastChange = "2022-11-29 13:08:13 +0000";
layers = (
{
hints = (
{
horizontal = 1;
place = (-70, 66);
place = (-70, 66);
type = Stem;
},
{
horizontal = 1;
place = (515, 69);
place = (515, 69);
type = Stem;
},
{
place = (-32, 128);
place = (-32, 128);
type = Stem;
},
{
place = (358, 128);
place = (358, 128);
type = Stem;
},
{
horizontal = 1;
place = (370, 66);
place = (370, 66);
type = Stem;
}
);
layerId = m01;
shapes = (
{
closed = 1;
nodes = (
(349,571,l),
(445,571,l),
(381,696,l),
(221,696,l)
);
},
{
closed = 1;
nodes = (
(196,548,o),
(61,439,o),
(24,267,cs),
(-12,96,o),
(77,-14,o),
(252,-14,cs),
(427,-14,o),
(562,96,o),
(598,267,cs),
(635,439,o),
(546,548,o),
(371,548,cs)
);
},
{
closed = 1;
nodes = (
(214,108,o),
(186,161,o),
(208,267,cs),
(231,374,o),
(281,426,o),
(345,426,cs),
(409,426,o),
(437,374,o),
(414,267,cs),
(392,161,o),
(342,108,o),
(278,108,cs)
);
}
);
width = 622;
}
);
note = ograve;
unicode = 242;
},
{
glyphname = ohungarumlaut;
kernLeft = c;
kernRight = b;
lastChange = "2022-11-29 13:08:13 +0000";
layers = (
{
hints = (
{
horizontal = 1;
place = (-70, 66);
place = (-70, 66);
type = Stem;
},
{
horizontal = 1;
place = (515, 69);
place = (515, 69);
type = Stem;
},
{
place = (-32, 128);
place = (-32, 128);
type = Stem;
},
{
place = (358, 128);
place = (358, 128);
type = Stem;
},
{
horizontal = 1;
place = (370, 66);
place = (370, 66);
type = Stem;
}
);
layerId = m01;
shapes = (
{
closed = 1;
nodes = (
(300,571,l),
(482,696,l),
(322,696,l),
(204,571,l)
);
},
{
closed = 1;
nodes = (
(395,571,l),
(491,571,l),
(673,696,l),
(513,696,l)
);
},
{
closed = 1;
nodes = (
(196,548,o),
(61,439,o),
(24,267,cs),
(-12,96,o),
(77,-14,o),
(252,-14,cs),
(427,-14,o),
(562,96,o),
(598,267,cs),
(635,439,o),
(546,548,o),
(371,548,cs)
);
},
{
closed = 1;
nodes = (
(214,108,o),
(186,161,o),
(208,267,cs),
(231,374,o),
(281,426,o),
(345,426,cs),
(409,426,o),
(437,374,o),
(414,267,cs),
(392,161,o),
(342,108,o),
(278,108,cs)
);
}
);
width = 622;
}
);
note = ohungarumlaut;
unicode = 337;
},
{
glyphname = omacron;
kernLeft = c;
kernRight = b;
lastChange = "2022-11-29 13:08:13 +0000";
layers = (
{
hints = (
{
horizontal = 1;
place = (-70, 66);
place = (-70, 66);
type = Stem;
},
{
horizontal = 1;
place = (370, 66);
place = (370, 66);
type = Stem;
},
{
horizontal = 1;
place = (530, 40);
place = (530, 40);
type = Stem;
},
{
place = (105, 244);
place = (105, 244);
type = Stem;
},
{
place = (-32, 128);
place = (-32, 128);
type = Stem;
},
{
place = (358, 128);
place = (358, 128);
type = Stem;
}
);
layerId = m01;
shapes = (
{
closed = 1;
nodes = (
(529,586,l),
(550,682,l),
(250,682,l),
(229,586,l)
);
},
{
closed = 1;
nodes = (
(196,548,o),
(61,439,o),
(24,267,cs),
(-12,96,o),
(77,-14,o),
(252,-14,cs),
(427,-14,o),
(562,96,o),
(598,267,cs),
(635,439,o),
(546,548,o),
(371,548,cs)
);
},
{
closed = 1;
nodes = (
(214,108,o),
(186,161,o),
(208,267,cs),
(231,374,o),
(281,426,o),
(345,426,cs),
(409,426,o),
(437,374,o),
(414,267,cs),
(392,161,o),
(342,108,o),
(278,108,cs)
);
}
);
width = 622;
}
);
note = omacron;
unicode = 333;
},
{
glyphname = oslash;
kernLeft = c;
kernRight = b;
lastChange = "2022-11-29 13:08:13 +0000";
layers = (
{
hints = (
{
horizontal = 1;
place = (-70, 66);
place = (-70, 66);
type = Stem;
},
{
horizontal = 1;
place = (370, 66);
place = (370, 66);
type = Stem;
},
{
place = (-28, 128);
place = (-28, 128);
type = Stem;
},
{
place = (362, 128);
place = (362, 128);
type = Stem;
}
);
layerId = m01;
shapes = (
{
closed = 1;
nodes = (
(667,495,l),
(611,566,l),
(535,503,l),
(496,532,o),
(441,548,o),
(375,548,cs),
(200,548,o),
(65,439,o),
(28,267,cs),
(14,200,o),
(19,142,o),
(41,96,c),
(-28,39,l),
(28,-32,l),
(101,28,l),
(139,1,o),
(192,-14,o),
(256,-14,cs),
(431,-14,o),
(566,96,o),
(602,267,cs),
(616,332,o),
(612,389,o),
(592,433,c)
);
},
{
closed = 1;
nodes = (
(235,374,o),
(285,426,o),
(349,426,cs),
(375,426,o),
(395,417,o),
(408,399,c),
(207,233,l),
(208,243,o),
(210,255,o),
(212,267,cs)
);
},
{
closed = 1;
nodes = (
(396,161,o),
(346,108,o),
(282,108,cs),
(258,108,o),
(238,116,o),
(226,131,c),
(423,294,l),
(422,285,o),
(420,276,o),
(418,267,cs)
);
}
);
width = 638;
}
);
note = oslash;
unicode = 248;
},
{
glyphname = otilde;
kernLeft = c;
kernRight = b;
lastChange = "2022-11-29 13:08:13 +0000";
layers = (
{
hints = (
{
horizontal = 1;
place = (-70, 66);
place = (-70, 66);
type = Stem;
},
{
horizontal = 1;
place = (370, 66);
place = (370, 66);
type = Stem;
},
{
horizontal = 1;
place = (518, 78);
place = (518, 78);
type = Stem;
},
{
place = (91, 40);
place = (91, 40);
type = Stem;
},
{
place = (358, 128);
place = (358, 128);
type = Stem;
},
{
horizontal = 1;
place = (515, 78);
place = (515, 78);
type = Stem;
},
{
place = (-32, 128);
place = (-32, 128);
type = Stem;
},
{
place = (323, 40);
place = (323, 40);
type = Stem;
},
{
horizontal = 1;
place = (515, 47);
place = (515, 47);
type = Stem;
}
);
layerId = m01;
shapes = (
{
closed = 1;
nodes = (
(338,605,o),
(350,600,o),
(372,590,cs),
(406,574,o),
(421,571,o),
(450,571,cs),
(512,571,o),
(549,612,o),
(569,705,c),
(473,705,l),
(468,683,o),
(462,674,o),
(451,674,cs),
(443,674,o),
(431,678,o),
(409,689,cs),
(377,705,o),
(360,708,o),
(331,708,cs),
(269,708,o),
(232,667,o),
(213,574,c),
(309,574,l),
(313,596,o),
(319,605,o),
(330,605,cs)
);
},
{
closed = 1;
nodes = (
(196,548,o),
(61,439,o),
(24,267,cs),
(-12,96,o),
(77,-14,o),
(252,-14,cs),
(427,-14,o),
(562,96,o),
(598,267,cs),
(635,439,o),
(546,548,o),
(371,548,cs)
);
},
{
closed = 1;
nodes = (
(214,108,o),
(186,161,o),
(208,267,cs),
(231,374,o),
(281,426,o),
(345,426,cs),
(409,426,o),
(437,374,o),
(414,267,cs),
(392,161,o),
(342,108,o),
(278,108,cs)
);
}
);
width = 622;
}
);
note = otilde;
unicode = 245;
},
{
glyphname = oe;
kernLeft = c;
kernRight = ae;
lastChange = "2022-11-29 13:08:13 +0000";
layers = (
{
hints = (
{
horizontal = 1;
place = (-70, 66);
place = (-70, 66);
type = Stem;
},
{
horizontal = 1;
place = (166, 54);
place = (166, 54);
type = Stem;
},
{
horizontal = 1;
place = (370, 66);
place = (370, 66);
type = Stem;
},
{
place = (-32, 128);
place = (-32, 128);
type = Stem;
},
{
place = (358, 122);
place = (358, 122);
type = Stem;
}
);
layerId = m01;
shapes = (
{
closed = 1;
nodes = (
(998,412,o),
(937,548,o),
(768,548,cs),
(685,548,o),
(608,517,o),
(547,447,c),
(515,518,o),
(449,548,o),
(371,548,cs),
(196,548,o),
(61,439,o),
(24,267,cs),
(-12,96,o),
(77,-14,o),
(252,-14,cs),
(328,-14,o),
(403,13,o),
(463,79,c),
(496,11,o),
(561,-14,o),
(635,-14,cs),
(767,-14,o),
(881,54,o),
(938,175,c),
(761,175,l),
(745,134,o),
(709,108,o),
(658,108,cs),
(607,108,o),
(573,133,o),
(583,222,c),
(955,222,l),
(961,240,o),
(966,258,o),
(969,274,cs)
);
},
{
closed = 1;
nodes = (
(214,108,o),
(186,161,o),
(208,267,cs),
(231,374,o),
(281,426,o),
(345,426,cs),
(409,426,o),
(437,374,o),
(414,267,cs),
(392,161,o),
(342,108,o),
(278,108,cs)
);
},
{
closed = 1;
nodes = (
(612,332,l),
(639,397,o),
(678,426,o),
(724,426,cs),
(773,426,o),
(797,394,o),
(793,332,c)
);
}
);
width = 991;
}
);
note = oe;
unicode = 339;
},
{
glyphname = p;
kernLeft = m;
kernRight = b;
lastChange = "2022-11-29 13:08:13 +0000";
layers = (
{
hints = (
{
horizontal = 1;
place = (-70, 66);
place = (-70, 66);
type = Stem;
},
{
horizontal = 1;
place = (370, 66);
place = (370, 66);
type = Stem;
},
{
place = (-2, 124);
place = (-2, 124);
type = Stem;
},
{
place = (405, 128);
place = (405, 128);
type = Stem;
},
{
horizontal = 1;
place = (370, 52);
place = (370, 52);
type = Stem;
}
);
layerId = m01;
shapes = (
{
closed = 1;
nodes = (
(416,548,o),
(362,537,o),
(327,515,c),
(275,456,l),
(291,534,l),
(111,534,l),
(-44,-196,l),
(136,-196,l),
(192,69,l),
(215,12,l),
(239,-4,o),
(289,-14,o),
(333,-14,cs),
(470,-14,o),
(608,89,o),
(648,279,cs),
(682,437,o),
(615,548,o),
(470,548,cs)
);
},
{
closed = 1;
nodes = (
(256,108,o),
(208,144,o),
(231,251,cs),
(236,274,ls),
(260,386,o),
(316,426,o),
(382,426,cs),
(445,426,o),
(483,370,o),
(462,270,cs),
(439,161,o),
(380,108,o),
(310,108,cs)
);
}
);
width = 669;
}
);
note = p;
unicode = 112;
},
{
glyphname = thorn;
kernRight = b;
lastChange = "2022-11-29 13:08:13 +0000";
layers = (
{
hints = (
{
horizontal = 1;
place = (-70, 66);
place = (-70, 66);
type = Stem;
},
{
horizontal = 1;
place = (370, 66);
place = (370, 66);
type = Stem;
},
{
horizontal = 1;
place = (679, -20);
target = down;
type = TopGhost;
},
{
place = (-2, 124);
place = (-2, 124);
type = Stem;
},
{
place = (405, 128);
place = (405, 128);
type = Stem;
}
);
layerId = m01;
shapes = (
{
closed = 1;
nodes = (
(416,548,o),
(362,537,o),
(327,515,c),
(275,456,l),
(334,735,l),
(154,735,l),
(-44,-196,l),
(136,-196,l),
(192,69,l),
(215,12,l),
(239,-4,o),
(289,-14,o),
(333,-14,cs),
(470,-14,o),
(608,89,o),
(648,279,cs),
(682,437,o),
(615,548,o),
(470,548,cs)
);
},
{
closed = 1;
nodes = (
(256,108,o),
(208,144,o),
(231,251,cs),
(236,274,ls),
(260,386,o),
(316,426,o),
(382,426,cs),
(445,426,o),
(483,370,o),
(462,270,cs),
(439,161,o),
(380,108,o),
(310,108,cs)
);
}
);
width = 669;
}
);
note = thorn;
unicode = 254;
},
{
glyphname = q;
kernLeft = c;
lastChange = "2022-11-29 13:08:13 +0000";
layers = (
{
hints = (
{
horizontal = 1;
place = (-70, 66);
place = (-70, 66);
type = Stem;
},
{
horizontal = 1;
place = (370, 52);
place = (370, 52);
type = Stem;
},
{
place = (-32, 128);
place = (-32, 128);
type = Stem;
},
{
place = (379, 124);
place = (379, 124);
type = Stem;
},
{
horizontal = 1;
place = (370, 66);
place = (370, 66);
type = Stem;
}
);
layerId = m01;
shapes = (
{
closed = 1;
nodes = (
(672,534,l),
(492,534,l),
(478,465,l),
(455,522,l),
(431,538,o),
(381,548,o),
(337,548,cs),
(200,548,o),
(62,445,o),
(22,255,cs),
(-12,97,o),
(55,-14,o),
(200,-14,cs),
(254,-14,o),
(308,-3,o),
(343,19,c),
(395,78,l),
(337,-196,l),
(517,-196,l)
);
},
{
closed = 1;
nodes = (
(225,108,o),
(187,164,o),
(208,264,cs),
(231,373,o),
(290,426,o),
(360,426,cs),
(414,426,o),
(462,390,o),
(439,283,cs),
(434,260,ls),
(410,148,o),
(354,108,o),
(288,108,cs)
);
}
);
width = 669;
}
);
note = q;
unicode = 113;
},
{
glyphname = r;
kernLeft = m;
lastChange = "2022-11-29 13:08:13 +0000";
layers = (
{
hints = (
{
horizontal = 1;
place = (-56, 21);
target = up;
type = BottomGhost;
},
{
horizontal = 1;
place = (492, -20);
target = down;
type = TopGhost;
},
{
place = (-2, 124);
place = (-2, 124);
type = Stem;
},
{
horizontal = 1;
place = (478, -20);
target = down;
type = TopGhost;
},
{
horizontal = 1;
place = (489, -20);
target = down;
type = TopGhost;
}
);
layerId = m01;
shapes = (
{
closed = 1;
nodes = (
(403,548,o),
(358,533,o),
(322,501,c),
(268,426,l),
(291,534,l),
(111,534,l),
(-2,0,l),
(178,0,l),
(219,196,ls),
(254,357,o),
(313,407,o),
(446,398,c),
(478,545,l),
(465,547,o),
(454,548,o),
(437,548,cs)
);
}
);
width = 420;
}
);
note = r;
unicode = 114;
},
{
glyphname = racute;
kernLeft = m;
lastChange = "2022-11-29 13:08:13 +0000";
layers = (
{
hints = (
{
horizontal = 1;
place = (-56, 21);
target = up;
type = BottomGhost;
},
{
horizontal = 1;
place = (478, -20);
target = down;
type = TopGhost;
},
{
horizontal = 1;
place = (515, 69);
place = (515, 69);
type = Stem;
},
{
place = (-2, 124);
place = (-2, 124);
type = Stem;
},
{
horizontal = 1;
place = (492, -20);
target = down;
type = TopGhost;
},
{
horizontal = 1;
place = (489, -20);
target = down;
type = TopGhost;
}
);
layerId = m01;
shapes = (
{
closed = 1;
nodes = (
(320,571,l),
(502,696,l),
(342,696,l),
(224,571,l)
);
},
{
closed = 1;
nodes = (
(403,548,o),
(358,533,o),
(322,501,c),
(268,426,l),
(291,534,l),
(111,534,l),
(-2,0,l),
(178,0,l),
(219,196,ls),
(254,357,o),
(313,407,o),
(446,398,c),
(478,545,l),
(465,547,o),
(454,548,o),
(437,548,cs)
);
}
);
width = 420;
}
);
note = racute;
unicode = 341;
},
{
glyphname = rcaron;
kernLeft = m;
lastChange = "2022-11-29 13:08:13 +0000";
layers = (
{
hints = (
{
horizontal = 1;
place = (-56, 21);
target = up;
type = BottomGhost;
},
{
horizontal = 1;
place = (478, -20);
target = down;
type = TopGhost;
},
{
horizontal = 1;
place = (515, 69);
place = (515, 69);
type = Stem;
},
{
place = (-2, 124);
place = (-2, 124);
type = Stem;
},
{
horizontal = 1;
place = (492, -20);
target = down;
type = TopGhost;
},
{
horizontal = 1;
place = (489, -20);
target = down;
type = TopGhost;
}
);
layerId = m01;
shapes = (
{
closed = 1;
nodes = (
(204,571,l),
(353,571,l),
(442,696,l),
(339,696,l),
(290,620,l),
(273,696,l),
(169,696,l)
);
},
{
closed = 1;
nodes = (
(403,548,o),
(358,533,o),
(322,501,c),
(268,426,l),
(291,534,l),
(111,534,l),
(-2,0,l),
(178,0,l),
(219,196,ls),
(254,357,o),
(313,407,o),
(446,398,c),
(478,545,l),
(465,547,o),
(454,548,o),
(437,548,cs)
);
}
);
width = 420;
}
);
note = rcaron;
unicode = 345;
},
{
glyphname = rcommaaccent;
kernLeft = m;
lastChange = "2022-11-29 13:08:13 +0000";
layers = (
{
hints = (
{
horizontal = 1;
place = (-272, 123);
place = (-272, 123);
type = Stem;
},
{
horizontal = 1;
place = (-56, 21);
target = up;
type = BottomGhost;
},
{
horizontal = 1;
place = (492, -20);
target = down;
type = TopGhost;
},
{
place = (-2, 124);
place = (-2, 124);
type = Stem;
},
{
horizontal = 1;
place = (478, -20);
target = down;
type = TopGhost;
},
{
horizontal = 1;
place = (489, -20);
target = down;
type = TopGhost;
}
);
layerId = m01;
shapes = (
{
closed = 1;
nodes = (
(403,548,o),
(358,533,o),
(322,501,c),
(268,426,l),
(291,534,l),
(111,534,l),
(-2,0,l),
(178,0,l),
(219,196,ls),
(254,357,o),
(313,407,o),
(446,398,c),
(478,545,l),
(465,547,o),
(454,548,o),
(437,548,cs)
);
},
{
closed = 1;
nodes = (
(40,-37,l),
(-82,-216,l),
(15,-216,l),
(152,-47,l),
(154,-37,l)
);
}
);
width = 420;
}
);
note = rcommaaccent;
unicode = 343;
},
{
glyphname = s;
lastChange = "2022-11-29 13:08:13 +0000";
layers = (
{
hints = (
{
horizontal = 1;
place = (-70, 56);
place = (-70, 56);
type = Stem;
},
{
horizontal = 1;
place = (322, 114);
place = (322, 114);
type = Stem;
},
{
place = (-16, 124);
place = (-16, 124);
type = Stem;
},
{
place = (276, 124);
place = (276, 124);
type = Stem;
},
{
horizontal = 1;
place = (-70, 124);
place = (-70, 124);
type = Stem;
},
{
horizontal = 1;
place = (380, 56);
place = (380, 56);
type = Stem;
}
);
layerId = m01;
shapes = (
{
closed = 1;
nodes = (
(192,548,o),
(86,482,o),
(64,376,cs),
(44,285,o),
(95,238,o),
(192,214,cs),
(282,192,o),
(312,173,o),
(305,139,cs),
(299,111,o),
(272,98,o),
(240,98,cs),
(202,98,o),
(175,125,o),
(174,166,c),
(-3,166,l),
(-15,46,o),
(72,-14,o),
(217,-14,cs),
(346,-14,o),
(464,39,o),
(488,153,cs),
(510,256,o),
(450,298,o),
(358,322,cs),
(261,347,o),
(242,367,o),
(248,397,cs),
(253,420,o),
(274,436,o),
(299,436,cs),
(331,436,o),
(345,415,o),
(345,378,c),
(522,378,l),
(529,475,o),
(467,548,o),
(334,548,cs)
);
}
);
width = 528;
}
);
note = s;
unicode = 115;
},
{
glyphname = sacute;
lastChange = "2022-11-29 13:08:13 +0000";
layers = (
{
hints = (
{
horizontal = 1;
place = (-70, 56);
place = (-70, 56);
type = Stem;
},
{
horizontal = 1;
place = (515, 69);
place = (515, 69);
type = Stem;
},
{
place = (-16, 124);
place = (-16, 124);
type = Stem;
},
{
place = (276, 124);
place = (276, 124);
type = Stem;
},
{
horizontal = 1;
place = (322, 114);
place = (322, 114);
type = Stem;
},
{
horizontal = 1;
place = (-70, 124);
place = (-70, 124);
type = Stem;
},
{
horizontal = 1;
place = (380, 56);
place = (380, 56);
type = Stem;
}
);
layerId = m01;
shapes = (
{
closed = 1;
nodes = (
(376,571,l),
(558,696,l),
(398,696,l),
(280,571,l)
);
},
{
closed = 1;
nodes = (
(192,548,o),
(86,482,o),
(64,376,cs),
(44,285,o),
(95,238,o),
(192,214,cs),
(282,192,o),
(312,173,o),
(305,139,cs),
(299,111,o),
(272,98,o),
(240,98,cs),
(202,98,o),
(175,125,o),
(174,166,c),
(-3,166,l),
(-15,46,o),
(72,-14,o),
(217,-14,cs),
(346,-14,o),
(464,39,o),
(488,153,cs),
(510,256,o),
(450,298,o),
(358,322,cs),
(261,347,o),
(242,367,o),
(248,397,cs),
(253,420,o),
(274,436,o),
(299,436,cs),
(331,436,o),
(345,415,o),
(345,378,c),
(522,378,l),
(529,475,o),
(467,548,o),
(334,548,cs)
);
}
);
width = 528;
}
);
note = sacute;
unicode = 347;
},
{
glyphname = scaron;
lastChange = "2022-11-29 13:08:13 +0000";
layers = (
{
hints = (
{
horizontal = 1;
place = (-70, 56);
place = (-70, 56);
type = Stem;
},
{
horizontal = 1;
place = (515, 69);
place = (515, 69);
type = Stem;
},
{
place = (-16, 124);
place = (-16, 124);
type = Stem;
},
{
place = (276, 124);
place = (276, 124);
type = Stem;
},
{
horizontal = 1;
place = (380, 56);
place = (380, 56);
type = Stem;
},
{
horizontal = 1;
place = (322, 114);
place = (322, 114);
type = Stem;
},
{
horizontal = 1;
place = (-70, 124);
place = (-70, 124);
type = Stem;
}
);
layerId = m01;
shapes = (
{
closed = 1;
nodes = (
(260,571,l),
(409,571,l),
(498,696,l),
(395,696,l),
(346,620,l),
(329,696,l),
(225,696,l)
);
},
{
closed = 1;
nodes = (
(261,347,o),
(242,367,o),
(248,397,cs),
(253,420,o),
(274,436,o),
(299,436,cs),
(331,436,o),
(345,415,o),
(345,378,c),
(522,378,l),
(529,475,o),
(467,548,o),
(334,548,cs),
(192,548,o),
(86,482,o),
(64,376,cs),
(44,285,o),
(95,238,o),
(192,214,cs),
(282,192,o),
(312,173,o),
(305,139,cs),
(299,111,o),
(272,98,o),
(240,98,cs),
(202,98,o),
(175,125,o),
(174,166,c),
(-3,166,l),
(-15,46,o),
(72,-14,o),
(217,-14,cs),
(346,-14,o),
(464,39,o),
(488,153,cs),
(510,256,o),
(450,298,o),
(358,322,cs)
);
}
);
width = 528;
}
);
note = scaron;
unicode = 353;
},
